<?xml version="1.0" encoding="utf-8" standalone="no"?>
<!DOCTYPE svg PUBLIC "-//W3C//DTD SVG 1.1//EN"
  "http://www.w3.org/Graphics/SVG/1.1/DTD/svg11.dtd">
<svg xmlns:xlink="http://www.w3.org/1999/xlink" width="751.902542pt" height="306.20425pt" viewBox="0 0 751.902542 306.20425" xmlns="http://www.w3.org/2000/svg" version="1.1">
 <metadata>
  <rdf:RDF xmlns:dc="http://purl.org/dc/elements/1.1/" xmlns:cc="http://creativecommons.org/ns#" xmlns:rdf="http://www.w3.org/1999/02/22-rdf-syntax-ns#">
   <cc:Work>
    <dc:type rdf:resource="http://purl.org/dc/dcmitype/StillImage"/>
    <dc:date>2026-09-14T12:09:30.703590</dc:date>
    <dc:format>image/svg+xml</dc:format>
    <dc:creator>
     <cc:Agent>
      <dc:title>Matplotlib v3.5.1, https://matplotlib.org/</dc:title>
     </cc:Agent>
    </dc:creator>
   </cc:Work>
  </rdf:RDF>
 </metadata>
 <defs>
  <style type="text/css">*{stroke-linejoin: round; stroke-linecap: butt}</style>
 </defs>
 <g id="figure_1">
  <g id="patch_1">
   <path d="M 0 306.20425 
L 751.902542 306.20425 
L 751.902542 -0 
L 0 -0 
z
" style="fill: #ffffff"/>
  </g>
  <g id="axes_1">
   <g id="patch_2">
    <path d="M 34.240625 268.648 
L 313.646958 268.648 
L 313.646958 59.09325 
L 34.240625 59.09325 
z
" style="fill: #ffffff"/>
   </g>
   <g id="patch_3">
    <path d="M 104.092208 128.944833 
L 173.943792 128.944833 
L 173.943792 59.09325 
L 104.092208 59.09325 
z
" clip-path="url(#pc3e3c79d8f)" style="fill: #d7ebd4"/>
   </g>
   <g id="patch_4">
    <path d="M 34.240625 268.648 
L 104.092208 268.648 
L 104.092208 198.796417 
L 34.240625 198.796417 
z
" clip-path="url(#pc3e3c79d8f)" style="fill: #d7ebd4"/>
   </g>
   <g id="patch_5">
    <path d="M 104.092208 268.648 
L 173.943792 268.648 
L 173.943792 198.796417 
L 104.092208 198.796417 
z
" clip-path="url(#pc3e3c79d8f)" style="fill: #d7ebd4"/>
   </g>
   <g id="patch_6">
    <path d="M 173.943792 198.796417 
L 243.795375 198.796417 
L 243.795375 128.944833 
L 173.943792 128.944833 
z
" clip-path="url(#pc3e3c79d8f)" style="fill: #d7ebd4"/>
   </g>
   <g id="patch_7">
    <path d="M 173.943792 128.944833 
L 243.795375 128.944833 
L 243.795375 59.09325 
L 173.943792 59.09325 
z
" clip-path="url(#pc3e3c79d8f)" style="fill: #d7ebd4"/>
   </g>
   <g id="patch_8">
    <path d="M 243.795375 198.796417 
L 313.646958 198.796417 
L 313.646958 128.944833 
L 243.795375 128.944833 
z
" clip-path="url(#pc3e3c79d8f)" style="fill: #d7ebd4"/>
   </g>
   <g id="patch_9">
    <path d="M 243.795375 128.944833 
L 313.646958 128.944833 
L 313.646958 59.09325 
L 243.795375 59.09325 
z
" clip-path="url(#pc3e3c79d8f)" style="fill: #d7ebd4"/>
   </g>
   <g id="patch_10">
    <path d="M 243.795375 268.648 
L 313.646958 268.648 
L 313.646958 198.796417 
L 243.795375 198.796417 
z
" clip-path="url(#pc3e3c79d8f)" style="fill: #d7ebd4"/>
   </g>
   <g id="patch_11">
    <path d="M 173.943792 268.648 
L 243.795375 268.648 
L 243.795375 198.796417 
L 173.943792 198.796417 
z
" clip-path="url(#pc3e3c79d8f)" style="fill: #d7ebd4"/>
   </g>
   <g id="patch_12">
    <path d="M 104.092208 198.796417 
L 173.943792 198.796417 
L 173.943792 128.944833 
L 104.092208 128.944833 
z
" clip-path="url(#pc3e3c79d8f)" style="fill: #d7ebd4"/>
   </g>
   <g id="patch_13">
    <path d="M 34.240625 198.796417 
L 104.092208 198.796417 
L 104.092208 128.944833 
L 34.240625 128.944833 
z
" clip-path="url(#pc3e3c79d8f)" style="fill: #d7ebd4"/>
   </g>
   <g id="patch_14">
    <path d="M 34.240625 128.944833 
L 104.092208 128.944833 
L 104.092208 59.09325 
L 34.240625 59.09325 
z
" clip-path="url(#pc3e3c79d8f)" style="fill: #d7ebd4"/>
   </g>
   <g id="PathCollection_1">
    <defs>
     <path id="mbeef3c6ec7" d="M 0 2.5 
C 0.663008 2.5 1.29895 2.236584 1.767767 1.767767 
C 2.236584 1.29895 2.5 0.663008 2.5 0 
C 2.5 -0.663008 2.236584 -1.29895 1.767767 -1.767767 
C 1.29895 -2.236584 0.663008 -2.5 0 -2.5 
C -0.663008 -2.5 -1.29895 -2.236584 -1.767767 -1.767767 
C -2.236584 -1.29895 -2.5 -0.663008 -2.5 0 
C -2.5 0.663008 -2.236584 1.29895 -1.767767 1.767767 
C -1.29895 2.236584 -0.663008 2.5 0 2.5 
z
" style="stroke: #009e73"/>
    </defs>
    <g clip-path="url(#pc3e3c79d8f)">
     <use xlink:href="#mbeef3c6ec7" x="142.172078" y="103.748319" style="fill: #009e73; stroke: #009e73"/>
    </g>
   </g>
   <g id="PathCollection_2">
    <defs>
     <path id="me379a15d86" d="M 0 2.5 
C 0.663008 2.5 1.29895 2.236584 1.767767 1.767767 
C 2.236584 1.29895 2.5 0.663008 2.5 0 
C 2.5 -0.663008 2.236584 -1.29895 1.767767 -1.767767 
C 1.29895 -2.236584 0.663008 -2.5 0 -2.5 
C -0.663008 -2.5 -1.29895 -2.236584 -1.767767 -1.767767 
C -2.236584 -1.29895 -2.5 -0.663008 -2.5 0 
C -2.5 0.663008 -2.236584 1.29895 -1.767767 1.767767 
C -1.29895 2.236584 -0.663008 2.5 0 2.5 
z
" style="stroke: #cc79a7"/>
    </defs>
    <g clip-path="url(#pc3e3c79d8f)">
     <use xlink:href="#me379a15d86" x="107.82829" y="228.921728" style="fill: #cc79a7; stroke: #cc79a7"/>
    </g>
   </g>
   <g id="PathCollection_3">
    <defs>
     <path id="m574c10c7f3" d="M 0 2.5 
C 0.663008 2.5 1.29895 2.236584 1.767767 1.767767 
C 2.236584 1.29895 2.5 0.663008 2.5 0 
C 2.5 -0.663008 2.236584 -1.29895 1.767767 -1.767767 
C 1.29895 -2.236584 0.663008 -2.5 0 -2.5 
C -0.663008 -2.5 -1.29895 -2.236584 -1.767767 -1.767767 
C -2.236584 -1.29895 -2.5 -0.663008 -2.5 0 
C -2.5 0.663008 -2.236584 1.29895 -1.767767 1.767767 
C -1.29895 2.236584 -0.663008 2.5 0 2.5 
z
" style="stroke: #0072b2"/>
    </defs>
    <g clip-path="url(#pc3e3c79d8f)">
     <use xlink:href="#m574c10c7f3" x="260.9153" y="130.056102" style="fill: #0072b2; stroke: #0072b2"/>
    </g>
   </g>
   <g id="matplotlib.axis_1">
    <g id="xtick_1">
     <g id="line2d_1">
      <path d="M 34.240625 268.648 
L 34.240625 59.09325 
" clip-path="url(#pc3e3c79d8f)" style="fill: none; stroke: #999999; stroke-width: 0.6; stroke-linecap: square"/>
     </g>
     <g id="line2d_2">
      <defs>
       <path id="mfb970cbf9d" d="M 0 0 
L 0 3.5 
" style="stroke: #000000; stroke-width: 0.8"/>
      </defs>
      <g>
       <use xlink:href="#mfb970cbf9d" x="34.240625" y="268.648" style="stroke: #000000; stroke-width: 0.8"/>
      </g>
     </g>
     <g id="text_1">
      <!-- 0 -->
      <g transform="translate(31.059375 283.246437)scale(0.1 -0.1)">
       <defs>
        <path id="DejaVuSans-30" d="M 2034 4250 
Q 1547 4250 1301 3770 
Q 1056 3291 1056 2328 
Q 1056 1369 1301 889 
Q 1547 409 2034 409 
Q 2525 409 2770 889 
Q 3016 1369 3016 2328 
Q 3016 3291 2770 3770 
Q 2525 4250 2034 4250 
z
M 2034 4750 
Q 2819 4750 3233 4129 
Q 3647 3509 3647 2328 
Q 3647 1150 3233 529 
Q 2819 -91 2034 -91 
Q 1250 -91 836 529 
Q 422 1150 422 2328 
Q 422 3509 836 4129 
Q 1250 4750 2034 4750 
z
" transform="scale(0.015625)"/>
       </defs>
       <use xlink:href="#DejaVuSans-30"/>
      </g>
     </g>
    </g>
    <g id="xtick_2">
     <g id="line2d_3">
      <path d="M 104.092208 268.648 
L 104.092208 59.09325 
" clip-path="url(#pc3e3c79d8f)" style="fill: none; stroke: #999999; stroke-width: 0.6; stroke-linecap: square"/>
     </g>
     <g id="line2d_4">
      <g>
       <use xlink:href="#mfb970cbf9d" x="104.092208" y="268.648" style="stroke: #000000; stroke-width: 0.8"/>
      </g>
     </g>
     <g id="text_2">
      <!-- 1 -->
      <g transform="translate(100.910958 283.246437)scale(0.1 -0.1)">
       <defs>
        <path id="DejaVuSans-31" d="M 794 531 
L 1825 531 
L 1825 4091 
L 703 3866 
L 703 4441 
L 1819 4666 
L 2450 4666 
L 2450 531 
L 3481 531 
L 3481 0 
L 794 0 
L 794 531 
z
" transform="scale(0.015625)"/>
       </defs>
       <use xlink:href="#DejaVuSans-31"/>
      </g>
     </g>
    </g>
    <g id="xtick_3">
     <g id="line2d_5">
      <path d="M 173.943792 268.648 
L 173.943792 59.09325 
" clip-path="url(#pc3e3c79d8f)" style="fill: none; stroke: #999999; stroke-width: 0.6; stroke-linecap: square"/>
     </g>
     <g id="line2d_6">
      <g>
       <use xlink:href="#mfb970cbf9d" x="173.943792" y="268.648" style="stroke: #000000; stroke-width: 0.8"/>
      </g>
     </g>
     <g id="text_3">
      <!-- 2 -->
      <g transform="translate(170.762542 283.246437)scale(0.1 -0.1)">
       <defs>
        <path id="DejaVuSans-32" d="M 1228 531 
L 3431 531 
L 3431 0 
L 469 0 
L 469 531 
Q 828 903 1448 1529 
Q 2069 2156 2228 2338 
Q 2531 2678 2651 2914 
Q 2772 3150 2772 3378 
Q 2772 3750 2511 3984 
Q 2250 4219 1831 4219 
Q 1534 4219 1204 4116 
Q 875 4013 500 3803 
L 500 4441 
Q 881 4594 1212 4672 
Q 1544 4750 1819 4750 
Q 2544 4750 2975 4387 
Q 3406 4025 3406 3419 
Q 3406 3131 3298 2873 
Q 3191 2616 2906 2266 
Q 2828 2175 2409 1742 
Q 1991 1309 1228 531 
z
" transform="scale(0.015625)"/>
       </defs>
       <use xlink:href="#DejaVuSans-32"/>
      </g>
     </g>
    </g>
    <g id="xtick_4">
     <g id="line2d_7">
      <path d="M 243.795375 268.648 
L 243.795375 59.09325 
" clip-path="url(#pc3e3c79d8f)" style="fill: none; stroke: #999999; stroke-width: 0.6; stroke-linecap: square"/>
     </g>
     <g id="line2d_8">
      <g>
       <use xlink:href="#mfb970cbf9d" x="243.795375" y="268.648" style="stroke: #000000; stroke-width: 0.8"/>
      </g>
     </g>
     <g id="text_4">
      <!-- 3 -->
      <g transform="translate(240.614125 283.246437)scale(0.1 -0.1)">
       <defs>
        <path id="DejaVuSans-33" d="M 2597 2516 
Q 3050 2419 3304 2112 
Q 3559 1806 3559 1356 
Q 3559 666 3084 287 
Q 2609 -91 1734 -91 
Q 1441 -91 1130 -33 
Q 819 25 488 141 
L 488 750 
Q 750 597 1062 519 
Q 1375 441 1716 441 
Q 2309 441 2620 675 
Q 2931 909 2931 1356 
Q 2931 1769 2642 2001 
Q 2353 2234 1838 2234 
L 1294 2234 
L 1294 2753 
L 1863 2753 
Q 2328 2753 2575 2939 
Q 2822 3125 2822 3475 
Q 2822 3834 2567 4026 
Q 2313 4219 1838 4219 
Q 1578 4219 1281 4162 
Q 984 4106 628 3988 
L 628 4550 
Q 988 4650 1302 4700 
Q 1616 4750 1894 4750 
Q 2613 4750 3031 4423 
Q 3450 4097 3450 3541 
Q 3450 3153 3228 2886 
Q 3006 2619 2597 2516 
z
" transform="scale(0.015625)"/>
       </defs>
       <use xlink:href="#DejaVuSans-33"/>
      </g>
     </g>
    </g>
    <g id="xtick_5">
     <g id="line2d_9">
      <path d="M 313.646958 268.648 
L 313.646958 59.09325 
" clip-path="url(#pc3e3c79d8f)" style="fill: none; stroke: #999999; stroke-width: 0.6; stroke-linecap: square"/>
     </g>
     <g id="line2d_10">
      <g>
       <use xlink:href="#mfb970cbf9d" x="313.646958" y="268.648" style="stroke: #000000; stroke-width: 0.8"/>
      </g>
     </g>
     <g id="text_5">
      <!-- 4 -->
      <g transform="translate(310.465708 283.246437)scale(0.1 -0.1)">
       <defs>
        <path id="DejaVuSans-34" d="M 2419 4116 
L 825 1625 
L 2419 1625 
L 2419 4116 
z
M 2253 4666 
L 3047 4666 
L 3047 1625 
L 3713 1625 
L 3713 1100 
L 3047 1100 
L 3047 0 
L 2419 0 
L 2419 1100 
L 313 1100 
L 313 1709 
L 2253 4666 
z
" transform="scale(0.015625)"/>
       </defs>
       <use xlink:href="#DejaVuSans-34"/>
      </g>
     </g>
    </g>
    <g id="text_6">
     <!-- x (m) -->
     <g transform="translate(160.623479 296.924562)scale(0.1 -0.1)">
      <defs>
       <path id="DejaVuSans-78" d="M 3513 3500 
L 2247 1797 
L 3578 0 
L 2900 0 
L 1881 1375 
L 863 0 
L 184 0 
L 1544 1831 
L 300 3500 
L 978 3500 
L 1906 2253 
L 2834 3500 
L 3513 3500 
z
" transform="scale(0.015625)"/>
       <path id="DejaVuSans-20" transform="scale(0.015625)"/>
       <path id="DejaVuSans-28" d="M 1984 4856 
Q 1566 4138 1362 3434 
Q 1159 2731 1159 2009 
Q 1159 1288 1364 580 
Q 1569 -128 1984 -844 
L 1484 -844 
Q 1016 -109 783 600 
Q 550 1309 550 2009 
Q 550 2706 781 3412 
Q 1013 4119 1484 4856 
L 1984 4856 
z
" transform="scale(0.015625)"/>
       <path id="DejaVuSans-6d" d="M 3328 2828 
Q 3544 3216 3844 3400 
Q 4144 3584 4550 3584 
Q 5097 3584 5394 3201 
Q 5691 2819 5691 2113 
L 5691 0 
L 5113 0 
L 5113 2094 
Q 5113 2597 4934 2840 
Q 4756 3084 4391 3084 
Q 3944 3084 3684 2787 
Q 3425 2491 3425 1978 
L 3425 0 
L 2847 0 
L 2847 2094 
Q 2847 2600 2669 2842 
Q 2491 3084 2119 3084 
Q 1678 3084 1418 2786 
Q 1159 2488 1159 1978 
L 1159 0 
L 581 0 
L 581 3500 
L 1159 3500 
L 1159 2956 
Q 1356 3278 1631 3431 
Q 1906 3584 2284 3584 
Q 2666 3584 2933 3390 
Q 3200 3197 3328 2828 
z
" transform="scale(0.015625)"/>
       <path id="DejaVuSans-29" d="M 513 4856 
L 1013 4856 
Q 1481 4119 1714 3412 
Q 1947 2706 1947 2009 
Q 1947 1309 1714 600 
Q 1481 -109 1013 -844 
L 513 -844 
Q 928 -128 1133 580 
Q 1338 1288 1338 2009 
Q 1338 2731 1133 3434 
Q 928 4138 513 4856 
z
" transform="scale(0.015625)"/>
      </defs>
      <use xlink:href="#DejaVuSans-78"/>
      <use xlink:href="#DejaVuSans-20" x="59.179688"/>
      <use xlink:href="#DejaVuSans-28" x="90.966797"/>
      <use xlink:href="#DejaVuSans-6d" x="129.980469"/>
      <use xlink:href="#DejaVuSans-29" x="227.392578"/>
     </g>
    </g>
   </g>
   <g id="matplotlib.axis_2">
    <g id="ytick_1">
     <g id="line2d_11">
      <path d="M 34.240625 268.648 
L 313.646958 268.648 
" clip-path="url(#pc3e3c79d8f)" style="fill: none; stroke: #999999; stroke-width: 0.6; stroke-linecap: square"/>
     </g>
     <g id="line2d_12">
      <defs>
       <path id="m18697d9c8c" d="M 0 0 
L -3.5 0 
" style="stroke: #000000; stroke-width: 0.8"/>
      </defs>
      <g>
       <use xlink:href="#m18697d9c8c" x="34.240625" y="268.648" style="stroke: #000000; stroke-width: 0.8"/>
      </g>
     </g>
     <g id="text_7">
      <!-- 0 -->
      <g transform="translate(20.878125 272.447219)scale(0.1 -0.1)">
       <use xlink:href="#DejaVuSans-30"/>
      </g>
     </g>
    </g>
    <g id="ytick_2">
     <g id="line2d_13">
      <path d="M 34.240625 198.796417 
L 313.646958 198.796417 
" clip-path="url(#pc3e3c79d8f)" style="fill: none; stroke: #999999; stroke-width: 0.6; stroke-linecap: square"/>
     </g>
     <g id="line2d_14">
      <g>
       <use xlink:href="#m18697d9c8c" x="34.240625" y="198.796417" style="stroke: #000000; stroke-width: 0.8"/>
      </g>
     </g>
     <g id="text_8">
      <!-- 1 -->
      <g transform="translate(20.878125 202.595635)scale(0.1 -0.1)">
       <use xlink:href="#DejaVuSans-31"/>
      </g>
     </g>
    </g>
    <g id="ytick_3">
     <g id="line2d_15">
      <path d="M 34.240625 128.944833 
L 313.646958 128.944833 
" clip-path="url(#pc3e3c79d8f)" style="fill: none; stroke: #999999; stroke-width: 0.6; stroke-linecap: square"/>
     </g>
     <g id="line2d_16">
      <g>
       <use xlink:href="#m18697d9c8c" x="34.240625" y="128.944833" style="stroke: #000000; stroke-width: 0.8"/>
      </g>
     </g>
     <g id="text_9">
      <!-- 2 -->
      <g transform="translate(20.878125 132.744052)scale(0.1 -0.1)">
       <use xlink:href="#DejaVuSans-32"/>
      </g>
     </g>
    </g>
    <g id="ytick_4">
     <g id="line2d_17">
      <path d="M 34.240625 59.09325 
L 313.646958 59.09325 
" clip-path="url(#pc3e3c79d8f)" style="fill: none; stroke: #999999; stroke-width: 0.6; stroke-linecap: square"/>
     </g>
     <g id="line2d_18">
      <g>
       <use xlink:href="#m18697d9c8c" x="34.240625" y="59.09325" style="stroke: #000000; stroke-width: 0.8"/>
      </g>
     </g>
     <g id="text_10">
      <!-- 3 -->
      <g transform="translate(20.878125 62.892469)scale(0.1 -0.1)">
       <use xlink:href="#DejaVuSans-33"/>
      </g>
     </g>
    </g>
    <g id="text_11">
     <!-- y (m) -->
     <g transform="translate(14.798437 177.190937)rotate(-90)scale(0.1 -0.1)">
      <defs>
       <path id="DejaVuSans-79" d="M 2059 -325 
Q 1816 -950 1584 -1140 
Q 1353 -1331 966 -1331 
L 506 -1331 
L 506 -850 
L 844 -850 
Q 1081 -850 1212 -737 
Q 1344 -625 1503 -206 
L 1606 56 
L 191 3500 
L 800 3500 
L 1894 763 
L 2988 3500 
L 3597 3500 
L 2059 -325 
z
" transform="scale(0.015625)"/>
      </defs>
      <use xlink:href="#DejaVuSans-79"/>
      <use xlink:href="#DejaVuSans-20" x="59.179688"/>
      <use xlink:href="#DejaVuSans-28" x="90.966797"/>
      <use xlink:href="#DejaVuSans-6d" x="129.980469"/>
      <use xlink:href="#DejaVuSans-29" x="227.392578"/>
     </g>
    </g>
   </g>
   <g id="line2d_19">
    <path d="M 142.172078 103.748319 
L 142.238647 103.780032 
L 142.168446 103.74329 
L 142.238507 103.779124 
L 141.885338 107.267931 
L 141.58302 112.899715 
L 141.142047 117.82516 
L 140.931025 123.056694 
L 140.4721 128.25449 
L 140.032944 137.76625 
L 139.500325 143.953284 
L 139.291329 149.026675 
L 138.877668 152.329327 
L 138.418394 151.604198 
L 138.093165 150.439493 
L 138.749141 150.00292 
L 139.903578 150.03582 
L 140.461483 149.822144 
L 141.988997 149.413233 
L 142.682344 148.915122 
L 143.293546 148.265013 
L 143.448476 147.621959 
L 143.976764 146.900951 
L 144.045009 144.92939 
L 143.507082 142.90111 
L 143.254708 142.700496 
L 145.253581 137.903718 
L 146.968577 133.735395 
L 150.729107 125.292154 
L 152.640456 120.326056 
L 154.893519 114.909764 
L 157.051234 110.212036 
L 166.002505 87.568667 
L 166.248592 85.860377 
L 165.799796 85.47752 
L 165.087449 85.327619 
L 164.415337 85.307781 
L 163.728347 85.124141 
L 163.24658 85.407529 
L 161.610307 85.982687 
L 161.314136 86.841023 
L 160.810227 87.602685 
L 160.428837 89.096181 
L 160.542975 90.012495 
L 160.783544 90.681673 
L 160.754695 91.240765 
L 160.593408 91.432647 
L 159.533899 93.11628 
L 156.868223 96.430528 
L 153.45758 100.908713 
L 150.445859 105.065441 
L 147.295622 109.064514 
L 144.415292 113.361015 
L 141.822332 116.452506 
L 138.848121 121.125088 
L 135.507259 125.911738 
L 126.625142 138.019113 
L 125.370677 139.511841 
L 124.309422 140.310105 
L 123.467641 140.404544 
L 122.764026 139.977262 
L 122.178879 139.349506 
L 122.002434 138.929279 
L 121.855606 139.009189 
L 121.64654 139.330437 
L 121.676925 139.960568 
L 122.298535 141.737173 
L 122.725747 142.57169 
L 123.70304 143.255816 
L 124.467985 143.751343 
L 125.199611 144.062253 
L 125.949188 144.127215 
L 126.429278 143.925833 
L 127.146304 143.840683 
L 128.076308 143.518179 
L 129.236194 142.697143 
L 129.314497 142.38798 
L 130.650269 142.462721 
L 143.528596 144.334045 
L 148.36016 145.311339 
L 153.431525 145.719482 
L 158.229071 146.422328 
L 172.197223 148.049591 
L 177.18253 148.831439 
L 182.223789 149.38648 
L 188.058771 149.882566 
L 197.816059 151.03365 
L 207.668765 152.355103 
L 222.721432 153.968814 
L 227.521982 154.414187 
L 242.398832 156.206649 
L 252.293728 157.103962 
L 257.280572 157.802618 
L 261.323652 158.179467 
L 266.95823 158.963272 
L 295.84647 162.006845 
L 300.460865 162.70564 
L 303.218117 163.361756 
L 304.04523 162.720589 
L 304.088957 162.866229 
L 303.487255 164.071937 
L 302.756258 163.26592 
L 302.055856 162.875659 
L 302.122215 162.837311 
L 301.445703 162.283387 
L 300.944657 162.214234 
L 300.507317 162.727574 
L 299.388085 162.639631 
L 298.850367 162.708784 
L 298.409674 162.578301 
L 296.771375 161.604151 
L 293.849273 159.132592 
L 285.384728 153.117393 
L 281.292334 150.349384 
L 273.522463 144.681208 
L 269.940194 142.249884 
L 261.068275 135.896393 
L 253.499506 131.005455 
L 240.79518 122.204575 
L 228.822548 114.41752 
L 215.746611 105.581015 
L 212.513391 103.445722 
L 207.232472 99.641326 
L 203.208392 97.323022 
L 195.074385 92.004801 
L 190.926528 89.196419 
L 188.686527 87.841437 
L 187.569181 87.794986 
L 186.604461 89.265711 
L 186.559477 90.029259 
L 186.790965 90.530584 
L 186.975652 91.329546 
L 187.935413 92.963445 
L 188.74185 93.722661 
L 188.893637 94.020089 
L 189.417245 94.152249 
L 190.025023 94.07639 
L 190.481154 94.201564 
L 191.839977 94.099092 
L 192.700339 94.730061 
L 201.216085 105.017034 
L 203.947352 108.185013 
L 207.623571 112.63379 
L 211.031909 116.345703 
L 217.015396 123.159376 
L 224.416869 131.580613 
L 240.388574 149.847361 
L 247.934221 157.984023 
L 250.596265 161.144667 
L 267.902833 180.253895 
L 271.192912 184.130937 
L 273.885272 187.074203 
L 277.599699 191.469754 
L 280.922539 195.030019 
L 289.826171 205.31315 
L 291.267699 206.030596 
L 292.114439 205.908146 
L 292.739262 205.333198 
L 293.230249 204.489041 
L 294.047233 203.569306 
L 294.050236 203.065745 
L 293.338519 200.070719 
L 292.210346 199.238647 
L 291.576792 198.747451 
L 291.091463 198.68172 
L 289.826102 198.210362 
L 288.903153 196.445841 
L 287.017369 192.066985 
L 284.947038 187.747642 
L 282.657024 183.368297 
L 280.692378 179.11734 
L 269.307897 156.383932 
L 266.94384 152.084428 
L 265.110306 148.269134 
L 260.015402 138.526934 
L 257.445771 134.019691 
L 252.997134 125.149238 
L 250.444128 120.726934 
L 248.51343 117.035278 
L 245.896371 111.783836 
L 240.950739 103.028988 
L 239.167568 99.209433 
L 236.375949 94.012406 
L 233.649642 89.490633 
L 231.996814 85.920729 
L 231.079663 84.798982 
L 230.178996 84.792136 
L 229.593989 84.990375 
L 229.106216 85.40222 
L 228.019185 87.031299 
L 227.80977 88.638444 
L 228.016461 89.25712 
L 228.00752 89.910581 
L 228.604891 90.938168 
L 229.059345 91.569416 
L 230.578966 92.46205 
L 231.863747 92.662314 
L 232.168439 92.547548 
L 232.444842 92.625363 
L 233.894681 94.830927 
L 238.523047 102.54771 
L 243.480275 110.455818 
L 246.752332 115.424361 
L 252.070483 124.060531 
L 256.98517 131.562172 
L 259.671872 136.078217 
L 263.147337 141.001356 
L 265.708934 145.172753 
L 271.103782 153.619416 
L 273.346506 157.246599 
L 279.343614 166.41441 
L 281.974295 170.573932 
L 284.086467 174.124348 
L 290.00548 183.200095 
L 292.583702 187.495478 
L 292.093763 188.461316 
L 291.481025 189.109329 
L 290.676894 189.322516 
L 289.711754 190.400186 
L 288.71609 193.304126 
L 287.605101 196.919225 
L 286.579609 201.550176 
L 286.579609 201.550176 
" clip-path="url(#pc3e3c79d8f)" style="fill: none; stroke: #009e73; stroke-opacity: 0.85; stroke-width: 0.75; stroke-linecap: square"/>
   </g>
   <g id="line2d_20">
    <path d="M 107.82829 228.921728 
L 107.902822 228.850689 
L 107.825217 228.929691 
L 107.896605 228.155177 
L 107.871389 223.674128 
L 108.253547 218.543529 
L 108.178736 213.714899 
L 108.298531 208.680276 
L 108.693402 204.412274 
L 108.606786 199.371924 
L 108.857833 193.477708 
L 108.941724 188.335094 
L 108.786095 186.42179 
L 108.996278 188.328668 
L 109.32521 190.220598 
L 109.983281 192.195721 
L 109.278199 192.730575 
L 108.632561 192.859032 
L 107.374674 193.939985 
L 107.026743 194.51675 
L 106.639626 195.419023 
L 106.55301 196.892263 
L 106.932583 198.493051 
L 107.335278 198.873603 
L 107.553145 199.563177 
L 108.187188 200.031183 
L 108.663506 200.175008 
L 109.335967 200.174449 
L 109.571925 200.353339 
L 109.695004 201.455247 
L 109.268839 205.316713 
L 108.85895 214.283351 
L 108.357556 219.557006 
L 107.945082 230.394688 
L 107.647235 235.474435 
L 107.631029 240.581354 
L 107.477356 244.18374 
L 107.086955 245.918644 
L 106.695926 246.283269 
L 106.710804 245.724387 
L 107.457099 245.557721 
L 108.072491 245.65237 
L 108.875505 245.60515 
L 110.184314 245.036908 
L 110.887929 244.611442 
L 111.915725 243.375348 
L 112.228172 241.717351 
L 112.310806 240.779523 
L 111.958684 238.969739 
L 111.379195 238.434466 
L 110.984604 237.917774 
L 109.783855 237.126495 
L 109.325 237.058669 
L 109.860622 234.152773 
L 110.22874 229.600895 
L 111.251996 224.903446 
L 111.662583 219.765094 
L 112.740882 210.73517 
L 113.240251 204.713894 
L 114.366957 194.491324 
L 114.881135 189.60765 
L 115.059186 185.958604 
L 114.71866 184.827148 
L 114.208045 185.612978 
L 114.134631 187.122261 
L 113.616961 188.066096 
L 112.124442 188.844662 
L 111.640091 189.4947 
L 111.332954 190.855828 
L 111.447301 192.498528 
L 111.97496 193.732666 
L 112.968738 194.89304 
L 113.551999 195.34973 
L 114.309469 195.563616 
L 115.132391 195.587714 
L 115.610804 197.749621 
L 116.580274 207.642072 
L 120.016972 232.862126 
L 120.698514 237.808805 
L 121.558457 242.913699 
L 122.251594 246.170319 
L 122.91239 247.287246 
L 123.503544 247.593825 
L 124.746833 246.73004 
L 125.274631 246.076578 
L 125.940945 244.755266 
L 125.937243 243.930738 
L 126.048936 243.219858 
L 125.829532 242.179279 
L 125.523792 241.577019 
L 124.75759 241.003747 
L 123.718128 239.895132 
L 122.294832 239.541474 
L 121.394376 239.552231 
L 120.922738 239.781274 
L 120.629641 239.661409 
L 119.66967 237.889274 
L 115.95147 229.665647 
L 110.987118 219.859114 
L 109.27331 216.117025 
L 104.226533 206.440415 
L 102.019363 201.959227 
L 99.697147 197.716651 
L 95.305368 189.375254 
L 92.966737 185.001148 
L 90.144174 179.996352 
L 80.833238 162.342272 
L 58.130076 120.122229 
L 58.037593 120.603786 
L 57.447975 120.744257 
L 57.028097 121.315713 
L 56.565331 121.708 
L 56.283549 122.230979 
L 56.10934 123.542791 
L 56.742614 125.777832 
L 58.145094 127.579584 
L 58.786052 127.850259 
L 59.857366 127.977249 
L 60.491199 127.733816 
L 61.038836 127.776356 
L 61.930072 127.415223 
L 61.93559 127.641962 
L 62.260819 127.484516 
L 62.560692 127.091671 
L 61.454662 125.794038 
L 58.312598 123.202824 
L 58.098783 122.473503 
L 58.331109 120.765702 
L 57.937146 118.583399 
L 57.411164 117.958367 
L 56.069873 117.008036 
L 54.533767 116.612397 
L 53.822608 116.747629 
L 52.40986 117.372941 
L 51.852025 117.644454 
L 50.966098 118.767039 
L 50.933756 118.736234 
L 51.056486 119.089334 
L 50.817384 119.362384 
L 50.750675 119.846245 
L 50.935293 120.557893 
L 50.977344 121.247887 
L 51.226225 121.939977 
L 51.611945 122.558024 
L 52.486906 123.50598 
L 52.853208 123.698071 
L 54.485151 124.269248 
L 56.221661 124.101953 
L 57.644957 123.079815 
L 58.141182 122.59267 
L 58.864845 121.220645 
L 58.887477 120.923916 
L 61.243361 120.738669 
L 69.311079 120.617756 
L 74.897599 120.508299 
L 79.804394 120.628653 
L 99.614862 120.100855 
L 104.523193 119.82522 
L 134.375594 118.800847 
L 139.213515 118.490007 
L 144.143709 118.308742 
L 159.052342 117.398227 
L 163.212214 117.27445 
L 169.019465 116.926938 
L 182.457303 116.501891 
L 183.850143 115.84836 
L 184.172578 115.206913 
L 183.954921 114.649218 
L 183.12201 113.4009 
L 182.561032 112.71845 
L 181.160578 112.336362 
L 179.750414 112.512039 
L 178.542191 112.968868 
L 177.797713 113.496387 
L 177.512788 114.212645 
L 176.997284 114.702654 
L 176.608699 116.153122 
L 176.684419 117.384117 
L 175.975495 117.771165 
L 168.945422 120.14046 
L 163.307002 122.207997 
L 137.034005 132.562167 
L 135.509495 133.781986 
L 135.381107 134.504181 
L 135.704311 135.062365 
L 136.403665 135.748867 
L 137.325287 136.402538 
L 138.177266 136.793287 
L 139.75696 137.07423 
L 140.699048 136.92363 
L 141.412931 136.637518 
L 142.248007 136.108602 
L 143.401257 134.74475 
L 143.727184 134.139346 
L 143.979628 133.196629 
L 143.725857 131.019425 
L 143.613606 130.851991 
L 144.945396 129.5867 
L 156.52148 120.24419 
L 160.378544 116.868612 
L 163.753982 114.208385 
L 167.521707 110.749963 
L 179.631247 100.269222 
L 186.697573 94.154344 
L 188.559956 92.157986 
L 189.129037 90.928808 
L 188.184993 90.288199 
L 187.413063 89.895842 
L 185.257373 90.16037 
L 184.74124 90.511794 
L 183.821155 91.655823 
L 183.072206 93.648479 
L 182.935087 94.789994 
L 182.935087 94.789994 
" clip-path="url(#pc3e3c79d8f)" style="fill: none; stroke: #cc79a7; stroke-opacity: 0.85; stroke-width: 0.75; stroke-linecap: square"/>
   </g>
   <g id="line2d_21">
    <path d="M 260.9153 130.056102 
L 260.902377 130.073006 
L 260.925079 129.933513 
L 261.02336 130.095289 
L 260.460356 145.906335 
L 260.464687 151.070462 
L 260.123392 156.306397 
L 260.03503 161.39264 
L 259.789152 166.431594 
L 259.761351 170.793825 
L 259.031542 191.357153 
L 258.228389 222.307971 
L 257.85112 233.25092 
L 257.535461 243.506389 
L 257.196401 248.49037 
L 257.140031 252.611054 
L 257.551457 254.145903 
L 258.434521 254.545873 
L 259.231737 254.547899 
L 259.780351 254.283231 
L 260.461963 253.754665 
L 261.541449 252.430837 
L 261.821554 251.636555 
L 261.931989 250.920506 
L 261.936669 250.148157 
L 261.337902 248.914369 
L 260.8678 248.566578 
L 260.781883 248.297789 
L 259.047887 247.861077 
L 258.196955 248.102274 
L 257.329678 246.489262 
L 255.868173 242.899868 
L 253.096253 237.569284 
L 248.707548 228.819186 
L 237.204389 206.42875 
L 230.152453 193.010959 
L 226.029463 184.923683 
L 220.59508 175.146207 
L 209.414216 153.708267 
L 204.007005 143.879521 
L 197.407707 131.341651 
L 196.109655 128.526911 
L 197.900789 132.378109 
L 199.002209 133.366299 
L 200.169569 134.152339 
L 200.015546 134.34918 
L 199.196257 134.198441 
L 198.409728 134.59897 
L 197.450526 135.63906 
L 197.412736 136.474066 
L 196.990064 136.970152 
L 197.69319 139.583509 
L 198.003261 140.041246 
L 198.503189 140.511068 
L 199.098325 140.728795 
L 199.774209 141.110534 
L 201.59489 141.289913 
L 202.811425 141.001007 
L 203.811281 142.109063 
L 209.706545 150.345752 
L 212.771074 154.292576 
L 218.291025 161.701663 
L 234.291299 182.204221 
L 237.391731 186.376665 
L 243.645543 194.100574 
L 252.902694 205.785976 
L 258.479226 213.086863 
L 274.311855 233.217042 
L 276.129673 235.112325 
L 277.342366 235.434271 
L 278.134134 234.748677 
L 278.654109 234.147325 
L 279.158298 231.97529 
L 278.449793 230.219151 
L 277.921506 229.622479 
L 277.39252 229.204487 
L 276.754006 228.936956 
L 276.206649 228.857465 
L 275.48159 228.9065 
L 274.30487 229.508062 
L 273.629196 230.157263 
L 273.449817 230.787883 
L 272.466865 230.646783 
L 260.553538 226.048663 
M 246.747862 220.735123 
L 242.187881 219.315389 
L 232.847257 215.921161 
L 228.104754 214.55682 
L 219.084469 211.200381 
L 209.467932 208.076688 
L 204.768317 206.335777 
L 190.561483 201.469567 
L 181.956048 198.45589 
L 177.171913 196.950379 
L 148.015513 186.898108 
L 139.608036 184.022597 
L 134.192862 181.998927 
L 129.640076 180.418954 
L 125.764151 178.950115 
L 120.301897 177.24413 
L 115.495829 175.575515 
L 111.024419 173.836141 
L 105.856659 172.213768 
L 101.69092 170.764767 
L 99.068622 170.024829 
L 97.666701 170.201763 
L 97.435283 170.796829 
L 97.377236 171.508057 
L 97.899307 172.764897 
L 98.336089 173.002811 
L 99.010296 173.498339 
L 99.706716 173.796745 
L 100.340689 173.934771 
L 102.220675 173.70482 
L 103.295062 172.568404 
L 103.832989 171.867025 
L 104.015372 171.316035 
L 104.422117 170.700503 
L 104.613301 170.072468 
L 105.084799 169.763235 
L 108.488388 169.217484 
L 113.246049 168.067029 
L 132.502594 164.104558 
L 137.423219 162.930702 
L 142.490043 161.556442 
L 166.700322 155.74025 
L 169.268695 154.957004 
L 169.870536 154.488859 
L 169.817659 153.717418 
L 169.62878 152.805226 
L 168.393594 152.189415 
L 167.912177 151.764996 
L 167.379699 151.686693 
L 166.738112 151.849936 
L 165.112177 152.966234 
L 164.251954 154.07408 
L 164.027032 155.471252 
L 164.105895 156.169418 
L 164.371889 157.229346 
L 164.627616 157.599839 
L 163.179034 159.210826 
L 156.067444 165.804745 
L 152.664205 169.303611 
L 145.349836 176.405142 
L 131.153061 191.064964 
L 127.565274 194.429854 
L 124.636118 197.722588 
L 120.388164 201.92479 
L 117.013564 205.523753 
L 113.451832 208.973024 
L 109.895687 212.782799 
L 102.859188 220.090183 
L 92.386131 230.800875 
L 90.229743 232.942665 
L 90.626639 234.152843 
L 91.031429 234.849822 
L 91.761797 234.964798 
L 92.268501 234.811264 
L 93.234618 234.768655 
L 93.826959 234.372038 
L 94.760456 234.230868 
L 95.448284 233.784446 
L 96.463507 232.75679 
L 96.633247 231.794305 
L 96.305852 229.490809 
L 95.981112 228.759672 
L 95.483629 227.98425 
L 95.121169 227.742424 
L 95.334217 227.005979 
L 98.928849 219.094239 
L 100.818125 215.236476 
L 108.975463 196.999624 
L 116.378124 179.47491 
L 116.526419 178.76438 
L 116.126449 179.478193 
L 115.303597 182.384787 
L 114.630228 184.216296 
L 113.874853 184.765259 
L 113.19827 185.112212 
L 112.770779 185.20267 
L 111.092105 185.993599 
L 110.213722 187.088383 
L 110.11579 187.676883 
L 110.378781 189.347244 
L 110.215817 190.371687 
L 111.087286 191.554903 
L 112.009117 192.070547 
L 113.032582 192.339825 
L 114.228721 192.296098 
L 114.733608 192.985533 
L 115.479693 195.869845 
L 117.049537 200.162853 
L 118.912828 205.741969 
L 129.246392 233.532422 
L 130.431424 234.82733 
L 131.078529 235.178404 
L 132.170589 234.852966 
L 132.607511 234.246025 
L 132.942798 233.490231 
L 132.91821 232.906062 
L 133.001194 231.991426 
L 132.811128 230.225578 
L 132.082786 229.006668 
L 131.453772 228.58176 
L 130.737654 228.495843 
L 130.737654 228.495843 
" clip-path="url(#pc3e3c79d8f)" style="fill: none; stroke: #0072b2; stroke-opacity: 0.85; stroke-width: 0.75; stroke-linecap: square"/>
   </g>
   <g id="patch_15">
    <path d="M 34.240625 268.648 
L 34.240625 59.09325 
" style="fill: none; stroke: #000000; stroke-width: 0.8; stroke-linejoin: miter; stroke-linecap: square"/>
   </g>
   <g id="patch_16">
    <path d="M 313.646958 268.648 
L 313.646958 59.09325 
" style="fill: none; stroke: #000000; stroke-width: 0.8; stroke-linejoin: miter; stroke-linecap: square"/>
   </g>
   <g id="patch_17">
    <path d="M 34.240625 268.648 
L 313.646958 268.648 
" style="fill: none; stroke: #000000; stroke-width: 0.8; stroke-linejoin: miter; stroke-linecap: square"/>
   </g>
   <g id="patch_18">
    <path d="M 34.240625 59.09325 
L 313.646958 59.09325 
" style="fill: none; stroke: #000000; stroke-width: 0.8; stroke-linejoin: miter; stroke-linecap: square"/>
   </g>
   <g id="text_12">
    <!-- Visited 1 m cells and detected paths -->
    <g transform="translate(64.356604 53.09325)scale(0.12 -0.12)">
     <defs>
      <path id="DejaVuSans-56" d="M 1831 0 
L 50 4666 
L 709 4666 
L 2188 738 
L 3669 4666 
L 4325 4666 
L 2547 0 
L 1831 0 
z
" transform="scale(0.015625)"/>
      <path id="DejaVuSans-69" d="M 603 3500 
L 1178 3500 
L 1178 0 
L 603 0 
L 603 3500 
z
M 603 4863 
L 1178 4863 
L 1178 4134 
L 603 4134 
L 603 4863 
z
" transform="scale(0.015625)"/>
      <path id="DejaVuSans-73" d="M 2834 3397 
L 2834 2853 
Q 2591 2978 2328 3040 
Q 2066 3103 1784 3103 
Q 1356 3103 1142 2972 
Q 928 2841 928 2578 
Q 928 2378 1081 2264 
Q 1234 2150 1697 2047 
L 1894 2003 
Q 2506 1872 2764 1633 
Q 3022 1394 3022 966 
Q 3022 478 2636 193 
Q 2250 -91 1575 -91 
Q 1294 -91 989 -36 
Q 684 19 347 128 
L 347 722 
Q 666 556 975 473 
Q 1284 391 1588 391 
Q 1994 391 2212 530 
Q 2431 669 2431 922 
Q 2431 1156 2273 1281 
Q 2116 1406 1581 1522 
L 1381 1569 
Q 847 1681 609 1914 
Q 372 2147 372 2553 
Q 372 3047 722 3315 
Q 1072 3584 1716 3584 
Q 2034 3584 2315 3537 
Q 2597 3491 2834 3397 
z
" transform="scale(0.015625)"/>
      <path id="DejaVuSans-74" d="M 1172 4494 
L 1172 3500 
L 2356 3500 
L 2356 3053 
L 1172 3053 
L 1172 1153 
Q 1172 725 1289 603 
Q 1406 481 1766 481 
L 2356 481 
L 2356 0 
L 1766 0 
Q 1100 0 847 248 
Q 594 497 594 1153 
L 594 3053 
L 172 3053 
L 172 3500 
L 594 3500 
L 594 4494 
L 1172 4494 
z
" transform="scale(0.015625)"/>
      <path id="DejaVuSans-65" d="M 3597 1894 
L 3597 1613 
L 953 1613 
Q 991 1019 1311 708 
Q 1631 397 2203 397 
Q 2534 397 2845 478 
Q 3156 559 3463 722 
L 3463 178 
Q 3153 47 2828 -22 
Q 2503 -91 2169 -91 
Q 1331 -91 842 396 
Q 353 884 353 1716 
Q 353 2575 817 3079 
Q 1281 3584 2069 3584 
Q 2775 3584 3186 3129 
Q 3597 2675 3597 1894 
z
M 3022 2063 
Q 3016 2534 2758 2815 
Q 2500 3097 2075 3097 
Q 1594 3097 1305 2825 
Q 1016 2553 972 2059 
L 3022 2063 
z
" transform="scale(0.015625)"/>
      <path id="DejaVuSans-64" d="M 2906 2969 
L 2906 4863 
L 3481 4863 
L 3481 0 
L 2906 0 
L 2906 525 
Q 2725 213 2448 61 
Q 2172 -91 1784 -91 
Q 1150 -91 751 415 
Q 353 922 353 1747 
Q 353 2572 751 3078 
Q 1150 3584 1784 3584 
Q 2172 3584 2448 3432 
Q 2725 3281 2906 2969 
z
M 947 1747 
Q 947 1113 1208 752 
Q 1469 391 1925 391 
Q 2381 391 2643 752 
Q 2906 1113 2906 1747 
Q 2906 2381 2643 2742 
Q 2381 3103 1925 3103 
Q 1469 3103 1208 2742 
Q 947 2381 947 1747 
z
" transform="scale(0.015625)"/>
      <path id="DejaVuSans-63" d="M 3122 3366 
L 3122 2828 
Q 2878 2963 2633 3030 
Q 2388 3097 2138 3097 
Q 1578 3097 1268 2742 
Q 959 2388 959 1747 
Q 959 1106 1268 751 
Q 1578 397 2138 397 
Q 2388 397 2633 464 
Q 2878 531 3122 666 
L 3122 134 
Q 2881 22 2623 -34 
Q 2366 -91 2075 -91 
Q 1284 -91 818 406 
Q 353 903 353 1747 
Q 353 2603 823 3093 
Q 1294 3584 2113 3584 
Q 2378 3584 2631 3529 
Q 2884 3475 3122 3366 
z
" transform="scale(0.015625)"/>
      <path id="DejaVuSans-6c" d="M 603 4863 
L 1178 4863 
L 1178 0 
L 603 0 
L 603 4863 
z
" transform="scale(0.015625)"/>
      <path id="DejaVuSans-61" d="M 2194 1759 
Q 1497 1759 1228 1600 
Q 959 1441 959 1056 
Q 959 750 1161 570 
Q 1363 391 1709 391 
Q 2188 391 2477 730 
Q 2766 1069 2766 1631 
L 2766 1759 
L 2194 1759 
z
M 3341 1997 
L 3341 0 
L 2766 0 
L 2766 531 
Q 2569 213 2275 61 
Q 1981 -91 1556 -91 
Q 1019 -91 701 211 
Q 384 513 384 1019 
Q 384 1609 779 1909 
Q 1175 2209 1959 2209 
L 2766 2209 
L 2766 2266 
Q 2766 2663 2505 2880 
Q 2244 3097 1772 3097 
Q 1472 3097 1187 3025 
Q 903 2953 641 2809 
L 641 3341 
Q 956 3463 1253 3523 
Q 1550 3584 1831 3584 
Q 2591 3584 2966 3190 
Q 3341 2797 3341 1997 
z
" transform="scale(0.015625)"/>
      <path id="DejaVuSans-6e" d="M 3513 2113 
L 3513 0 
L 2938 0 
L 2938 2094 
Q 2938 2591 2744 2837 
Q 2550 3084 2163 3084 
Q 1697 3084 1428 2787 
Q 1159 2491 1159 1978 
L 1159 0 
L 581 0 
L 581 3500 
L 1159 3500 
L 1159 2956 
Q 1366 3272 1645 3428 
Q 1925 3584 2291 3584 
Q 2894 3584 3203 3211 
Q 3513 2838 3513 2113 
z
" transform="scale(0.015625)"/>
      <path id="DejaVuSans-70" d="M 1159 525 
L 1159 -1331 
L 581 -1331 
L 581 3500 
L 1159 3500 
L 1159 2969 
Q 1341 3281 1617 3432 
Q 1894 3584 2278 3584 
Q 2916 3584 3314 3078 
Q 3713 2572 3713 1747 
Q 3713 922 3314 415 
Q 2916 -91 2278 -91 
Q 1894 -91 1617 61 
Q 1341 213 1159 525 
z
M 3116 1747 
Q 3116 2381 2855 2742 
Q 2594 3103 2138 3103 
Q 1681 3103 1420 2742 
Q 1159 2381 1159 1747 
Q 1159 1113 1420 752 
Q 1681 391 2138 391 
Q 2594 391 2855 752 
Q 3116 1113 3116 1747 
z
" transform="scale(0.015625)"/>
      <path id="DejaVuSans-68" d="M 3513 2113 
L 3513 0 
L 2938 0 
L 2938 2094 
Q 2938 2591 2744 2837 
Q 2550 3084 2163 3084 
Q 1697 3084 1428 2787 
Q 1159 2491 1159 1978 
L 1159 0 
L 581 0 
L 581 4863 
L 1159 4863 
L 1159 2956 
Q 1366 3272 1645 3428 
Q 1925 3584 2291 3584 
Q 2894 3584 3203 3211 
Q 3513 2838 3513 2113 
z
" transform="scale(0.015625)"/>
     </defs>
     <use xlink:href="#DejaVuSans-56"/>
     <use xlink:href="#DejaVuSans-69" x="66.158203"/>
     <use xlink:href="#DejaVuSans-73" x="93.941406"/>
     <use xlink:href="#DejaVuSans-69" x="146.041016"/>
     <use xlink:href="#DejaVuSans-74" x="173.824219"/>
     <use xlink:href="#DejaVuSans-65" x="213.033203"/>
     <use xlink:href="#DejaVuSans-64" x="274.556641"/>
     <use xlink:href="#DejaVuSans-20" x="338.033203"/>
     <use xlink:href="#DejaVuSans-31" x="369.820312"/>
     <use xlink:href="#DejaVuSans-20" x="433.443359"/>
     <use xlink:href="#DejaVuSans-6d" x="465.230469"/>
     <use xlink:href="#DejaVuSans-20" x="562.642578"/>
     <use xlink:href="#DejaVuSans-63" x="594.429688"/>
     <use xlink:href="#DejaVuSans-65" x="649.410156"/>
     <use xlink:href="#DejaVuSans-6c" x="710.933594"/>
     <use xlink:href="#DejaVuSans-6c" x="738.716797"/>
     <use xlink:href="#DejaVuSans-73" x="766.5"/>
     <use xlink:href="#DejaVuSans-20" x="818.599609"/>
     <use xlink:href="#DejaVuSans-61" x="850.386719"/>
     <use xlink:href="#DejaVuSans-6e" x="911.666016"/>
     <use xlink:href="#DejaVuSans-64" x="975.044922"/>
     <use xlink:href="#DejaVuSans-20" x="1038.521484"/>
     <use xlink:href="#DejaVuSans-64" x="1070.308594"/>
     <use xlink:href="#DejaVuSans-65" x="1133.785156"/>
     <use xlink:href="#DejaVuSans-74" x="1195.308594"/>
     <use xlink:href="#DejaVuSans-65" x="1234.517578"/>
     <use xlink:href="#DejaVuSans-63" x="1296.041016"/>
     <use xlink:href="#DejaVuSans-74" x="1351.021484"/>
     <use xlink:href="#DejaVuSans-65" x="1390.230469"/>
     <use xlink:href="#DejaVuSans-64" x="1451.753906"/>
     <use xlink:href="#DejaVuSans-20" x="1515.230469"/>
     <use xlink:href="#DejaVuSans-70" x="1547.017578"/>
     <use xlink:href="#DejaVuSans-61" x="1610.494141"/>
     <use xlink:href="#DejaVuSans-74" x="1671.773438"/>
     <use xlink:href="#DejaVuSans-68" x="1710.982422"/>
     <use xlink:href="#DejaVuSans-73" x="1774.361328"/>
    </g>
   </g>
   <g id="legend_1">
    <g id="patch_19">
     <path d="M 39.840625 100.72075 
L 96.276875 100.72075 
Q 97.876875 100.72075 97.876875 99.12075 
L 97.876875 64.69325 
Q 97.876875 63.09325 96.276875 63.09325 
L 39.840625 63.09325 
Q 38.240625 63.09325 38.240625 64.69325 
L 38.240625 99.12075 
Q 38.240625 100.72075 39.840625 100.72075 
z
" style="fill: #ffffff; opacity: 0.8; stroke: #cccccc; stroke-linejoin: miter"/>
    </g>
    <g id="line2d_22">
     <path d="M 41.440625 69.572 
L 49.440625 69.572 
L 57.440625 69.572 
" style="fill: none; stroke: #009e73; stroke-opacity: 0.85; stroke-width: 0.75; stroke-linecap: square"/>
    </g>
    <g id="text_13">
     <!-- Robot 0 -->
     <g transform="translate(63.840625 72.372)scale(0.08 -0.08)">
      <defs>
       <path id="DejaVuSans-52" d="M 2841 2188 
Q 3044 2119 3236 1894 
Q 3428 1669 3622 1275 
L 4263 0 
L 3584 0 
L 2988 1197 
Q 2756 1666 2539 1819 
Q 2322 1972 1947 1972 
L 1259 1972 
L 1259 0 
L 628 0 
L 628 4666 
L 2053 4666 
Q 2853 4666 3247 4331 
Q 3641 3997 3641 3322 
Q 3641 2881 3436 2590 
Q 3231 2300 2841 2188 
z
M 1259 4147 
L 1259 2491 
L 2053 2491 
Q 2509 2491 2742 2702 
Q 2975 2913 2975 3322 
Q 2975 3731 2742 3939 
Q 2509 4147 2053 4147 
L 1259 4147 
z
" transform="scale(0.015625)"/>
       <path id="DejaVuSans-6f" d="M 1959 3097 
Q 1497 3097 1228 2736 
Q 959 2375 959 1747 
Q 959 1119 1226 758 
Q 1494 397 1959 397 
Q 2419 397 2687 759 
Q 2956 1122 2956 1747 
Q 2956 2369 2687 2733 
Q 2419 3097 1959 3097 
z
M 1959 3584 
Q 2709 3584 3137 3096 
Q 3566 2609 3566 1747 
Q 3566 888 3137 398 
Q 2709 -91 1959 -91 
Q 1206 -91 779 398 
Q 353 888 353 1747 
Q 353 2609 779 3096 
Q 1206 3584 1959 3584 
z
" transform="scale(0.015625)"/>
       <path id="DejaVuSans-62" d="M 3116 1747 
Q 3116 2381 2855 2742 
Q 2594 3103 2138 3103 
Q 1681 3103 1420 2742 
Q 1159 2381 1159 1747 
Q 1159 1113 1420 752 
Q 1681 391 2138 391 
Q 2594 391 2855 752 
Q 3116 1113 3116 1747 
z
M 1159 2969 
Q 1341 3281 1617 3432 
Q 1894 3584 2278 3584 
Q 2916 3584 3314 3078 
Q 3713 2572 3713 1747 
Q 3713 922 3314 415 
Q 2916 -91 2278 -91 
Q 1894 -91 1617 61 
Q 1341 213 1159 525 
L 1159 0 
L 581 0 
L 581 4863 
L 1159 4863 
L 1159 2969 
z
" transform="scale(0.015625)"/>
      </defs>
      <use xlink:href="#DejaVuSans-52"/>
      <use xlink:href="#DejaVuSans-6f" x="64.982422"/>
      <use xlink:href="#DejaVuSans-62" x="126.164062"/>
      <use xlink:href="#DejaVuSans-6f" x="189.640625"/>
      <use xlink:href="#DejaVuSans-74" x="250.822266"/>
      <use xlink:href="#DejaVuSans-20" x="290.03125"/>
      <use xlink:href="#DejaVuSans-30" x="321.818359"/>
     </g>
    </g>
    <g id="line2d_23">
     <path d="M 41.440625 81.3145 
L 49.440625 81.3145 
L 57.440625 81.3145 
" style="fill: none; stroke: #cc79a7; stroke-opacity: 0.85; stroke-width: 0.75; stroke-linecap: square"/>
    </g>
    <g id="text_14">
     <!-- Robot 1 -->
     <g transform="translate(63.840625 84.1145)scale(0.08 -0.08)">
      <use xlink:href="#DejaVuSans-52"/>
      <use xlink:href="#DejaVuSans-6f" x="64.982422"/>
      <use xlink:href="#DejaVuSans-62" x="126.164062"/>
      <use xlink:href="#DejaVuSans-6f" x="189.640625"/>
      <use xlink:href="#DejaVuSans-74" x="250.822266"/>
      <use xlink:href="#DejaVuSans-20" x="290.03125"/>
      <use xlink:href="#DejaVuSans-31" x="321.818359"/>
     </g>
    </g>
    <g id="line2d_24">
     <path d="M 41.440625 93.057 
L 49.440625 93.057 
L 57.440625 93.057 
" style="fill: none; stroke: #0072b2; stroke-opacity: 0.85; stroke-width: 0.75; stroke-linecap: square"/>
    </g>
    <g id="text_15">
     <!-- Robot 2 -->
     <g transform="translate(63.840625 95.857)scale(0.08 -0.08)">
      <use xlink:href="#DejaVuSans-52"/>
      <use xlink:href="#DejaVuSans-6f" x="64.982422"/>
      <use xlink:href="#DejaVuSans-62" x="126.164062"/>
      <use xlink:href="#DejaVuSans-6f" x="189.640625"/>
      <use xlink:href="#DejaVuSans-74" x="250.822266"/>
      <use xlink:href="#DejaVuSans-20" x="290.03125"/>
      <use xlink:href="#DejaVuSans-32" x="321.818359"/>
     </g>
    </g>
   </g>
  </g>
  <g id="axes_2">
   <g id="patch_20">
    <path d="M 400.360042 268.648 
L 744.702542 268.648 
L 744.702542 59.09325 
L 400.360042 59.09325 
z
" style="fill: #ffffff"/>
   </g>
   <g id="matplotlib.axis_3">
    <g id="xtick_6">
     <g id="line2d_25">
      <path d="M 400.360042 268.648 
L 400.360042 59.09325 
" clip-path="url(#p76fd3ff489)" style="fill: none; stroke: #b0b0b0; stroke-opacity: 0.25; stroke-width: 0.8; stroke-linecap: square"/>
     </g>
     <g id="line2d_26">
      <g>
       <use xlink:href="#mfb970cbf9d" x="400.360042" y="268.648" style="stroke: #000000; stroke-width: 0.8"/>
      </g>
     </g>
     <g id="text_16">
      <!-- 0 -->
      <g transform="translate(397.178792 283.246437)scale(0.1 -0.1)">
       <use xlink:href="#DejaVuSans-30"/>
      </g>
     </g>
    </g>
    <g id="xtick_7">
     <g id="line2d_27">
      <path d="M 452.08901 268.648 
L 452.08901 59.09325 
" clip-path="url(#p76fd3ff489)" style="fill: none; stroke: #b0b0b0; stroke-opacity: 0.25; stroke-width: 0.8; stroke-linecap: square"/>
     </g>
     <g id="line2d_28">
      <g>
       <use xlink:href="#mfb970cbf9d" x="452.08901" y="268.648" style="stroke: #000000; stroke-width: 0.8"/>
      </g>
     </g>
     <g id="text_17">
      <!-- 10 -->
      <g transform="translate(445.72651 283.246437)scale(0.1 -0.1)">
       <use xlink:href="#DejaVuSans-31"/>
       <use xlink:href="#DejaVuSans-30" x="63.623047"/>
      </g>
     </g>
    </g>
    <g id="xtick_8">
     <g id="line2d_29">
      <path d="M 503.817979 268.648 
L 503.817979 59.09325 
" clip-path="url(#p76fd3ff489)" style="fill: none; stroke: #b0b0b0; stroke-opacity: 0.25; stroke-width: 0.8; stroke-linecap: square"/>
     </g>
     <g id="line2d_30">
      <g>
       <use xlink:href="#mfb970cbf9d" x="503.817979" y="268.648" style="stroke: #000000; stroke-width: 0.8"/>
      </g>
     </g>
     <g id="text_18">
      <!-- 20 -->
      <g transform="translate(497.455479 283.246437)scale(0.1 -0.1)">
       <use xlink:href="#DejaVuSans-32"/>
       <use xlink:href="#DejaVuSans-30" x="63.623047"/>
      </g>
     </g>
    </g>
    <g id="xtick_9">
     <g id="line2d_31">
      <path d="M 555.546947 268.648 
L 555.546947 59.09325 
" clip-path="url(#p76fd3ff489)" style="fill: none; stroke: #b0b0b0; stroke-opacity: 0.25; stroke-width: 0.8; stroke-linecap: square"/>
     </g>
     <g id="line2d_32">
      <g>
       <use xlink:href="#mfb970cbf9d" x="555.546947" y="268.648" style="stroke: #000000; stroke-width: 0.8"/>
      </g>
     </g>
     <g id="text_19">
      <!-- 30 -->
      <g transform="translate(549.184447 283.246437)scale(0.1 -0.1)">
       <use xlink:href="#DejaVuSans-33"/>
       <use xlink:href="#DejaVuSans-30" x="63.623047"/>
      </g>
     </g>
    </g>
    <g id="xtick_10">
     <g id="line2d_33">
      <path d="M 607.275915 268.648 
L 607.275915 59.09325 
" clip-path="url(#p76fd3ff489)" style="fill: none; stroke: #b0b0b0; stroke-opacity: 0.25; stroke-width: 0.8; stroke-linecap: square"/>
     </g>
     <g id="line2d_34">
      <g>
       <use xlink:href="#mfb970cbf9d" x="607.275915" y="268.648" style="stroke: #000000; stroke-width: 0.8"/>
      </g>
     </g>
     <g id="text_20">
      <!-- 40 -->
      <g transform="translate(600.913415 283.246437)scale(0.1 -0.1)">
       <use xlink:href="#DejaVuSans-34"/>
       <use xlink:href="#DejaVuSans-30" x="63.623047"/>
      </g>
     </g>
    </g>
    <g id="xtick_11">
     <g id="line2d_35">
      <path d="M 659.004884 268.648 
L 659.004884 59.09325 
" clip-path="url(#p76fd3ff489)" style="fill: none; stroke: #b0b0b0; stroke-opacity: 0.25; stroke-width: 0.8; stroke-linecap: square"/>
     </g>
     <g id="line2d_36">
      <g>
       <use xlink:href="#mfb970cbf9d" x="659.004884" y="268.648" style="stroke: #000000; stroke-width: 0.8"/>
      </g>
     </g>
     <g id="text_21">
      <!-- 50 -->
      <g transform="translate(652.642384 283.246437)scale(0.1 -0.1)">
       <defs>
        <path id="DejaVuSans-35" d="M 691 4666 
L 3169 4666 
L 3169 4134 
L 1269 4134 
L 1269 2991 
Q 1406 3038 1543 3061 
Q 1681 3084 1819 3084 
Q 2600 3084 3056 2656 
Q 3513 2228 3513 1497 
Q 3513 744 3044 326 
Q 2575 -91 1722 -91 
Q 1428 -91 1123 -41 
Q 819 9 494 109 
L 494 744 
Q 775 591 1075 516 
Q 1375 441 1709 441 
Q 2250 441 2565 725 
Q 2881 1009 2881 1497 
Q 2881 1984 2565 2268 
Q 2250 2553 1709 2553 
Q 1456 2553 1204 2497 
Q 953 2441 691 2322 
L 691 4666 
z
" transform="scale(0.015625)"/>
       </defs>
       <use xlink:href="#DejaVuSans-35"/>
       <use xlink:href="#DejaVuSans-30" x="63.623047"/>
      </g>
     </g>
    </g>
    <g id="xtick_12">
     <g id="line2d_37">
      <path d="M 710.733852 268.648 
L 710.733852 59.09325 
" clip-path="url(#p76fd3ff489)" style="fill: none; stroke: #b0b0b0; stroke-opacity: 0.25; stroke-width: 0.8; stroke-linecap: square"/>
     </g>
     <g id="line2d_38">
      <g>
       <use xlink:href="#mfb970cbf9d" x="710.733852" y="268.648" style="stroke: #000000; stroke-width: 0.8"/>
      </g>
     </g>
     <g id="text_22">
      <!-- 60 -->
      <g transform="translate(704.371352 283.246437)scale(0.1 -0.1)">
       <defs>
        <path id="DejaVuSans-36" d="M 2113 2584 
Q 1688 2584 1439 2293 
Q 1191 2003 1191 1497 
Q 1191 994 1439 701 
Q 1688 409 2113 409 
Q 2538 409 2786 701 
Q 3034 994 3034 1497 
Q 3034 2003 2786 2293 
Q 2538 2584 2113 2584 
z
M 3366 4563 
L 3366 3988 
Q 3128 4100 2886 4159 
Q 2644 4219 2406 4219 
Q 1781 4219 1451 3797 
Q 1122 3375 1075 2522 
Q 1259 2794 1537 2939 
Q 1816 3084 2150 3084 
Q 2853 3084 3261 2657 
Q 3669 2231 3669 1497 
Q 3669 778 3244 343 
Q 2819 -91 2113 -91 
Q 1303 -91 875 529 
Q 447 1150 447 2328 
Q 447 3434 972 4092 
Q 1497 4750 2381 4750 
Q 2619 4750 2861 4703 
Q 3103 4656 3366 4563 
z
" transform="scale(0.015625)"/>
       </defs>
       <use xlink:href="#DejaVuSans-36"/>
       <use xlink:href="#DejaVuSans-30" x="63.623047"/>
      </g>
     </g>
    </g>
    <g id="text_23">
     <!-- Video elapsed time (s) -->
     <g transform="translate(516.395354 296.924562)scale(0.1 -0.1)">
      <use xlink:href="#DejaVuSans-56"/>
      <use xlink:href="#DejaVuSans-69" x="66.158203"/>
      <use xlink:href="#DejaVuSans-64" x="93.941406"/>
      <use xlink:href="#DejaVuSans-65" x="157.417969"/>
      <use xlink:href="#DejaVuSans-6f" x="218.941406"/>
      <use xlink:href="#DejaVuSans-20" x="280.123047"/>
      <use xlink:href="#DejaVuSans-65" x="311.910156"/>
      <use xlink:href="#DejaVuSans-6c" x="373.433594"/>
      <use xlink:href="#DejaVuSans-61" x="401.216797"/>
      <use xlink:href="#DejaVuSans-70" x="462.496094"/>
      <use xlink:href="#DejaVuSans-73" x="525.972656"/>
      <use xlink:href="#DejaVuSans-65" x="578.072266"/>
      <use xlink:href="#DejaVuSans-64" x="639.595703"/>
      <use xlink:href="#DejaVuSans-20" x="703.072266"/>
      <use xlink:href="#DejaVuSans-74" x="734.859375"/>
      <use xlink:href="#DejaVuSans-69" x="774.068359"/>
      <use xlink:href="#DejaVuSans-6d" x="801.851562"/>
      <use xlink:href="#DejaVuSans-65" x="899.263672"/>
      <use xlink:href="#DejaVuSans-20" x="960.787109"/>
      <use xlink:href="#DejaVuSans-28" x="992.574219"/>
      <use xlink:href="#DejaVuSans-73" x="1031.587891"/>
      <use xlink:href="#DejaVuSans-29" x="1083.6875"/>
     </g>
    </g>
   </g>
   <g id="matplotlib.axis_4">
    <g id="ytick_5">
     <g id="line2d_39">
      <path d="M 400.360042 268.648 
L 744.702542 268.648 
" clip-path="url(#p76fd3ff489)" style="fill: none; stroke: #b0b0b0; stroke-opacity: 0.25; stroke-width: 0.8; stroke-linecap: square"/>
     </g>
     <g id="line2d_40">
      <g>
       <use xlink:href="#m18697d9c8c" x="400.360042" y="268.648" style="stroke: #000000; stroke-width: 0.8"/>
      </g>
     </g>
     <g id="text_24">
      <!-- 0 -->
      <g transform="translate(386.997542 272.447219)scale(0.1 -0.1)">
       <use xlink:href="#DejaVuSans-30"/>
      </g>
     </g>
    </g>
    <g id="ytick_6">
     <g id="line2d_41">
      <path d="M 400.360042 228.73281 
L 744.702542 228.73281 
" clip-path="url(#p76fd3ff489)" style="fill: none; stroke: #b0b0b0; stroke-opacity: 0.25; stroke-width: 0.8; stroke-linecap: square"/>
     </g>
     <g id="line2d_42">
      <g>
       <use xlink:href="#m18697d9c8c" x="400.360042" y="228.73281" style="stroke: #000000; stroke-width: 0.8"/>
      </g>
     </g>
     <g id="text_25">
      <!-- 20 -->
      <g transform="translate(380.635042 232.532028)scale(0.1 -0.1)">
       <use xlink:href="#DejaVuSans-32"/>
       <use xlink:href="#DejaVuSans-30" x="63.623047"/>
      </g>
     </g>
    </g>
    <g id="ytick_7">
     <g id="line2d_43">
      <path d="M 400.360042 188.817619 
L 744.702542 188.817619 
" clip-path="url(#p76fd3ff489)" style="fill: none; stroke: #b0b0b0; stroke-opacity: 0.25; stroke-width: 0.8; stroke-linecap: square"/>
     </g>
     <g id="line2d_44">
      <g>
       <use xlink:href="#m18697d9c8c" x="400.360042" y="188.817619" style="stroke: #000000; stroke-width: 0.8"/>
      </g>
     </g>
     <g id="text_26">
      <!-- 40 -->
      <g transform="translate(380.635042 192.616838)scale(0.1 -0.1)">
       <use xlink:href="#DejaVuSans-34"/>
       <use xlink:href="#DejaVuSans-30" x="63.623047"/>
      </g>
     </g>
    </g>
    <g id="ytick_8">
     <g id="line2d_45">
      <path d="M 400.360042 148.902429 
L 744.702542 148.902429 
" clip-path="url(#p76fd3ff489)" style="fill: none; stroke: #b0b0b0; stroke-opacity: 0.25; stroke-width: 0.8; stroke-linecap: square"/>
     </g>
     <g id="line2d_46">
      <g>
       <use xlink:href="#m18697d9c8c" x="400.360042" y="148.902429" style="stroke: #000000; stroke-width: 0.8"/>
      </g>
     </g>
     <g id="text_27">
      <!-- 60 -->
      <g transform="translate(380.635042 152.701647)scale(0.1 -0.1)">
       <use xlink:href="#DejaVuSans-36"/>
       <use xlink:href="#DejaVuSans-30" x="63.623047"/>
      </g>
     </g>
    </g>
    <g id="ytick_9">
     <g id="line2d_47">
      <path d="M 400.360042 108.987238 
L 744.702542 108.987238 
" clip-path="url(#p76fd3ff489)" style="fill: none; stroke: #b0b0b0; stroke-opacity: 0.25; stroke-width: 0.8; stroke-linecap: square"/>
     </g>
     <g id="line2d_48">
      <g>
       <use xlink:href="#m18697d9c8c" x="400.360042" y="108.987238" style="stroke: #000000; stroke-width: 0.8"/>
      </g>
     </g>
     <g id="text_28">
      <!-- 80 -->
      <g transform="translate(380.635042 112.786457)scale(0.1 -0.1)">
       <defs>
        <path id="DejaVuSans-38" d="M 2034 2216 
Q 1584 2216 1326 1975 
Q 1069 1734 1069 1313 
Q 1069 891 1326 650 
Q 1584 409 2034 409 
Q 2484 409 2743 651 
Q 3003 894 3003 1313 
Q 3003 1734 2745 1975 
Q 2488 2216 2034 2216 
z
M 1403 2484 
Q 997 2584 770 2862 
Q 544 3141 544 3541 
Q 544 4100 942 4425 
Q 1341 4750 2034 4750 
Q 2731 4750 3128 4425 
Q 3525 4100 3525 3541 
Q 3525 3141 3298 2862 
Q 3072 2584 2669 2484 
Q 3125 2378 3379 2068 
Q 3634 1759 3634 1313 
Q 3634 634 3220 271 
Q 2806 -91 2034 -91 
Q 1263 -91 848 271 
Q 434 634 434 1313 
Q 434 1759 690 2068 
Q 947 2378 1403 2484 
z
M 1172 3481 
Q 1172 3119 1398 2916 
Q 1625 2713 2034 2713 
Q 2441 2713 2670 2916 
Q 2900 3119 2900 3481 
Q 2900 3844 2670 4047 
Q 2441 4250 2034 4250 
Q 1625 4250 1398 4047 
Q 1172 3844 1172 3481 
z
" transform="scale(0.015625)"/>
       </defs>
       <use xlink:href="#DejaVuSans-38"/>
       <use xlink:href="#DejaVuSans-30" x="63.623047"/>
      </g>
     </g>
    </g>
    <g id="ytick_10">
     <g id="line2d_49">
      <path d="M 400.360042 69.072048 
L 744.702542 69.072048 
" clip-path="url(#p76fd3ff489)" style="fill: none; stroke: #b0b0b0; stroke-opacity: 0.25; stroke-width: 0.8; stroke-linecap: square"/>
     </g>
     <g id="line2d_50">
      <g>
       <use xlink:href="#m18697d9c8c" x="400.360042" y="69.072048" style="stroke: #000000; stroke-width: 0.8"/>
      </g>
     </g>
     <g id="text_29">
      <!-- 100 -->
      <g transform="translate(374.272542 72.871266)scale(0.1 -0.1)">
       <use xlink:href="#DejaVuSans-31"/>
       <use xlink:href="#DejaVuSans-30" x="63.623047"/>
       <use xlink:href="#DejaVuSans-30" x="127.246094"/>
      </g>
     </g>
    </g>
    <g id="text_30">
     <!-- Team coverage (%) -->
     <g transform="translate(368.192854 212.130781)rotate(-90)scale(0.1 -0.1)">
      <defs>
       <path id="DejaVuSans-54" d="M -19 4666 
L 3928 4666 
L 3928 4134 
L 2272 4134 
L 2272 0 
L 1638 0 
L 1638 4134 
L -19 4134 
L -19 4666 
z
" transform="scale(0.015625)"/>
       <path id="DejaVuSans-76" d="M 191 3500 
L 800 3500 
L 1894 563 
L 2988 3500 
L 3597 3500 
L 2284 0 
L 1503 0 
L 191 3500 
z
" transform="scale(0.015625)"/>
       <path id="DejaVuSans-72" d="M 2631 2963 
Q 2534 3019 2420 3045 
Q 2306 3072 2169 3072 
Q 1681 3072 1420 2755 
Q 1159 2438 1159 1844 
L 1159 0 
L 581 0 
L 581 3500 
L 1159 3500 
L 1159 2956 
Q 1341 3275 1631 3429 
Q 1922 3584 2338 3584 
Q 2397 3584 2469 3576 
Q 2541 3569 2628 3553 
L 2631 2963 
z
" transform="scale(0.015625)"/>
       <path id="DejaVuSans-67" d="M 2906 1791 
Q 2906 2416 2648 2759 
Q 2391 3103 1925 3103 
Q 1463 3103 1205 2759 
Q 947 2416 947 1791 
Q 947 1169 1205 825 
Q 1463 481 1925 481 
Q 2391 481 2648 825 
Q 2906 1169 2906 1791 
z
M 3481 434 
Q 3481 -459 3084 -895 
Q 2688 -1331 1869 -1331 
Q 1566 -1331 1297 -1286 
Q 1028 -1241 775 -1147 
L 775 -588 
Q 1028 -725 1275 -790 
Q 1522 -856 1778 -856 
Q 2344 -856 2625 -561 
Q 2906 -266 2906 331 
L 2906 616 
Q 2728 306 2450 153 
Q 2172 0 1784 0 
Q 1141 0 747 490 
Q 353 981 353 1791 
Q 353 2603 747 3093 
Q 1141 3584 1784 3584 
Q 2172 3584 2450 3431 
Q 2728 3278 2906 2969 
L 2906 3500 
L 3481 3500 
L 3481 434 
z
" transform="scale(0.015625)"/>
       <path id="DejaVuSans-25" d="M 4653 2053 
Q 4381 2053 4226 1822 
Q 4072 1591 4072 1178 
Q 4072 772 4226 539 
Q 4381 306 4653 306 
Q 4919 306 5073 539 
Q 5228 772 5228 1178 
Q 5228 1588 5073 1820 
Q 4919 2053 4653 2053 
z
M 4653 2450 
Q 5147 2450 5437 2106 
Q 5728 1763 5728 1178 
Q 5728 594 5436 251 
Q 5144 -91 4653 -91 
Q 4153 -91 3862 251 
Q 3572 594 3572 1178 
Q 3572 1766 3864 2108 
Q 4156 2450 4653 2450 
z
M 1428 4353 
Q 1159 4353 1004 4120 
Q 850 3888 850 3481 
Q 850 3069 1003 2837 
Q 1156 2606 1428 2606 
Q 1700 2606 1854 2837 
Q 2009 3069 2009 3481 
Q 2009 3884 1853 4118 
Q 1697 4353 1428 4353 
z
M 4250 4750 
L 4750 4750 
L 1831 -91 
L 1331 -91 
L 4250 4750 
z
M 1428 4750 
Q 1922 4750 2215 4408 
Q 2509 4066 2509 3481 
Q 2509 2891 2217 2550 
Q 1925 2209 1428 2209 
Q 931 2209 642 2551 
Q 353 2894 353 3481 
Q 353 4063 643 4406 
Q 934 4750 1428 4750 
z
" transform="scale(0.015625)"/>
      </defs>
      <use xlink:href="#DejaVuSans-54"/>
      <use xlink:href="#DejaVuSans-65" x="44.083984"/>
      <use xlink:href="#DejaVuSans-61" x="105.607422"/>
      <use xlink:href="#DejaVuSans-6d" x="166.886719"/>
      <use xlink:href="#DejaVuSans-20" x="264.298828"/>
      <use xlink:href="#DejaVuSans-63" x="296.085938"/>
      <use xlink:href="#DejaVuSans-6f" x="351.066406"/>
      <use xlink:href="#DejaVuSans-76" x="412.248047"/>
      <use xlink:href="#DejaVuSans-65" x="471.427734"/>
      <use xlink:href="#DejaVuSans-72" x="532.951172"/>
      <use xlink:href="#DejaVuSans-61" x="574.064453"/>
      <use xlink:href="#DejaVuSans-67" x="635.34375"/>
      <use xlink:href="#DejaVuSans-65" x="698.820312"/>
      <use xlink:href="#DejaVuSans-20" x="760.34375"/>
      <use xlink:href="#DejaVuSans-28" x="792.130859"/>
      <use xlink:href="#DejaVuSans-25" x="831.144531"/>
      <use xlink:href="#DejaVuSans-29" x="926.164062"/>
     </g>
    </g>
   </g>
   <g id="line2d_51">
    <path d="M 400.360042 152.228694 
L 415.878732 152.228694 
L 415.878732 118.966036 
L 418.465181 118.966036 
L 418.465181 102.334706 
L 421.051629 102.334706 
L 421.051629 85.703377 
L 490.885736 85.703377 
L 490.885736 69.072048 
L 744.702543 69.072048 
L 744.702543 69.072048 
" clip-path="url(#p76fd3ff489)" style="fill: none; stroke: #2878b5; stroke-width: 1.7; stroke-linecap: square"/>
   </g>
   <g id="patch_21">
    <path d="M 400.360042 268.648 
L 400.360042 59.09325 
" style="fill: none; stroke: #000000; stroke-width: 0.8; stroke-linejoin: miter; stroke-linecap: square"/>
   </g>
   <g id="patch_22">
    <path d="M 744.702542 268.648 
L 744.702542 59.09325 
" style="fill: none; stroke: #000000; stroke-width: 0.8; stroke-linejoin: miter; stroke-linecap: square"/>
   </g>
   <g id="patch_23">
    <path d="M 400.360042 268.648 
L 744.702542 268.648 
" style="fill: none; stroke: #000000; stroke-width: 0.8; stroke-linejoin: miter; stroke-linecap: square"/>
   </g>
   <g id="patch_24">
    <path d="M 400.360042 59.09325 
L 744.702542 59.09325 
" style="fill: none; stroke: #000000; stroke-width: 0.8; stroke-linejoin: miter; stroke-linecap: square"/>
   </g>
   <g id="text_31">
    <!-- Final coverage: 100.00% -->
    <g transform="translate(498.314104 53.09325)scale(0.12 -0.12)">
     <defs>
      <path id="DejaVuSans-46" d="M 628 4666 
L 3309 4666 
L 3309 4134 
L 1259 4134 
L 1259 2759 
L 3109 2759 
L 3109 2228 
L 1259 2228 
L 1259 0 
L 628 0 
L 628 4666 
z
" transform="scale(0.015625)"/>
      <path id="DejaVuSans-3a" d="M 750 794 
L 1409 794 
L 1409 0 
L 750 0 
L 750 794 
z
M 750 3309 
L 1409 3309 
L 1409 2516 
L 750 2516 
L 750 3309 
z
" transform="scale(0.015625)"/>
      <path id="DejaVuSans-2e" d="M 684 794 
L 1344 794 
L 1344 0 
L 684 0 
L 684 794 
z
" transform="scale(0.015625)"/>
     </defs>
     <use xlink:href="#DejaVuSans-46"/>
     <use xlink:href="#DejaVuSans-69" x="50.269531"/>
     <use xlink:href="#DejaVuSans-6e" x="78.052734"/>
     <use xlink:href="#DejaVuSans-61" x="141.431641"/>
     <use xlink:href="#DejaVuSans-6c" x="202.710938"/>
     <use xlink:href="#DejaVuSans-20" x="230.494141"/>
     <use xlink:href="#DejaVuSans-63" x="262.28125"/>
     <use xlink:href="#DejaVuSans-6f" x="317.261719"/>
     <use xlink:href="#DejaVuSans-76" x="378.443359"/>
     <use xlink:href="#DejaVuSans-65" x="437.623047"/>
     <use xlink:href="#DejaVuSans-72" x="499.146484"/>
     <use xlink:href="#DejaVuSans-61" x="540.259766"/>
     <use xlink:href="#DejaVuSans-67" x="601.539062"/>
     <use xlink:href="#DejaVuSans-65" x="665.015625"/>
     <use xlink:href="#DejaVuSans-3a" x="726.539062"/>
     <use xlink:href="#DejaVuSans-20" x="760.230469"/>
     <use xlink:href="#DejaVuSans-31" x="792.017578"/>
     <use xlink:href="#DejaVuSans-30" x="855.640625"/>
     <use xlink:href="#DejaVuSans-30" x="919.263672"/>
     <use xlink:href="#DejaVuSans-2e" x="982.886719"/>
     <use xlink:href="#DejaVuSans-30" x="1014.673828"/>
     <use xlink:href="#DejaVuSans-30" x="1078.296875"/>
     <use xlink:href="#DejaVuSans-25" x="1141.919922"/>
    </g>
   </g>
  </g>
  <g id="text_32">
   <!-- Exploration · 2026-09-13 18-31-50_exp_base -->
   <g transform="translate(246.912698 14.798437)scale(0.1 -0.1)">
    <defs>
     <path id="DejaVuSans-45" d="M 628 4666 
L 3578 4666 
L 3578 4134 
L 1259 4134 
L 1259 2753 
L 3481 2753 
L 3481 2222 
L 1259 2222 
L 1259 531 
L 3634 531 
L 3634 0 
L 628 0 
L 628 4666 
z
" transform="scale(0.015625)"/>
     <path id="DejaVuSans-b7" d="M 684 2619 
L 1344 2619 
L 1344 1825 
L 684 1825 
L 684 2619 
z
" transform="scale(0.015625)"/>
     <path id="DejaVuSans-2d" d="M 313 2009 
L 1997 2009 
L 1997 1497 
L 313 1497 
L 313 2009 
z
" transform="scale(0.015625)"/>
     <path id="DejaVuSans-39" d="M 703 97 
L 703 672 
Q 941 559 1184 500 
Q 1428 441 1663 441 
Q 2288 441 2617 861 
Q 2947 1281 2994 2138 
Q 2813 1869 2534 1725 
Q 2256 1581 1919 1581 
Q 1219 1581 811 2004 
Q 403 2428 403 3163 
Q 403 3881 828 4315 
Q 1253 4750 1959 4750 
Q 2769 4750 3195 4129 
Q 3622 3509 3622 2328 
Q 3622 1225 3098 567 
Q 2575 -91 1691 -91 
Q 1453 -91 1209 -44 
Q 966 3 703 97 
z
M 1959 2075 
Q 2384 2075 2632 2365 
Q 2881 2656 2881 3163 
Q 2881 3666 2632 3958 
Q 2384 4250 1959 4250 
Q 1534 4250 1286 3958 
Q 1038 3666 1038 3163 
Q 1038 2656 1286 2365 
Q 1534 2075 1959 2075 
z
" transform="scale(0.015625)"/>
     <path id="DejaVuSans-5f" d="M 3263 -1063 
L 3263 -1509 
L -63 -1509 
L -63 -1063 
L 3263 -1063 
z
" transform="scale(0.015625)"/>
    </defs>
    <use xlink:href="#DejaVuSans-45"/>
    <use xlink:href="#DejaVuSans-78" x="63.183594"/>
    <use xlink:href="#DejaVuSans-70" x="122.363281"/>
    <use xlink:href="#DejaVuSans-6c" x="185.839844"/>
    <use xlink:href="#DejaVuSans-6f" x="213.623047"/>
    <use xlink:href="#DejaVuSans-72" x="274.804688"/>
    <use xlink:href="#DejaVuSans-61" x="315.917969"/>
    <use xlink:href="#DejaVuSans-74" x="377.197266"/>
    <use xlink:href="#DejaVuSans-69" x="416.40625"/>
    <use xlink:href="#DejaVuSans-6f" x="444.189453"/>
    <use xlink:href="#DejaVuSans-6e" x="505.371094"/>
    <use xlink:href="#DejaVuSans-20" x="568.75"/>
    <use xlink:href="#DejaVuSans-b7" x="600.537109"/>
    <use xlink:href="#DejaVuSans-20" x="632.324219"/>
    <use xlink:href="#DejaVuSans-32" x="664.111328"/>
    <use xlink:href="#DejaVuSans-30" x="727.734375"/>
    <use xlink:href="#DejaVuSans-32" x="791.357422"/>
    <use xlink:href="#DejaVuSans-36" x="854.980469"/>
    <use xlink:href="#DejaVuSans-2d" x="918.603516"/>
    <use xlink:href="#DejaVuSans-30" x="954.6875"/>
    <use xlink:href="#DejaVuSans-39" x="1018.310547"/>
    <use xlink:href="#DejaVuSans-2d" x="1081.933594"/>
    <use xlink:href="#DejaVuSans-31" x="1118.017578"/>
    <use xlink:href="#DejaVuSans-33" x="1181.640625"/>
    <use xlink:href="#DejaVuSans-20" x="1245.263672"/>
    <use xlink:href="#DejaVuSans-31" x="1277.050781"/>
    <use xlink:href="#DejaVuSans-38" x="1340.673828"/>
    <use xlink:href="#DejaVuSans-2d" x="1404.296875"/>
    <use xlink:href="#DejaVuSans-33" x="1440.380859"/>
    <use xlink:href="#DejaVuSans-31" x="1504.003906"/>
    <use xlink:href="#DejaVuSans-2d" x="1567.626953"/>
    <use xlink:href="#DejaVuSans-35" x="1603.710938"/>
    <use xlink:href="#DejaVuSans-30" x="1667.333984"/>
    <use xlink:href="#DejaVuSans-5f" x="1730.957031"/>
    <use xlink:href="#DejaVuSans-65" x="1780.957031"/>
    <use xlink:href="#DejaVuSans-78" x="1840.730469"/>
    <use xlink:href="#DejaVuSans-70" x="1899.910156"/>
    <use xlink:href="#DejaVuSans-5f" x="1963.386719"/>
    <use xlink:href="#DejaVuSans-62" x="2013.386719"/>
    <use xlink:href="#DejaVuSans-61" x="2076.863281"/>
    <use xlink:href="#DejaVuSans-73" x="2138.142578"/>
    <use xlink:href="#DejaVuSans-65" x="2190.242188"/>
   </g>
   <!-- Detection within observed arena span: R0 99.4%, R1 100.0%, R2 98.5% -->
   <g transform="translate(178.987698 26.274375)scale(0.1 -0.1)">
    <defs>
     <path id="DejaVuSans-44" d="M 1259 4147 
L 1259 519 
L 2022 519 
Q 2988 519 3436 956 
Q 3884 1394 3884 2338 
Q 3884 3275 3436 3711 
Q 2988 4147 2022 4147 
L 1259 4147 
z
M 628 4666 
L 1925 4666 
Q 3281 4666 3915 4102 
Q 4550 3538 4550 2338 
Q 4550 1131 3912 565 
Q 3275 0 1925 0 
L 628 0 
L 628 4666 
z
" transform="scale(0.015625)"/>
     <path id="DejaVuSans-77" d="M 269 3500 
L 844 3500 
L 1563 769 
L 2278 3500 
L 2956 3500 
L 3675 769 
L 4391 3500 
L 4966 3500 
L 4050 0 
L 3372 0 
L 2619 2869 
L 1863 0 
L 1184 0 
L 269 3500 
z
" transform="scale(0.015625)"/>
     <path id="DejaVuSans-2c" d="M 750 794 
L 1409 794 
L 1409 256 
L 897 -744 
L 494 -744 
L 750 256 
L 750 794 
z
" transform="scale(0.015625)"/>
    </defs>
    <use xlink:href="#DejaVuSans-44"/>
    <use xlink:href="#DejaVuSans-65" x="77.001953"/>
    <use xlink:href="#DejaVuSans-74" x="138.525391"/>
    <use xlink:href="#DejaVuSans-65" x="177.734375"/>
    <use xlink:href="#DejaVuSans-63" x="239.257812"/>
    <use xlink:href="#DejaVuSans-74" x="294.238281"/>
    <use xlink:href="#DejaVuSans-69" x="333.447266"/>
    <use xlink:href="#DejaVuSans-6f" x="361.230469"/>
    <use xlink:href="#DejaVuSans-6e" x="422.412109"/>
    <use xlink:href="#DejaVuSans-20" x="485.791016"/>
    <use xlink:href="#DejaVuSans-77" x="517.578125"/>
    <use xlink:href="#DejaVuSans-69" x="599.365234"/>
    <use xlink:href="#DejaVuSans-74" x="627.148438"/>
    <use xlink:href="#DejaVuSans-68" x="666.357422"/>
    <use xlink:href="#DejaVuSans-69" x="729.736328"/>
    <use xlink:href="#DejaVuSans-6e" x="757.519531"/>
    <use xlink:href="#DejaVuSans-20" x="820.898438"/>
    <use xlink:href="#DejaVuSans-6f" x="852.685547"/>
    <use xlink:href="#DejaVuSans-62" x="913.867188"/>
    <use xlink:href="#DejaVuSans-73" x="977.34375"/>
    <use xlink:href="#DejaVuSans-65" x="1029.443359"/>
    <use xlink:href="#DejaVuSans-72" x="1090.966797"/>
    <use xlink:href="#DejaVuSans-76" x="1132.080078"/>
    <use xlink:href="#DejaVuSans-65" x="1191.259766"/>
    <use xlink:href="#DejaVuSans-64" x="1252.783203"/>
    <use xlink:href="#DejaVuSans-20" x="1316.259766"/>
    <use xlink:href="#DejaVuSans-61" x="1348.046875"/>
    <use xlink:href="#DejaVuSans-72" x="1409.326172"/>
    <use xlink:href="#DejaVuSans-65" x="1448.189453"/>
    <use xlink:href="#DejaVuSans-6e" x="1509.712891"/>
    <use xlink:href="#DejaVuSans-61" x="1573.091797"/>
    <use xlink:href="#DejaVuSans-20" x="1634.371094"/>
    <use xlink:href="#DejaVuSans-73" x="1666.158203"/>
    <use xlink:href="#DejaVuSans-70" x="1718.257812"/>
    <use xlink:href="#DejaVuSans-61" x="1781.734375"/>
    <use xlink:href="#DejaVuSans-6e" x="1843.013672"/>
    <use xlink:href="#DejaVuSans-3a" x="1906.392578"/>
    <use xlink:href="#DejaVuSans-20" x="1940.083984"/>
    <use xlink:href="#DejaVuSans-52" x="1971.871094"/>
    <use xlink:href="#DejaVuSans-30" x="2041.353516"/>
    <use xlink:href="#DejaVuSans-20" x="2104.976562"/>
    <use xlink:href="#DejaVuSans-39" x="2136.763672"/>
    <use xlink:href="#DejaVuSans-39" x="2200.386719"/>
    <use xlink:href="#DejaVuSans-2e" x="2264.009766"/>
    <use xlink:href="#DejaVuSans-34" x="2295.796875"/>
    <use xlink:href="#DejaVuSans-25" x="2359.419922"/>
    <use xlink:href="#DejaVuSans-2c" x="2454.439453"/>
    <use xlink:href="#DejaVuSans-20" x="2486.226562"/>
    <use xlink:href="#DejaVuSans-52" x="2518.013672"/>
    <use xlink:href="#DejaVuSans-31" x="2587.496094"/>
    <use xlink:href="#DejaVuSans-20" x="2651.119141"/>
    <use xlink:href="#DejaVuSans-31" x="2682.90625"/>
    <use xlink:href="#DejaVuSans-30" x="2746.529297"/>
    <use xlink:href="#DejaVuSans-30" x="2810.152344"/>
    <use xlink:href="#DejaVuSans-2e" x="2873.775391"/>
    <use xlink:href="#DejaVuSans-30" x="2905.5625"/>
    <use xlink:href="#DejaVuSans-25" x="2969.185547"/>
    <use xlink:href="#DejaVuSans-2c" x="3064.205078"/>
    <use xlink:href="#DejaVuSans-20" x="3095.992188"/>
    <use xlink:href="#DejaVuSans-52" x="3127.779297"/>
    <use xlink:href="#DejaVuSans-32" x="3197.261719"/>
    <use xlink:href="#DejaVuSans-20" x="3260.884766"/>
    <use xlink:href="#DejaVuSans-39" x="3292.671875"/>
    <use xlink:href="#DejaVuSans-38" x="3356.294922"/>
    <use xlink:href="#DejaVuSans-2e" x="3419.917969"/>
    <use xlink:href="#DejaVuSans-35" x="3451.705078"/>
    <use xlink:href="#DejaVuSans-25" x="3515.328125"/>
   </g>
  </g>
 </g>
 <defs>
  <clipPath id="pc3e3c79d8f">
   <rect x="34.240625" y="59.09325" width="279.406333" height="209.55475"/>
  </clipPath>
  <clipPath id="p76fd3ff489">
   <rect x="400.360042" y="59.09325" width="344.3425" height="209.55475"/>
  </clipPath>
 </defs>
</svg>
