<?xml version="1.0" encoding="utf-8" standalone="no"?>
<!DOCTYPE svg PUBLIC "-//W3C//DTD SVG 1.1//EN"
  "http://www.w3.org/Graphics/SVG/1.1/DTD/svg11.dtd">
<svg xmlns:xlink="http://www.w3.org/1999/xlink" width="751.902542pt" height="306.20425pt" viewBox="0 0 751.902542 306.20425" xmlns="http://www.w3.org/2000/svg" version="1.1">
 <metadata>
  <rdf:RDF xmlns:dc="http://purl.org/dc/elements/1.1/" xmlns:cc="http://creativecommons.org/ns#" xmlns:rdf="http://www.w3.org/1999/02/22-rdf-syntax-ns#">
   <cc:Work>
    <dc:type rdf:resource="http://purl.org/dc/dcmitype/StillImage"/>
    <dc:date>2026-09-14T12:09:45.228407</dc:date>
    <dc:format>image/svg+xml</dc:format>
    <dc:creator>
     <cc:Agent>
      <dc:title>Matplotlib v3.5.1, https://matplotlib.org/</dc:title>
     </cc:Agent>
    </dc:creator>
   </cc:Work>
  </rdf:RDF>
 </metadata>
 <defs>
  <style type="text/css">*{stroke-linejoin: round; stroke-linecap: butt}</style>
 </defs>
 <g id="figure_1">
  <g id="patch_1">
   <path d="M 0 306.20425 
L 751.902542 306.20425 
L 751.902542 -0 
L 0 -0 
z
" style="fill: #ffffff"/>
  </g>
  <g id="axes_1">
   <g id="patch_2">
    <path d="M 34.240625 268.648 
L 313.646958 268.648 
L 313.646958 59.09325 
L 34.240625 59.09325 
z
" style="fill: #ffffff"/>
   </g>
   <g id="patch_3">
    <path d="M 34.240625 198.796417 
L 104.092208 198.796417 
L 104.092208 128.944833 
L 34.240625 128.944833 
z
" clip-path="url(#p660aa72e16)" style="fill: #d7ebd4"/>
   </g>
   <g id="patch_4">
    <path d="M 34.240625 128.944833 
L 104.092208 128.944833 
L 104.092208 59.09325 
L 34.240625 59.09325 
z
" clip-path="url(#p660aa72e16)" style="fill: #d7ebd4"/>
   </g>
   <g id="patch_5">
    <path d="M 104.092208 198.796417 
L 173.943792 198.796417 
L 173.943792 128.944833 
L 104.092208 128.944833 
z
" clip-path="url(#p660aa72e16)" style="fill: #d7ebd4"/>
   </g>
   <g id="patch_6">
    <path d="M 104.092208 128.944833 
L 173.943792 128.944833 
L 173.943792 59.09325 
L 104.092208 59.09325 
z
" clip-path="url(#p660aa72e16)" style="fill: #d7ebd4"/>
   </g>
   <g id="patch_7">
    <path d="M 243.795375 128.944833 
L 313.646958 128.944833 
L 313.646958 59.09325 
L 243.795375 59.09325 
z
" clip-path="url(#p660aa72e16)" style="fill: #d7ebd4"/>
   </g>
   <g id="patch_8">
    <path d="M 173.943792 128.944833 
L 243.795375 128.944833 
L 243.795375 59.09325 
L 173.943792 59.09325 
z
" clip-path="url(#p660aa72e16)" style="fill: #d7ebd4"/>
   </g>
   <g id="patch_9">
    <path d="M 243.795375 198.796417 
L 313.646958 198.796417 
L 313.646958 128.944833 
L 243.795375 128.944833 
z
" clip-path="url(#p660aa72e16)" style="fill: #d7ebd4"/>
   </g>
   <g id="patch_10">
    <path d="M 173.943792 198.796417 
L 243.795375 198.796417 
L 243.795375 128.944833 
L 173.943792 128.944833 
z
" clip-path="url(#p660aa72e16)" style="fill: #d7ebd4"/>
   </g>
   <g id="patch_11">
    <path d="M 173.943792 268.648 
L 243.795375 268.648 
L 243.795375 198.796417 
L 173.943792 198.796417 
z
" clip-path="url(#p660aa72e16)" style="fill: #d7ebd4"/>
   </g>
   <g id="patch_12">
    <path d="M 243.795375 268.648 
L 313.646958 268.648 
L 313.646958 198.796417 
L 243.795375 198.796417 
z
" clip-path="url(#p660aa72e16)" style="fill: #d7ebd4"/>
   </g>
   <g id="patch_13">
    <path d="M 104.092208 268.648 
L 173.943792 268.648 
L 173.943792 198.796417 
L 104.092208 198.796417 
z
" clip-path="url(#p660aa72e16)" style="fill: #d7ebd4"/>
   </g>
   <g id="patch_14">
    <path d="M 34.240625 268.648 
L 104.092208 268.648 
L 104.092208 198.796417 
L 34.240625 198.796417 
z
" clip-path="url(#p660aa72e16)" style="fill: #d7ebd4"/>
   </g>
   <g id="PathCollection_1">
    <defs>
     <path id="m8307ccd1ef" d="M 0 2.5 
C 0.663008 2.5 1.29895 2.236584 1.767767 1.767767 
C 2.236584 1.29895 2.5 0.663008 2.5 0 
C 2.5 -0.663008 2.236584 -1.29895 1.767767 -1.767767 
C 1.29895 -2.236584 0.663008 -2.5 0 -2.5 
C -0.663008 -2.5 -1.29895 -2.236584 -1.767767 -1.767767 
C -2.236584 -1.29895 -2.5 -0.663008 -2.5 0 
C -2.5 0.663008 -2.236584 1.29895 -1.767767 1.767767 
C -1.29895 2.236584 -0.663008 2.5 0 2.5 
z
" style="stroke: #009e73"/>
    </defs>
    <g clip-path="url(#p660aa72e16)">
     <use xlink:href="#m8307ccd1ef" x="102.989252" y="139.151477" style="fill: #009e73; stroke: #009e73"/>
    </g>
   </g>
   <g id="PathCollection_2">
    <defs>
     <path id="m6a16a98f8f" d="M 0 2.5 
C 0.663008 2.5 1.29895 2.236584 1.767767 1.767767 
C 2.236584 1.29895 2.5 0.663008 2.5 0 
C 2.5 -0.663008 2.236584 -1.29895 1.767767 -1.767767 
C 1.29895 -2.236584 0.663008 -2.5 0 -2.5 
C -0.663008 -2.5 -1.29895 -2.236584 -1.767767 -1.767767 
C -2.236584 -1.29895 -2.5 -0.663008 -2.5 0 
C -2.5 0.663008 -2.236584 1.29895 -1.767767 1.767767 
C -1.29895 2.236584 -0.663008 2.5 0 2.5 
z
" style="stroke: #cc79a7"/>
    </defs>
    <g clip-path="url(#p660aa72e16)">
     <use xlink:href="#m6a16a98f8f" x="49.293082" y="77.354759" style="fill: #cc79a7; stroke: #cc79a7"/>
    </g>
   </g>
   <g id="PathCollection_3">
    <defs>
     <path id="mcb6c81c421" d="M 0 2.5 
C 0.663008 2.5 1.29895 2.236584 1.767767 1.767767 
C 2.236584 1.29895 2.5 0.663008 2.5 0 
C 2.5 -0.663008 2.236584 -1.29895 1.767767 -1.767767 
C 1.29895 -2.236584 0.663008 -2.5 0 -2.5 
C -0.663008 -2.5 -1.29895 -2.236584 -1.767767 -1.767767 
C -2.236584 -1.29895 -2.5 -0.663008 -2.5 0 
C -2.5 0.663008 -2.236584 1.29895 -1.767767 1.767767 
C -1.29895 2.236584 -0.663008 2.5 0 2.5 
z
" style="stroke: #0072b2"/>
    </defs>
    <g clip-path="url(#p660aa72e16)">
     <use xlink:href="#mcb6c81c421" x="271.173424" y="75.397587" style="fill: #0072b2; stroke: #0072b2"/>
    </g>
   </g>
   <g id="matplotlib.axis_1">
    <g id="xtick_1">
     <g id="line2d_1">
      <path d="M 34.240625 268.648 
L 34.240625 59.09325 
" clip-path="url(#p660aa72e16)" style="fill: none; stroke: #999999; stroke-width: 0.6; stroke-linecap: square"/>
     </g>
     <g id="line2d_2">
      <defs>
       <path id="m268b55461c" d="M 0 0 
L 0 3.5 
" style="stroke: #000000; stroke-width: 0.8"/>
      </defs>
      <g>
       <use xlink:href="#m268b55461c" x="34.240625" y="268.648" style="stroke: #000000; stroke-width: 0.8"/>
      </g>
     </g>
     <g id="text_1">
      <!-- 0 -->
      <g transform="translate(31.059375 283.246437)scale(0.1 -0.1)">
       <defs>
        <path id="DejaVuSans-30" d="M 2034 4250 
Q 1547 4250 1301 3770 
Q 1056 3291 1056 2328 
Q 1056 1369 1301 889 
Q 1547 409 2034 409 
Q 2525 409 2770 889 
Q 3016 1369 3016 2328 
Q 3016 3291 2770 3770 
Q 2525 4250 2034 4250 
z
M 2034 4750 
Q 2819 4750 3233 4129 
Q 3647 3509 3647 2328 
Q 3647 1150 3233 529 
Q 2819 -91 2034 -91 
Q 1250 -91 836 529 
Q 422 1150 422 2328 
Q 422 3509 836 4129 
Q 1250 4750 2034 4750 
z
" transform="scale(0.015625)"/>
       </defs>
       <use xlink:href="#DejaVuSans-30"/>
      </g>
     </g>
    </g>
    <g id="xtick_2">
     <g id="line2d_3">
      <path d="M 104.092208 268.648 
L 104.092208 59.09325 
" clip-path="url(#p660aa72e16)" style="fill: none; stroke: #999999; stroke-width: 0.6; stroke-linecap: square"/>
     </g>
     <g id="line2d_4">
      <g>
       <use xlink:href="#m268b55461c" x="104.092208" y="268.648" style="stroke: #000000; stroke-width: 0.8"/>
      </g>
     </g>
     <g id="text_2">
      <!-- 1 -->
      <g transform="translate(100.910958 283.246437)scale(0.1 -0.1)">
       <defs>
        <path id="DejaVuSans-31" d="M 794 531 
L 1825 531 
L 1825 4091 
L 703 3866 
L 703 4441 
L 1819 4666 
L 2450 4666 
L 2450 531 
L 3481 531 
L 3481 0 
L 794 0 
L 794 531 
z
" transform="scale(0.015625)"/>
       </defs>
       <use xlink:href="#DejaVuSans-31"/>
      </g>
     </g>
    </g>
    <g id="xtick_3">
     <g id="line2d_5">
      <path d="M 173.943792 268.648 
L 173.943792 59.09325 
" clip-path="url(#p660aa72e16)" style="fill: none; stroke: #999999; stroke-width: 0.6; stroke-linecap: square"/>
     </g>
     <g id="line2d_6">
      <g>
       <use xlink:href="#m268b55461c" x="173.943792" y="268.648" style="stroke: #000000; stroke-width: 0.8"/>
      </g>
     </g>
     <g id="text_3">
      <!-- 2 -->
      <g transform="translate(170.762542 283.246437)scale(0.1 -0.1)">
       <defs>
        <path id="DejaVuSans-32" d="M 1228 531 
L 3431 531 
L 3431 0 
L 469 0 
L 469 531 
Q 828 903 1448 1529 
Q 2069 2156 2228 2338 
Q 2531 2678 2651 2914 
Q 2772 3150 2772 3378 
Q 2772 3750 2511 3984 
Q 2250 4219 1831 4219 
Q 1534 4219 1204 4116 
Q 875 4013 500 3803 
L 500 4441 
Q 881 4594 1212 4672 
Q 1544 4750 1819 4750 
Q 2544 4750 2975 4387 
Q 3406 4025 3406 3419 
Q 3406 3131 3298 2873 
Q 3191 2616 2906 2266 
Q 2828 2175 2409 1742 
Q 1991 1309 1228 531 
z
" transform="scale(0.015625)"/>
       </defs>
       <use xlink:href="#DejaVuSans-32"/>
      </g>
     </g>
    </g>
    <g id="xtick_4">
     <g id="line2d_7">
      <path d="M 243.795375 268.648 
L 243.795375 59.09325 
" clip-path="url(#p660aa72e16)" style="fill: none; stroke: #999999; stroke-width: 0.6; stroke-linecap: square"/>
     </g>
     <g id="line2d_8">
      <g>
       <use xlink:href="#m268b55461c" x="243.795375" y="268.648" style="stroke: #000000; stroke-width: 0.8"/>
      </g>
     </g>
     <g id="text_4">
      <!-- 3 -->
      <g transform="translate(240.614125 283.246437)scale(0.1 -0.1)">
       <defs>
        <path id="DejaVuSans-33" d="M 2597 2516 
Q 3050 2419 3304 2112 
Q 3559 1806 3559 1356 
Q 3559 666 3084 287 
Q 2609 -91 1734 -91 
Q 1441 -91 1130 -33 
Q 819 25 488 141 
L 488 750 
Q 750 597 1062 519 
Q 1375 441 1716 441 
Q 2309 441 2620 675 
Q 2931 909 2931 1356 
Q 2931 1769 2642 2001 
Q 2353 2234 1838 2234 
L 1294 2234 
L 1294 2753 
L 1863 2753 
Q 2328 2753 2575 2939 
Q 2822 3125 2822 3475 
Q 2822 3834 2567 4026 
Q 2313 4219 1838 4219 
Q 1578 4219 1281 4162 
Q 984 4106 628 3988 
L 628 4550 
Q 988 4650 1302 4700 
Q 1616 4750 1894 4750 
Q 2613 4750 3031 4423 
Q 3450 4097 3450 3541 
Q 3450 3153 3228 2886 
Q 3006 2619 2597 2516 
z
" transform="scale(0.015625)"/>
       </defs>
       <use xlink:href="#DejaVuSans-33"/>
      </g>
     </g>
    </g>
    <g id="xtick_5">
     <g id="line2d_9">
      <path d="M 313.646958 268.648 
L 313.646958 59.09325 
" clip-path="url(#p660aa72e16)" style="fill: none; stroke: #999999; stroke-width: 0.6; stroke-linecap: square"/>
     </g>
     <g id="line2d_10">
      <g>
       <use xlink:href="#m268b55461c" x="313.646958" y="268.648" style="stroke: #000000; stroke-width: 0.8"/>
      </g>
     </g>
     <g id="text_5">
      <!-- 4 -->
      <g transform="translate(310.465708 283.246437)scale(0.1 -0.1)">
       <defs>
        <path id="DejaVuSans-34" d="M 2419 4116 
L 825 1625 
L 2419 1625 
L 2419 4116 
z
M 2253 4666 
L 3047 4666 
L 3047 1625 
L 3713 1625 
L 3713 1100 
L 3047 1100 
L 3047 0 
L 2419 0 
L 2419 1100 
L 313 1100 
L 313 1709 
L 2253 4666 
z
" transform="scale(0.015625)"/>
       </defs>
       <use xlink:href="#DejaVuSans-34"/>
      </g>
     </g>
    </g>
    <g id="text_6">
     <!-- x (m) -->
     <g transform="translate(160.623479 296.924562)scale(0.1 -0.1)">
      <defs>
       <path id="DejaVuSans-78" d="M 3513 3500 
L 2247 1797 
L 3578 0 
L 2900 0 
L 1881 1375 
L 863 0 
L 184 0 
L 1544 1831 
L 300 3500 
L 978 3500 
L 1906 2253 
L 2834 3500 
L 3513 3500 
z
" transform="scale(0.015625)"/>
       <path id="DejaVuSans-20" transform="scale(0.015625)"/>
       <path id="DejaVuSans-28" d="M 1984 4856 
Q 1566 4138 1362 3434 
Q 1159 2731 1159 2009 
Q 1159 1288 1364 580 
Q 1569 -128 1984 -844 
L 1484 -844 
Q 1016 -109 783 600 
Q 550 1309 550 2009 
Q 550 2706 781 3412 
Q 1013 4119 1484 4856 
L 1984 4856 
z
" transform="scale(0.015625)"/>
       <path id="DejaVuSans-6d" d="M 3328 2828 
Q 3544 3216 3844 3400 
Q 4144 3584 4550 3584 
Q 5097 3584 5394 3201 
Q 5691 2819 5691 2113 
L 5691 0 
L 5113 0 
L 5113 2094 
Q 5113 2597 4934 2840 
Q 4756 3084 4391 3084 
Q 3944 3084 3684 2787 
Q 3425 2491 3425 1978 
L 3425 0 
L 2847 0 
L 2847 2094 
Q 2847 2600 2669 2842 
Q 2491 3084 2119 3084 
Q 1678 3084 1418 2786 
Q 1159 2488 1159 1978 
L 1159 0 
L 581 0 
L 581 3500 
L 1159 3500 
L 1159 2956 
Q 1356 3278 1631 3431 
Q 1906 3584 2284 3584 
Q 2666 3584 2933 3390 
Q 3200 3197 3328 2828 
z
" transform="scale(0.015625)"/>
       <path id="DejaVuSans-29" d="M 513 4856 
L 1013 4856 
Q 1481 4119 1714 3412 
Q 1947 2706 1947 2009 
Q 1947 1309 1714 600 
Q 1481 -109 1013 -844 
L 513 -844 
Q 928 -128 1133 580 
Q 1338 1288 1338 2009 
Q 1338 2731 1133 3434 
Q 928 4138 513 4856 
z
" transform="scale(0.015625)"/>
      </defs>
      <use xlink:href="#DejaVuSans-78"/>
      <use xlink:href="#DejaVuSans-20" x="59.179688"/>
      <use xlink:href="#DejaVuSans-28" x="90.966797"/>
      <use xlink:href="#DejaVuSans-6d" x="129.980469"/>
      <use xlink:href="#DejaVuSans-29" x="227.392578"/>
     </g>
    </g>
   </g>
   <g id="matplotlib.axis_2">
    <g id="ytick_1">
     <g id="line2d_11">
      <path d="M 34.240625 268.648 
L 313.646958 268.648 
" clip-path="url(#p660aa72e16)" style="fill: none; stroke: #999999; stroke-width: 0.6; stroke-linecap: square"/>
     </g>
     <g id="line2d_12">
      <defs>
       <path id="ma8f36c8ca3" d="M 0 0 
L -3.5 0 
" style="stroke: #000000; stroke-width: 0.8"/>
      </defs>
      <g>
       <use xlink:href="#ma8f36c8ca3" x="34.240625" y="268.648" style="stroke: #000000; stroke-width: 0.8"/>
      </g>
     </g>
     <g id="text_7">
      <!-- 0 -->
      <g transform="translate(20.878125 272.447219)scale(0.1 -0.1)">
       <use xlink:href="#DejaVuSans-30"/>
      </g>
     </g>
    </g>
    <g id="ytick_2">
     <g id="line2d_13">
      <path d="M 34.240625 198.796417 
L 313.646958 198.796417 
" clip-path="url(#p660aa72e16)" style="fill: none; stroke: #999999; stroke-width: 0.6; stroke-linecap: square"/>
     </g>
     <g id="line2d_14">
      <g>
       <use xlink:href="#ma8f36c8ca3" x="34.240625" y="198.796417" style="stroke: #000000; stroke-width: 0.8"/>
      </g>
     </g>
     <g id="text_8">
      <!-- 1 -->
      <g transform="translate(20.878125 202.595635)scale(0.1 -0.1)">
       <use xlink:href="#DejaVuSans-31"/>
      </g>
     </g>
    </g>
    <g id="ytick_3">
     <g id="line2d_15">
      <path d="M 34.240625 128.944833 
L 313.646958 128.944833 
" clip-path="url(#p660aa72e16)" style="fill: none; stroke: #999999; stroke-width: 0.6; stroke-linecap: square"/>
     </g>
     <g id="line2d_16">
      <g>
       <use xlink:href="#ma8f36c8ca3" x="34.240625" y="128.944833" style="stroke: #000000; stroke-width: 0.8"/>
      </g>
     </g>
     <g id="text_9">
      <!-- 2 -->
      <g transform="translate(20.878125 132.744052)scale(0.1 -0.1)">
       <use xlink:href="#DejaVuSans-32"/>
      </g>
     </g>
    </g>
    <g id="ytick_4">
     <g id="line2d_17">
      <path d="M 34.240625 59.09325 
L 313.646958 59.09325 
" clip-path="url(#p660aa72e16)" style="fill: none; stroke: #999999; stroke-width: 0.6; stroke-linecap: square"/>
     </g>
     <g id="line2d_18">
      <g>
       <use xlink:href="#ma8f36c8ca3" x="34.240625" y="59.09325" style="stroke: #000000; stroke-width: 0.8"/>
      </g>
     </g>
     <g id="text_10">
      <!-- 3 -->
      <g transform="translate(20.878125 62.892469)scale(0.1 -0.1)">
       <use xlink:href="#DejaVuSans-33"/>
      </g>
     </g>
    </g>
    <g id="text_11">
     <!-- y (m) -->
     <g transform="translate(14.798437 177.190937)rotate(-90)scale(0.1 -0.1)">
      <defs>
       <path id="DejaVuSans-79" d="M 2059 -325 
Q 1816 -950 1584 -1140 
Q 1353 -1331 966 -1331 
L 506 -1331 
L 506 -850 
L 844 -850 
Q 1081 -850 1212 -737 
Q 1344 -625 1503 -206 
L 1606 56 
L 191 3500 
L 800 3500 
L 1894 763 
L 2988 3500 
L 3597 3500 
L 2059 -325 
z
" transform="scale(0.015625)"/>
      </defs>
      <use xlink:href="#DejaVuSans-79"/>
      <use xlink:href="#DejaVuSans-20" x="59.179688"/>
      <use xlink:href="#DejaVuSans-28" x="90.966797"/>
      <use xlink:href="#DejaVuSans-6d" x="129.980469"/>
      <use xlink:href="#DejaVuSans-29" x="227.392578"/>
     </g>
    </g>
   </g>
   <g id="line2d_19">
    <path d="M 102.989252 139.151477 
L 102.983454 139.139253 
L 103.064831 139.219442 
L 103.083831 139.169149 
L 102.988274 138.806689 
L 103.022501 138.070663 
L 103.754685 136.995997 
L 106.41631 135.305658 
L 109.913569 133.617555 
L 111.608518 132.369307 
L 113.582943 130.588092 
L 116.819865 128.105497 
L 122.086395 123.707082 
L 126.502203 117.976179 
L 126.529375 118.026262 
L 125.984184 117.645013 
L 125.647359 116.815665 
L 126.012334 111.946241 
L 125.502208 109.393515 
L 125.327439 106.719107 
L 123.945844 104.721003 
L 122.775272 102.002589 
L 121.79707 100.525018 
L 121.196277 100.41598 
L 120.550429 100.454747 
L 120.094438 100.874416 
L 119.364698 101.329778 
L 119.030738 101.93616 
L 118.561475 102.273962 
L 118.624411 103.101354 
L 118.523406 103.85142 
L 118.628742 104.566491 
L 119.274729 106.829892 
L 119.472479 107.55558 
L 121.343733 108.665522 
L 121.63236 109.921523 
L 121.381174 113.482627 
L 121.707031 115.392439 
L 122.316486 115.993372 
L 123.065715 116.142435 
L 124.457647 118.144731 
L 125.707851 120.553353 
L 126.853207 121.427615 
L 128.180597 121.926775 
L 130.53229 123.949327 
L 135.564049 129.132105 
L 136.992234 129.585652 
L 137.552025 129.19113 
L 138.868657 128.853048 
L 141.443666 129.538153 
L 143.432899 129.53459 
L 144.111508 128.844596 
L 144.470405 127.861575 
L 146.557081 127.152931 
L 150.186709 126.197151 
L 154.221546 125.013656 
L 156.400078 124.074152 
L 158.950359 122.694444 
L 166.700392 119.096319 
L 168.73447 117.846814 
L 169.053482 117.462281 
L 169.146734 116.777316 
L 170.260168 114.616527 
L 171.834903 112.327561 
L 172.448199 110.602995 
L 173.970964 107.716658 
L 174.446164 105.81418 
L 174.25512 104.774788 
L 174.293329 102.518582 
L 174.585448 99.908718 
L 174.324134 98.727178 
L 173.734027 97.553532 
L 172.89015 94.782031 
L 172.255549 93.208903 
L 171.657829 92.860413 
L 171.102648 93.169297 
L 170.26401 93.091902 
L 169.554178 93.859012 
L 169.334006 94.272882 
L 169.372355 94.642327 
L 169.158609 95.11648 
L 169.215748 95.73292 
L 169.072622 96.483336 
L 169.127804 96.9753 
L 169.514712 98.111087 
L 169.855169 98.687223 
L 170.202192 98.947001 
L 171.894905 99.844314 
L 172.021406 100.168566 
L 172.337624 102.661359 
L 172.864096 111.229424 
L 173.290889 113.543328 
L 174.166548 116.381537 
L 174.681564 119.239864 
L 175.465928 120.339817 
L 177.011883 121.188723 
L 178.568316 123.898755 
L 182.735521 130.246238 
L 184.52931 131.575514 
L 186.774899 134.261377 
L 188.221455 135.428527 
L 189.261336 135.466666 
L 191.280047 136.431037 
L 193.045545 136.883117 
L 195.602393 137.28609 
L 197.995438 138.020021 
L 199.280148 137.772327 
L 199.452682 137.410566 
L 199.708059 136.571159 
L 199.793627 135.905753 
L 200.822402 134.830877 
L 203.147691 133.157303 
L 204.467956 132.027663 
L 204.642585 131.006293 
L 208.323414 125.806262 
L 210.927062 122.688227 
L 212.268352 120.841491 
L 213.62005 118.154859 
L 215.792504 114.858493 
L 219.019926 108.645474 
L 219.076856 107.893732 
L 217.710559 106.984683 
L 217.195124 104.691036 
L 216.804793 101.047229 
L 216.629326 96.923471 
L 215.795996 94.578623 
L 214.06242 89.051965 
L 213.065847 87.866933 
L 212.475601 87.734355 
L 211.058243 88.718564 
L 209.823616 89.736022 
L 209.416451 90.474283 
L 209.29484 92.749838 
L 209.718909 93.165176 
L 210.855534 94.743682 
L 211.303562 95.195063 
L 211.857066 95.412092 
L 212.262345 95.207147 
L 212.582684 95.369063 
L 212.712887 95.564997 
L 213.606778 97.937715 
L 214.364668 101.895576 
L 215.060809 106.123064 
L 215.862216 108.230137 
L 219.51266 112.950846 
L 220.525647 113.622609 
L 221.08914 113.38707 
L 221.407943 113.108432 
L 222.658845 112.889936 
L 225.464713 113.762312 
L 229.337215 115.41542 
L 232.165855 116.382375 
L 237.567967 117.226043 
L 240.931251 118.066078 
L 242.848676 118.87929 
L 244.41894 119.891649 
L 246.66376 121.508154 
L 249.700418 123.176001 
L 251.724228 124.868016 
L 254.579482 127.006242 
L 258.058649 129.373652 
L 261.847259 132.285625 
L 265.753011 134.958007 
L 271.846094 139.793972 
L 278.321825 145.576705 
L 285.284212 151.668811 
L 292.318336 158.301847 
L 294.146352 159.965572 
L 294.084603 160.404659 
L 293.674714 160.293595 
L 293.246803 160.960957 
L 292.784316 161.196148 
L 291.905653 161.222482 
L 292.112274 161.521516 
L 293.733948 162.240499 
L 294.492467 162.851141 
L 295.253779 162.610083 
L 296.205367 161.242319 
L 296.337876 160.78535 
L 296.857432 160.251405 
L 297.411704 159.887688 
L 297.772488 159.500081 
L 297.945161 159.489743 
L 298.197604 159.220116 
L 297.891794 158.98283 
L 297.411145 159.211315 
L 297.427002 158.717604 
L 296.739173 157.497576 
L 296.4254 156.350264 
L 296.021727 155.851803 
L 294.85779 155.753661 
L 294.325382 155.785933 
M 292.367093 156.305349 
L 291.469081 156.623523 
L 290.963565 157.014413 
L 290.729003 157.768391 
L 290.78209 157.972427 
L 290.582175 159.96655 
M 253.200262 186.045988 
L 247.127505 190.929312 
L 238.674975 198.246894 
L 236.913876 200.135262 
L 236.068672 202.082095 
L 231.585109 208.55622 
L 226.103925 215.816104 
L 224.850019 217.585235 
L 223.606661 220.579563 
L 218.676466 230.293404 
L 219.157953 231.164732 
L 220.114221 231.341247 
L 221.119106 231.458179 
L 221.603737 231.079094 
L 222.329006 230.795148 
L 222.633908 230.367446 
L 223.168971 230.151535 
L 223.806367 229.741786 
L 223.680145 229.455255 
L 224.092059 229.11857 
L 223.951239 228.106909 
L 224.029752 227.366273 
L 223.793025 225.850144 
L 223.306369 224.916438 
L 222.939159 224.360839 
L 223.042749 222.174973 
L 223.302248 219.408012 
L 223.114067 217.349626 
L 223.212209 206.125035 
L 222.691954 204.80959 
L 221.244699 204.471439 
L 220.719346 204.815039 
L 219.447069 204.516493 
L 217.244648 202.533337 
L 214.264012 199.498146 
L 207.729326 193.271156 
L 205.917166 191.817545 
L 205.033753 191.519209 
L 204.604655 191.715911 
L 203.399366 190.902838 
L 202.014978 189.614636 
L 202.002404 188.508745 
L 199.780356 187.740727 
L 196.491953 187.389653 
L 189.984579 187.15125 
L 180.64633 187.244921 
L 178.889563 188.094316 
L 175.853744 189.154453 
L 173.211188 190.756639 
L 171.553051 191.488125 
L 170.229643 192.523395 
L 169.085824 192.904785 
L 168.219035 194.009558 
L 166.847779 195.494323 
L 165.326481 197.894633 
L 162.376928 203.128682 
L 161.081321 205.92491 
L 160.118836 208.784215 
L 159.120098 210.952059 
L 158.587899 213.270852 
L 158.331683 215.699801 
L 158.343838 218.256719 
L 158.724948 220.610996 
L 159.071761 224.564177 
L 159.817706 227.20757 
L 161.140695 230.108227 
L 163.874057 234.758806 
L 165.435031 236.902062 
L 167.738945 239.066274 
L 169.639328 241.133461 
L 172.041104 242.713225 
L 174.30674 244.404821 
L 178.33585 246.509519 
L 178.978903 246.79605 
L 179.653879 246.850534 
L 181.698645 247.374421 
L 183.045732 247.17262 
L 184.925299 247.352976 
L 185.791179 246.307787 
L 186.173616 245.688343 
L 186.178157 245.165504 
L 188.038584 244.603967 
L 194.474639 240.309981 
L 196.81774 238.721766 
L 199.003047 236.690901 
L 200.878073 234.767817 
L 204.041232 230.490874 
L 204.962225 228.876255 
L 205.371276 227.906435 
L 205.990092 226.833725 
L 206.966547 224.878579 
L 207.677845 222.627123 
L 208.34877 219.5642 
L 208.891517 213.994375 
L 210.279398 205.589343 
L 210.911205 200.825745 
L 211.59128 197.729224 
L 211.312363 194.948852 
L 211.366498 191.569083 
L 211.066276 189.398235 
L 210.481059 186.496461 
L 209.469678 178.346108 
L 208.958924 176.190069 
L 207.927076 173.208943 
L 206.914577 169.300538 
L 205.415143 164.643742 
L 204.12701 160.092772 
L 203.007569 156.693026 
L 202.02343 154.619062 
L 200.571145 150.96792 
L 194.673786 138.195139 
L 192.579705 133.758027 
L 190.942663 130.588511 
L 187.79096 125.728447 
L 186.378701 124.288736 
L 185.396029 123.855098 
L 183.237475 122.626059 
L 181.212757 121.112026 
L 180.187964 120.960099 
L 179.084589 122.309701 
L 178.637539 124.184727 
L 178.662546 124.727823 
L 178.842413 125.495632 
L 179.100794 125.907966 
L 179.336474 126.591813 
L 180.074875 127.267627 
L 180.389347 127.35096 
L 181.606371 127.978856 
L 182.909522 128.001278 
L 184.236842 127.92032 
L 184.758354 127.447565 
L 185.986694 128.118349 
L 188.884417 129.895793 
L 190.569167 130.357861 
L 191.396629 130.364567 
L 193.955991 130.534306 
L 197.573115 131.177709 
L 206.550441 133.076415 
L 209.677207 133.671201 
L 212.146461 133.540788 
L 215.500105 133.892421 
L 217.288236 133.708222 
L 218.009663 133.162053 
L 220.250362 132.226042 
L 222.667017 131.420583 
L 224.417428 130.211382 
L 227.44277 128.845435 
L 229.110477 127.434922 
L 231.604318 125.856765 
L 233.614157 124.09867 
L 234.25323 123.22783 
L 233.89517 121.950664 
L 233.996385 120.342751 
L 235.012446 115.905988 
L 234.562672 115.314764 
L 234.170944 115.380704 
L 232.777126 115.245681 
L 231.953296 114.922757 
L 230.209591 113.188132 
L 228.560116 111.199667 
L 227.395201 110.70421 
L 225.708495 110.371507 
L 223.298895 108.784339 
L 218.72669 107.289934 
L 206.900886 102.087458 
L 202.598657 100.23723 
L 195.737835 97.613884 
L 192.880835 97.049692 
L 190.198185 96.392808 
L 189.120585 96.569952 
L 187.555979 97.080776 
L 184.56235 97.541657 
L 181.527927 98.753861 
L 180.05364 99.836701 
L 178.596536 101.071607 
L 175.910463 102.777313 
L 170.275675 106.782113 
L 167.731471 108.753395 
L 164.900945 111.133169 
L 161.509861 113.761963 
L 158.425075 116.329917 
L 155.224475 118.842967 
L 143.621569 128.989049 
L 131.305477 140.524549 
L 123.940815 147.117282 
L 121.047353 150.114753 
L 112.660413 157.89566 
L 109.197102 161.408427 
L 103.916112 166.126272 
L 104.698171 165.510531 
L 106.458431 163.734973 
L 108.813756 161.75042 
L 111.001648 159.465924 
L 115.957897 154.782934 
L 118.339766 152.363764 
L 119.600098 151.3681 
L 120.54533 150.819276 
L 121.047143 151.355876 
L 122.625091 152.325974 
L 124.302996 153.098323 
L 125.371445 154.821841 
L 126.781819 157.531664 
L 127.653706 158.943713 
L 127.671239 159.344312 
L 127.669283 159.343893 
L 127.84957 159.631472 
M 36.358385 260.932962 
L 17.844852 276.570427 
L 17.844852 276.570427 
" clip-path="url(#p660aa72e16)" style="fill: none; stroke: #009e73; stroke-opacity: 0.85; stroke-width: 0.75; stroke-linecap: square"/>
   </g>
   <g id="line2d_20">
    <path d="M 49.293082 77.354759 
L 49.182507 77.164693 
L 49.305726 77.351406 
L 49.174544 77.359439 
L 49.15289 79.813325 
L 49.596029 81.523571 
L 50.253751 82.325258 
L 50.846931 82.254568 
L 51.629338 81.971949 
L 52.597202 81.413066 
L 54.490599 82.306747 
L 60.822715 86.891805 
L 62.969533 88.027871 
L 65.621519 88.872517 
L 73.538986 92.629484 
L 75.614626 93.201988 
L 76.345064 92.865094 
L 76.665892 92.133747 
L 76.633551 91.411901 
L 76.345623 90.05706 
L 75.920296 89.61441 
L 75.548407 88.880969 
L 74.908217 88.408074 
L 73.683299 88.138516 
L 72.583416 87.993854 
L 70.731441 88.799941 
L 70.342298 89.154368 
L 69.532369 90.747752 
L 69.543964 90.789943 
L 69.40936 91.145557 
L 69.362909 91.824165 
L 69.619404 92.6832 
L 69.139803 94.059765 
L 66.786992 95.997727 
L 65.394082 97.533973 
L 65.212328 98.223548 
L 66.569614 99.194066 
L 68.393649 99.450701 
L 69.342303 99.353188 
L 70.241013 99.068962 
L 70.762036 98.710763 
L 72.378053 96.832733 
L 72.738976 95.147354 
L 72.250434 92.962816 
L 71.44735 92.01465 
L 71.4711 91.913505 
L 71.429189 91.945777 
L 71.717047 91.874598 
L 71.500787 92.087226 
L 71.30136 92.070811 
L 70.126177 91.36524 
L 67.822752 91.47819 
L 67.274067 91.673705 
L 66.216095 92.379346 
L 65.435923 92.911265 
L 65.006755 94.4151 
L 64.777083 96.53768 
L 64.861184 97.169697 
L 65.275125 97.893639 
L 65.725178 98.133649 
L 66.118163 98.527961 
L 66.558508 98.723895 
L 67.869412 99.071546 
L 68.5907 99.352909 
L 69.445893 99.249808 
L 70.781246 98.608081 
L 71.264688 97.697496 
L 71.925834 97.142874 
L 72.559178 95.710498 
L 72.681069 94.130036 
L 72.593824 93.535878 
L 71.247994 91.72323 
L 69.906634 91.084227 
L 69.658521 90.599038 
L 69.866539 90.430975 
L 69.901465 90.499151 
L 69.634003 90.977494 
L 68.94373 90.730778 
L 67.700162 90.833041 
L 66.945136 91.337509 
L 65.471966 91.921259 
L 65.237265 92.360067 
L 64.596656 93.016741 
L 64.31711 93.678725 
L 64.12432 94.545723 
L 64.333246 96.567437 
L 64.494324 97.400557 
L 64.998443 97.887003 
L 65.442908 98.135395 
L 65.949681 98.550663 
L 66.129549 98.494572 
L 66.690108 98.625823 
L 67.2821 99.892861 
L 67.546349 102.836617 
L 68.207424 104.757605 
L 68.707981 105.073614 
L 69.358089 105.165818 
L 71.184499 106.420212 
L 73.253782 109.537689 
L 75.893194 113.158934 
L 77.659042 114.827689 
L 79.781063 116.493858 
L 86.148873 122.820666 
L 88.079641 124.106913 
L 89.201667 123.945486 
L 89.759292 123.302711 
L 92.087236 123.245922 
L 94.787 123.549776 
L 96.798516 123.195838 
L 100.162498 123.139259 
L 102.012308 122.926351 
L 102.790524 122.125782 
L 104.662826 120.822282 
L 107.148285 119.776045 
L 108.167 118.689922 
L 108.76018 117.572786 
L 110.886951 115.362193 
L 112.004507 113.627499 
L 112.277487 112.901461 
L 112.617734 110.578058 
L 114.509315 107.170488 
L 116.176113 102.899832 
L 118.18714 98.055066 
L 119.835358 94.902105 
L 121.072639 86.556308 
L 120.588917 85.818955 
L 119.884115 85.697553 
L 118.897671 85.862542 
L 118.327961 86.210124 
L 117.562388 86.415627 
L 117.128051 86.719551 
L 116.359893 87.4451 
L 115.827903 88.227507 
L 115.456432 89.034083 
L 115.256517 89.998245 
L 115.212371 91.014236 
L 115.427374 91.931457 
L 115.719912 92.528898 
L 115.952798 93.294331 
L 118.581802 95.163979 
L 119.178683 95.239628 
L 120.231766 95.931997 
L 121.10065 98.951611 
L 122.062157 100.905989 
L 123.516676 103.212907 
L 125.074367 105.923917 
L 126.10838 106.754662 
L 126.831972 106.559217 
L 127.493676 106.132424 
L 128.551928 105.747611 
L 131.589075 106.700946 
L 133.458512 107.110905 
L 134.191465 106.874248 
L 134.267953 105.08486 
L 135.796235 103.435943 
L 138.165182 101.838996 
L 138.7921 100.659063 
L 139.106153 99.505953 
L 142.469786 95.007721 
L 142.068908 94.333793 
L 139.523586 93.829115 
L 139.296778 94.266526 
L 138.581428 94.3683 
L 137.454302 95.862285 
L 137.256064 96.597473 
L 136.895979 97.242064 
L 137.030932 99.031521 
L 138.095889 100.917794 
L 136.544905 102.957041 
L 133.992039 106.050348 
L 131.058901 109.829389 
L 129.834333 111.738991 
L 129.83112 112.926957 
L 130.452729 113.385812 
L 131.1298 113.668781 
L 131.697345 116.090326 
L 131.927156 120.169239 
L 132.011397 124.712666 
L 132.43344 127.175772 
L 134.138518 133.18706 
L 134.807347 134.662674 
L 135.536667 134.397099 
L 136.722467 134.880262 
L 139.020375 137.053065 
L 141.957005 140.066952 
L 145.223824 143.646217 
L 148.757127 147.144594 
L 150.335354 148.451517 
L 153.790073 149.274089 
L 156.594125 150.320116 
L 158.550948 150.643948 
L 162.167932 151.442631 
L 166.521083 152.564587 
L 170.094341 153.240821 
L 172.338882 153.16601 
L 176.075452 153.310463 
L 182.42091 153.927951 
L 184.685428 152.70457 
L 187.832661 151.820249 
L 201.435908 148.667637 
L 203.481512 147.839058 
L 204.091106 146.966682 
L 203.937223 146.331451 
L 203.61877 145.607929 
L 202.062547 144.4025 
L 201.493745 144.248687 
L 200.022042 144.382941 
L 198.726854 144.895373 
L 197.531903 145.797296 
L 196.834225 147.18853 
L 196.62977 148.777235 
L 196.894158 149.539665 
L 197.421118 150.991949 
L 196.334018 153.204079 
L 194.757817 155.487317 
L 194.113227 157.497157 
L 192.590392 160.799111 
L 190.533333 164.951997 
L 188.121707 169.36529 
L 183.767648 178.852393 
L 181.461778 183.28224 
L 177.300579 192.492381 
L 175.167242 197.055576 
L 173.134072 201.808068 
L 170.985857 206.503072 
L 168.718544 211.160077 
L 165.733506 218.134269 
L 165.648916 218.442174 
L 165.932234 218.455237 
L 166.56956 218.984572 
L 168.591903 219.042898 
L 169.942693 218.619877 
L 170.414261 218.227032 
L 171.019106 217.459502 
L 171.513655 218.758672 
L 172.839229 220.173935 
L 175.738488 221.198867 
L 176.225354 222.475405 
L 175.729128 223.874672 
L 175.913327 224.664414 
L 176.621832 225.548875 
L 176.971718 226.309069 
L 176.79667 227.047331 
L 177.119454 226.966792 
L 177.801415 227.305921 
L 177.727303 227.906296 
L 178.669251 228.684722 
L 180.60414 228.19583 
L 182.348474 227.180817 
L 184.269323 226.256681 
L 187.930873 224.061525 
L 189.181426 223.582972 
L 190.249945 224.023106 
L 191.205655 224.650374 
L 192.142155 224.213592 
L 193.050295 224.27101 
L 193.82949 224.119781 
L 194.084169 223.057967 
L 195.004812 220.633768 
L 195.10023 219.755524 
L 195.96597 219.932039 
L 196.568999 219.637754 
L 197.384167 219.035284 
L 197.107136 216.597813 
L 196.056358 214.134427 
L 195.630543 213.423059 
L 194.139561 211.911121 
L 194.062724 210.800761 
L 193.496437 209.616287 
L 192.775429 207.411771 
L 192.971084 207.295119 
L 193.548616 207.334935 
L 193.916664 207.206687 
L 194.099745 207.361338 
L 192.591161 206.18378 
L 191.181905 205.104504 
L 189.797586 204.374066 
L 187.02385 202.755185 
L 184.647639 201.530268 
L 183.099169 201.262178 
L 181.560199 201.168507 
L 180.494962 201.663545 
L 179.370072 202.469003 
L 174.911935 204.812384 
L 173.917039 205.577539 
L 172.136871 207.500902 
L 170.782309 206.198729 
L 168.92747 206.197821 
L 168.472177 204.647604 
L 167.914762 201.42577 
L 165.601208 196.81822 
L 164.11742 192.79414 
L 162.488761 188.698672 
L 161.304916 186.80269 
L 159.403346 184.131286 
L 157.088535 180.426498 
L 154.376058 176.461443 
L 149.940063 169.588187 
L 147.933227 168.14666 
L 145.417453 165.203114 
L 142.177736 161.743365 
L 139.884928 159.478637 
L 137.587649 158.473962 
L 134.970799 156.382954 
L 133.126648 155.580569 
L 132.628466 155.862351 
L 132.837532 156.574278 
L 132.398654 157.056882 
L 129.879876 157.672834 
L 127.474607 158.107031 
L 125.367813 159.105071 
L 114.661102 162.544632 
L 113.510158 163.460806 
L 113.577215 163.888507 
L 114.428566 164.63529 
L 114.642452 166.376131 
L 111.606912 173.566863 
L 108.255153 182.622003 
L 107.899329 184.327639 
L 108.316064 185.15559 
L 108.860766 185.58832 
L 109.792307 188.184424 
L 110.316892 190.50678 
L 111.001997 191.643684 
L 112.315835 192.663448 
L 117.846055 201.93408 
L 119.475483 203.529211 
L 121.844429 206.392707 
L 123.139757 207.267528 
L 123.735102 207.30881 
L 124.217148 206.914428 
L 124.628923 206.217169 
L 129.788161 206.238055 
L 131.238978 205.651581 
L 136.24112 204.438469 
L 137.884658 203.579853 
L 143.800459 201.849769 
L 151.986366 200.139593 
L 173.547454 195.683132 
L 188.127784 193.042951 
L 192.969477 191.870143 
L 196.760043 191.365326 
L 200.280353 191.027104 
L 208.341366 190.422609 
L 210.326408 190.112608 
L 212.030577 189.706281 
L 217.944282 188.952443 
L 225.796229 190.387962 
L 229.49019 190.951665 
L 234.034804 191.440137 
L 238.714511 192.138024 
L 241.448641 192.42218 
L 242.467776 192.108477 
L 244.084561 191.357502 
L 247.138053 190.674913 
L 248.731088 189.790871 
L 249.046328 189.19357 
L 248.667872 188.132664 
L 248.027124 187.281313 
L 248.853328 184.847055 
L 249.949369 182.50088 
L 249.735204 179.87509 
L 249.980314 176.500629 
L 250.807636 172.02922 
L 251.54904 167.273235 
L 252.058678 162.501324 
L 252.083684 160.387755 
L 251.565875 154.03189 
L 251.05519 153.179631 
L 249.884966 151.964702 
L 248.639023 149.233435 
L 247.44051 147.599397 
L 245.625766 145.338721 
L 244.026933 142.692743 
L 242.312775 141.632116 
L 240.049724 139.085397 
L 238.387396 138.187944 
L 237.602194 138.315703 
L 237.182316 138.90071 
L 236.839135 139.579597 
L 234.448395 139.852228 
L 231.54676 139.941987 
L 230.472862 140.386104 
L 230.385198 141.220131 
L 230.545368 142.135956 
L 230.83155 142.786972 
L 231.299555 143.408861 
L 231.138408 144.92017 
L 229.662584 147.745876 
L 228.932984 149.624674 
L 228.050479 152.487471 
L 226.658057 156.163201 
L 224.036318 163.759142 
L 222.878528 167.991799 
L 221.711727 171.347748 
L 220.814414 174.691893 
L 219.654109 177.957245 
L 218.981578 181.380391 
L 217.94498 184.493048 
L 217.452247 186.787323 
L 217.402792 194.413719 
L 218.187854 195.037284 
L 219.888601 199.856694 
L 221.108629 201.711672 
L 222.534928 205.177708 
L 226.221904 212.160142 
L 227.755007 213.950019 
L 229.807456 217.22983 
L 234.610241 223.394652 
L 236.219063 224.632561 
L 238.741613 227.02407 
L 240.336953 227.777908 
L 241.293082 227.850624 
L 241.323677 227.208129 
L 241.590091 226.708062 
L 241.126206 224.055797 
L 240.701439 223.544763 
L 240.31027 222.797141 
L 239.802798 222.238398 
L 238.87943 221.910166 
L 237.423374 221.99769 
L 236.907799 222.214719 
L 236.190074 222.339963 
L 234.46467 223.238114 
L 234.049053 223.533796 
L 233.798147 223.510745 
L 227.874313 219.857647 
L 223.868954 217.56896 
L 219.828738 215.072604 
L 215.427739 212.687312 
L 206.798414 207.718769 
L 203.213282 206.00503 
L 200.974818 205.258736 
L 193.045126 204.194337 
L 191.11387 204.418701 
L 186.040549 205.527944 
L 182.008297 205.934131 
L 173.256801 207.171412 
L 169.979435 207.815304 
L 166.389483 209.328359 
L 164.530453 210.289377 
L 163.047154 211.339177 
L 154.262689 215.996182 
L 150.293792 217.966066 
L 146.909064 219.818321 
L 139.436621 222.753763 
L 134.369517 224.824304 
L 141.343429 222.001881 
L 144.509103 220.932104 
L 147.351853 219.598148 
L 150.551684 218.525507 
L 153.584919 217.160957 
L 155.286853 216.819592 
L 156.035243 216.828184 
L 156.758765 217.749736 
L 157.378628 217.984297 
L 157.995558 218.366595 
L 159.210346 218.832994 
L 159.575391 218.669821 
L 159.345998 218.860376 
L 159.459856 218.776694 
" clip-path="url(#p660aa72e16)" style="fill: none; stroke: #cc79a7; stroke-opacity: 0.85; stroke-width: 0.75; stroke-linecap: square"/>
   </g>
   <g id="line2d_21">
    <path d="M 271.173424 75.397587 
L 271.071929 76.095056 
L 271.519957 76.607836 
L 271.139965 77.465124 
L 269.164981 79.919919 
L 264.540038 85.101928 
L 263.215582 87.706345 
L 258.912026 94.707569 
L 258.26555 97.121989 
L 257.051808 100.449788 
L 256.337506 103.043587 
L 256.153168 106.009974 
L 255.296229 109.881009 
L 254.158696 117.407447 
L 254.677134 118.525492 
L 256.436765 124.016804 
L 258.741029 127.546544 
L 260.056544 128.462089 
L 261.787257 129.916958 
L 263.828809 132.138029 
L 268.665542 135.628512 
L 272.069619 138.601116 
L 275.113402 140.931924 
L 277.862691 143.450493 
L 283.149128 147.782827 
L 289.727052 152.31878 
L 290.26924 152.14429 
L 290.722437 150.509065 
L 290.786072 149.318445 
L 290.701901 147.912472 
L 290.06702 146.872242 
L 289.62898 146.761737 
L 289.349364 146.470176 
L 289.234459 146.597935 
L 288.129546 146.27571 
L 287.522466 146.447754 
L 287.019116 146.714587 
L 285.955206 147.724641 
L 285.243628 147.634952 
L 282.257613 145.744209 
L 280.36226 144.711453 
L 280.154731 144.272017 
L 279.876163 144.655921 
L 279.918074 145.190286 
L 277.991357 146.516837 
L 275.13317 147.375802 
M 270.567671 151.635003 
L 260.207633 160.05582 
L 257.575276 162.965488 
L 251.370779 169.15811 
L 248.890908 172.008055 
L 242.287349 179.082134 
L 239.059019 182.861035 
L 233.106895 190.076983 
L 230.514633 192.993147 
L 227.731606 196.612786 
L 226.300836 198.726705 
L 225.241188 201.468799 
L 223.136909 205.27075 
L 220.958378 209.591071 
L 220.195319 211.909585 
L 220.211245 212.776024 
L 220.90571 213.33302 
L 221.69154 215.613535 
L 222.013626 218.376235 
L 222.467032 219.781579 
L 222.936784 220.036956 
L 224.267527 220.576839 
L 226.457094 223.046372 
L 228.927116 226.640655 
L 231.36787 229.693309 
L 232.782644 230.475297 
L 233.315053 230.409427 
L 233.498134 229.564223 
L 233.86255 229.014631 
L 233.766015 228.79369 
L 233.682752 227.684098 
L 233.560721 226.65225 
L 232.781387 225.244601 
L 232.301297 225.162525 
L 231.88568 225.430616 
L 231.338463 225.197381 
L 230.507718 225.134445 
L 228.876544 225.684387 
L 227.88046 226.494735 
L 221.905146 223.499639 
L 217.807582 221.18329 
L 201.573027 212.785593 
L 198.500535 212.10461 
L 194.394659 210.68802 
L 191.104929 209.945777 
L 187.843907 209.539381 
L 183.732793 208.821167 
L 181.421613 208.757951 
L 177.211449 209.231265 
L 176.800093 209.536936 
L 175.97759 210.368868 
L 173.53495 211.862924 
L 171.761908 213.160347 
L 171.522666 213.974467 
L 167.634308 219.355973 
L 164.544283 222.969535 
L 158.934223 230.022519 
L 158.47453 231.46216 
L 158.722154 231.997503 
L 159.044519 231.726409 
L 160.444624 231.489822 
L 161.319794 231.444069 
L 162.471158 230.714259 
L 162.783255 230.029784 
L 162.810637 227.734251 
L 162.688955 226.794608 
L 162.499588 226.404347 
L 161.946643 225.883254 
L 161.592006 225.758429 
L 161.661718 225.548246 
L 164.161566 220.43511 
L 164.506633 218.9998 
L 164.076417 218.69825 
L 163.319715 217.740865 
L 162.9926 214.657266 
L 162.243442 212.795442 
L 160.983669 210.242926 
L 159.951821 207.268017 
L 159.210277 206.140822 
L 158.19694 206.586614 
L 156.818 206.801897 
L 153.959743 205.403748 
L 152.055519 204.871758 
L 150.951165 205.001822 
L 150.912467 205.325724 
L 151.081438 205.770748 
L 150.51606 206.611272 
L 147.736735 207.735673 
L 145.915215 208.708077 
L 140.216513 212.78706 
L 137.109725 214.7026 
L 139.465958 213.231665 
L 147.572584 207.592617 
L 153.103781 203.601367 
L 155.44814 202.062747 
L 156.705748 201.718728 
L 157.246749 201.996527 
L 157.698339 201.998274 
L 158.927378 202.31547 
L 159.564843 202.320289 
L 159.810721 202.100466 
L 160.574478 202.094948 
L 161.005253 201.912426 
L 160.82769 202.002674 
L 159.137841 202.540881 
L 152.918954 207.671759 
L 145.504837 214.087906 
M 88.364077 257.818211 
L 66.875005 270.203734 
L 45.656539 278.988759 
L 45.656539 278.988759 
" clip-path="url(#p660aa72e16)" style="fill: none; stroke: #0072b2; stroke-opacity: 0.85; stroke-width: 0.75; stroke-linecap: square"/>
   </g>
   <g id="patch_15">
    <path d="M 34.240625 268.648 
L 34.240625 59.09325 
" style="fill: none; stroke: #000000; stroke-width: 0.8; stroke-linejoin: miter; stroke-linecap: square"/>
   </g>
   <g id="patch_16">
    <path d="M 313.646958 268.648 
L 313.646958 59.09325 
" style="fill: none; stroke: #000000; stroke-width: 0.8; stroke-linejoin: miter; stroke-linecap: square"/>
   </g>
   <g id="patch_17">
    <path d="M 34.240625 268.648 
L 313.646958 268.648 
" style="fill: none; stroke: #000000; stroke-width: 0.8; stroke-linejoin: miter; stroke-linecap: square"/>
   </g>
   <g id="patch_18">
    <path d="M 34.240625 59.09325 
L 313.646958 59.09325 
" style="fill: none; stroke: #000000; stroke-width: 0.8; stroke-linejoin: miter; stroke-linecap: square"/>
   </g>
   <g id="text_12">
    <!-- Visited 1 m cells and detected paths -->
    <g transform="translate(64.356604 53.09325)scale(0.12 -0.12)">
     <defs>
      <path id="DejaVuSans-56" d="M 1831 0 
L 50 4666 
L 709 4666 
L 2188 738 
L 3669 4666 
L 4325 4666 
L 2547 0 
L 1831 0 
z
" transform="scale(0.015625)"/>
      <path id="DejaVuSans-69" d="M 603 3500 
L 1178 3500 
L 1178 0 
L 603 0 
L 603 3500 
z
M 603 4863 
L 1178 4863 
L 1178 4134 
L 603 4134 
L 603 4863 
z
" transform="scale(0.015625)"/>
      <path id="DejaVuSans-73" d="M 2834 3397 
L 2834 2853 
Q 2591 2978 2328 3040 
Q 2066 3103 1784 3103 
Q 1356 3103 1142 2972 
Q 928 2841 928 2578 
Q 928 2378 1081 2264 
Q 1234 2150 1697 2047 
L 1894 2003 
Q 2506 1872 2764 1633 
Q 3022 1394 3022 966 
Q 3022 478 2636 193 
Q 2250 -91 1575 -91 
Q 1294 -91 989 -36 
Q 684 19 347 128 
L 347 722 
Q 666 556 975 473 
Q 1284 391 1588 391 
Q 1994 391 2212 530 
Q 2431 669 2431 922 
Q 2431 1156 2273 1281 
Q 2116 1406 1581 1522 
L 1381 1569 
Q 847 1681 609 1914 
Q 372 2147 372 2553 
Q 372 3047 722 3315 
Q 1072 3584 1716 3584 
Q 2034 3584 2315 3537 
Q 2597 3491 2834 3397 
z
" transform="scale(0.015625)"/>
      <path id="DejaVuSans-74" d="M 1172 4494 
L 1172 3500 
L 2356 3500 
L 2356 3053 
L 1172 3053 
L 1172 1153 
Q 1172 725 1289 603 
Q 1406 481 1766 481 
L 2356 481 
L 2356 0 
L 1766 0 
Q 1100 0 847 248 
Q 594 497 594 1153 
L 594 3053 
L 172 3053 
L 172 3500 
L 594 3500 
L 594 4494 
L 1172 4494 
z
" transform="scale(0.015625)"/>
      <path id="DejaVuSans-65" d="M 3597 1894 
L 3597 1613 
L 953 1613 
Q 991 1019 1311 708 
Q 1631 397 2203 397 
Q 2534 397 2845 478 
Q 3156 559 3463 722 
L 3463 178 
Q 3153 47 2828 -22 
Q 2503 -91 2169 -91 
Q 1331 -91 842 396 
Q 353 884 353 1716 
Q 353 2575 817 3079 
Q 1281 3584 2069 3584 
Q 2775 3584 3186 3129 
Q 3597 2675 3597 1894 
z
M 3022 2063 
Q 3016 2534 2758 2815 
Q 2500 3097 2075 3097 
Q 1594 3097 1305 2825 
Q 1016 2553 972 2059 
L 3022 2063 
z
" transform="scale(0.015625)"/>
      <path id="DejaVuSans-64" d="M 2906 2969 
L 2906 4863 
L 3481 4863 
L 3481 0 
L 2906 0 
L 2906 525 
Q 2725 213 2448 61 
Q 2172 -91 1784 -91 
Q 1150 -91 751 415 
Q 353 922 353 1747 
Q 353 2572 751 3078 
Q 1150 3584 1784 3584 
Q 2172 3584 2448 3432 
Q 2725 3281 2906 2969 
z
M 947 1747 
Q 947 1113 1208 752 
Q 1469 391 1925 391 
Q 2381 391 2643 752 
Q 2906 1113 2906 1747 
Q 2906 2381 2643 2742 
Q 2381 3103 1925 3103 
Q 1469 3103 1208 2742 
Q 947 2381 947 1747 
z
" transform="scale(0.015625)"/>
      <path id="DejaVuSans-63" d="M 3122 3366 
L 3122 2828 
Q 2878 2963 2633 3030 
Q 2388 3097 2138 3097 
Q 1578 3097 1268 2742 
Q 959 2388 959 1747 
Q 959 1106 1268 751 
Q 1578 397 2138 397 
Q 2388 397 2633 464 
Q 2878 531 3122 666 
L 3122 134 
Q 2881 22 2623 -34 
Q 2366 -91 2075 -91 
Q 1284 -91 818 406 
Q 353 903 353 1747 
Q 353 2603 823 3093 
Q 1294 3584 2113 3584 
Q 2378 3584 2631 3529 
Q 2884 3475 3122 3366 
z
" transform="scale(0.015625)"/>
      <path id="DejaVuSans-6c" d="M 603 4863 
L 1178 4863 
L 1178 0 
L 603 0 
L 603 4863 
z
" transform="scale(0.015625)"/>
      <path id="DejaVuSans-61" d="M 2194 1759 
Q 1497 1759 1228 1600 
Q 959 1441 959 1056 
Q 959 750 1161 570 
Q 1363 391 1709 391 
Q 2188 391 2477 730 
Q 2766 1069 2766 1631 
L 2766 1759 
L 2194 1759 
z
M 3341 1997 
L 3341 0 
L 2766 0 
L 2766 531 
Q 2569 213 2275 61 
Q 1981 -91 1556 -91 
Q 1019 -91 701 211 
Q 384 513 384 1019 
Q 384 1609 779 1909 
Q 1175 2209 1959 2209 
L 2766 2209 
L 2766 2266 
Q 2766 2663 2505 2880 
Q 2244 3097 1772 3097 
Q 1472 3097 1187 3025 
Q 903 2953 641 2809 
L 641 3341 
Q 956 3463 1253 3523 
Q 1550 3584 1831 3584 
Q 2591 3584 2966 3190 
Q 3341 2797 3341 1997 
z
" transform="scale(0.015625)"/>
      <path id="DejaVuSans-6e" d="M 3513 2113 
L 3513 0 
L 2938 0 
L 2938 2094 
Q 2938 2591 2744 2837 
Q 2550 3084 2163 3084 
Q 1697 3084 1428 2787 
Q 1159 2491 1159 1978 
L 1159 0 
L 581 0 
L 581 3500 
L 1159 3500 
L 1159 2956 
Q 1366 3272 1645 3428 
Q 1925 3584 2291 3584 
Q 2894 3584 3203 3211 
Q 3513 2838 3513 2113 
z
" transform="scale(0.015625)"/>
      <path id="DejaVuSans-70" d="M 1159 525 
L 1159 -1331 
L 581 -1331 
L 581 3500 
L 1159 3500 
L 1159 2969 
Q 1341 3281 1617 3432 
Q 1894 3584 2278 3584 
Q 2916 3584 3314 3078 
Q 3713 2572 3713 1747 
Q 3713 922 3314 415 
Q 2916 -91 2278 -91 
Q 1894 -91 1617 61 
Q 1341 213 1159 525 
z
M 3116 1747 
Q 3116 2381 2855 2742 
Q 2594 3103 2138 3103 
Q 1681 3103 1420 2742 
Q 1159 2381 1159 1747 
Q 1159 1113 1420 752 
Q 1681 391 2138 391 
Q 2594 391 2855 752 
Q 3116 1113 3116 1747 
z
" transform="scale(0.015625)"/>
      <path id="DejaVuSans-68" d="M 3513 2113 
L 3513 0 
L 2938 0 
L 2938 2094 
Q 2938 2591 2744 2837 
Q 2550 3084 2163 3084 
Q 1697 3084 1428 2787 
Q 1159 2491 1159 1978 
L 1159 0 
L 581 0 
L 581 4863 
L 1159 4863 
L 1159 2956 
Q 1366 3272 1645 3428 
Q 1925 3584 2291 3584 
Q 2894 3584 3203 3211 
Q 3513 2838 3513 2113 
z
" transform="scale(0.015625)"/>
     </defs>
     <use xlink:href="#DejaVuSans-56"/>
     <use xlink:href="#DejaVuSans-69" x="66.158203"/>
     <use xlink:href="#DejaVuSans-73" x="93.941406"/>
     <use xlink:href="#DejaVuSans-69" x="146.041016"/>
     <use xlink:href="#DejaVuSans-74" x="173.824219"/>
     <use xlink:href="#DejaVuSans-65" x="213.033203"/>
     <use xlink:href="#DejaVuSans-64" x="274.556641"/>
     <use xlink:href="#DejaVuSans-20" x="338.033203"/>
     <use xlink:href="#DejaVuSans-31" x="369.820312"/>
     <use xlink:href="#DejaVuSans-20" x="433.443359"/>
     <use xlink:href="#DejaVuSans-6d" x="465.230469"/>
     <use xlink:href="#DejaVuSans-20" x="562.642578"/>
     <use xlink:href="#DejaVuSans-63" x="594.429688"/>
     <use xlink:href="#DejaVuSans-65" x="649.410156"/>
     <use xlink:href="#DejaVuSans-6c" x="710.933594"/>
     <use xlink:href="#DejaVuSans-6c" x="738.716797"/>
     <use xlink:href="#DejaVuSans-73" x="766.5"/>
     <use xlink:href="#DejaVuSans-20" x="818.599609"/>
     <use xlink:href="#DejaVuSans-61" x="850.386719"/>
     <use xlink:href="#DejaVuSans-6e" x="911.666016"/>
     <use xlink:href="#DejaVuSans-64" x="975.044922"/>
     <use xlink:href="#DejaVuSans-20" x="1038.521484"/>
     <use xlink:href="#DejaVuSans-64" x="1070.308594"/>
     <use xlink:href="#DejaVuSans-65" x="1133.785156"/>
     <use xlink:href="#DejaVuSans-74" x="1195.308594"/>
     <use xlink:href="#DejaVuSans-65" x="1234.517578"/>
     <use xlink:href="#DejaVuSans-63" x="1296.041016"/>
     <use xlink:href="#DejaVuSans-74" x="1351.021484"/>
     <use xlink:href="#DejaVuSans-65" x="1390.230469"/>
     <use xlink:href="#DejaVuSans-64" x="1451.753906"/>
     <use xlink:href="#DejaVuSans-20" x="1515.230469"/>
     <use xlink:href="#DejaVuSans-70" x="1547.017578"/>
     <use xlink:href="#DejaVuSans-61" x="1610.494141"/>
     <use xlink:href="#DejaVuSans-74" x="1671.773438"/>
     <use xlink:href="#DejaVuSans-68" x="1710.982422"/>
     <use xlink:href="#DejaVuSans-73" x="1774.361328"/>
    </g>
   </g>
   <g id="legend_1">
    <g id="patch_19">
     <path d="M 39.840625 100.72075 
L 96.276875 100.72075 
Q 97.876875 100.72075 97.876875 99.12075 
L 97.876875 64.69325 
Q 97.876875 63.09325 96.276875 63.09325 
L 39.840625 63.09325 
Q 38.240625 63.09325 38.240625 64.69325 
L 38.240625 99.12075 
Q 38.240625 100.72075 39.840625 100.72075 
z
" style="fill: #ffffff; opacity: 0.8; stroke: #cccccc; stroke-linejoin: miter"/>
    </g>
    <g id="line2d_22">
     <path d="M 41.440625 69.572 
L 49.440625 69.572 
L 57.440625 69.572 
" style="fill: none; stroke: #009e73; stroke-opacity: 0.85; stroke-width: 0.75; stroke-linecap: square"/>
    </g>
    <g id="text_13">
     <!-- Robot 0 -->
     <g transform="translate(63.840625 72.372)scale(0.08 -0.08)">
      <defs>
       <path id="DejaVuSans-52" d="M 2841 2188 
Q 3044 2119 3236 1894 
Q 3428 1669 3622 1275 
L 4263 0 
L 3584 0 
L 2988 1197 
Q 2756 1666 2539 1819 
Q 2322 1972 1947 1972 
L 1259 1972 
L 1259 0 
L 628 0 
L 628 4666 
L 2053 4666 
Q 2853 4666 3247 4331 
Q 3641 3997 3641 3322 
Q 3641 2881 3436 2590 
Q 3231 2300 2841 2188 
z
M 1259 4147 
L 1259 2491 
L 2053 2491 
Q 2509 2491 2742 2702 
Q 2975 2913 2975 3322 
Q 2975 3731 2742 3939 
Q 2509 4147 2053 4147 
L 1259 4147 
z
" transform="scale(0.015625)"/>
       <path id="DejaVuSans-6f" d="M 1959 3097 
Q 1497 3097 1228 2736 
Q 959 2375 959 1747 
Q 959 1119 1226 758 
Q 1494 397 1959 397 
Q 2419 397 2687 759 
Q 2956 1122 2956 1747 
Q 2956 2369 2687 2733 
Q 2419 3097 1959 3097 
z
M 1959 3584 
Q 2709 3584 3137 3096 
Q 3566 2609 3566 1747 
Q 3566 888 3137 398 
Q 2709 -91 1959 -91 
Q 1206 -91 779 398 
Q 353 888 353 1747 
Q 353 2609 779 3096 
Q 1206 3584 1959 3584 
z
" transform="scale(0.015625)"/>
       <path id="DejaVuSans-62" d="M 3116 1747 
Q 3116 2381 2855 2742 
Q 2594 3103 2138 3103 
Q 1681 3103 1420 2742 
Q 1159 2381 1159 1747 
Q 1159 1113 1420 752 
Q 1681 391 2138 391 
Q 2594 391 2855 752 
Q 3116 1113 3116 1747 
z
M 1159 2969 
Q 1341 3281 1617 3432 
Q 1894 3584 2278 3584 
Q 2916 3584 3314 3078 
Q 3713 2572 3713 1747 
Q 3713 922 3314 415 
Q 2916 -91 2278 -91 
Q 1894 -91 1617 61 
Q 1341 213 1159 525 
L 1159 0 
L 581 0 
L 581 4863 
L 1159 4863 
L 1159 2969 
z
" transform="scale(0.015625)"/>
      </defs>
      <use xlink:href="#DejaVuSans-52"/>
      <use xlink:href="#DejaVuSans-6f" x="64.982422"/>
      <use xlink:href="#DejaVuSans-62" x="126.164062"/>
      <use xlink:href="#DejaVuSans-6f" x="189.640625"/>
      <use xlink:href="#DejaVuSans-74" x="250.822266"/>
      <use xlink:href="#DejaVuSans-20" x="290.03125"/>
      <use xlink:href="#DejaVuSans-30" x="321.818359"/>
     </g>
    </g>
    <g id="line2d_23">
     <path d="M 41.440625 81.3145 
L 49.440625 81.3145 
L 57.440625 81.3145 
" style="fill: none; stroke: #cc79a7; stroke-opacity: 0.85; stroke-width: 0.75; stroke-linecap: square"/>
    </g>
    <g id="text_14">
     <!-- Robot 1 -->
     <g transform="translate(63.840625 84.1145)scale(0.08 -0.08)">
      <use xlink:href="#DejaVuSans-52"/>
      <use xlink:href="#DejaVuSans-6f" x="64.982422"/>
      <use xlink:href="#DejaVuSans-62" x="126.164062"/>
      <use xlink:href="#DejaVuSans-6f" x="189.640625"/>
      <use xlink:href="#DejaVuSans-74" x="250.822266"/>
      <use xlink:href="#DejaVuSans-20" x="290.03125"/>
      <use xlink:href="#DejaVuSans-31" x="321.818359"/>
     </g>
    </g>
    <g id="line2d_24">
     <path d="M 41.440625 93.057 
L 49.440625 93.057 
L 57.440625 93.057 
" style="fill: none; stroke: #0072b2; stroke-opacity: 0.85; stroke-width: 0.75; stroke-linecap: square"/>
    </g>
    <g id="text_15">
     <!-- Robot 2 -->
     <g transform="translate(63.840625 95.857)scale(0.08 -0.08)">
      <use xlink:href="#DejaVuSans-52"/>
      <use xlink:href="#DejaVuSans-6f" x="64.982422"/>
      <use xlink:href="#DejaVuSans-62" x="126.164062"/>
      <use xlink:href="#DejaVuSans-6f" x="189.640625"/>
      <use xlink:href="#DejaVuSans-74" x="250.822266"/>
      <use xlink:href="#DejaVuSans-20" x="290.03125"/>
      <use xlink:href="#DejaVuSans-32" x="321.818359"/>
     </g>
    </g>
   </g>
  </g>
  <g id="axes_2">
   <g id="patch_20">
    <path d="M 400.360042 268.648 
L 744.702542 268.648 
L 744.702542 59.09325 
L 400.360042 59.09325 
z
" style="fill: #ffffff"/>
   </g>
   <g id="matplotlib.axis_3">
    <g id="xtick_6">
     <g id="line2d_25">
      <path d="M 400.360042 268.648 
L 400.360042 59.09325 
" clip-path="url(#p52dccba930)" style="fill: none; stroke: #b0b0b0; stroke-opacity: 0.25; stroke-width: 0.8; stroke-linecap: square"/>
     </g>
     <g id="line2d_26">
      <g>
       <use xlink:href="#m268b55461c" x="400.360042" y="268.648" style="stroke: #000000; stroke-width: 0.8"/>
      </g>
     </g>
     <g id="text_16">
      <!-- 0 -->
      <g transform="translate(397.178792 283.246437)scale(0.1 -0.1)">
       <use xlink:href="#DejaVuSans-30"/>
      </g>
     </g>
    </g>
    <g id="xtick_7">
     <g id="line2d_27">
      <path d="M 453.403816 268.648 
L 453.403816 59.09325 
" clip-path="url(#p52dccba930)" style="fill: none; stroke: #b0b0b0; stroke-opacity: 0.25; stroke-width: 0.8; stroke-linecap: square"/>
     </g>
     <g id="line2d_28">
      <g>
       <use xlink:href="#m268b55461c" x="453.403816" y="268.648" style="stroke: #000000; stroke-width: 0.8"/>
      </g>
     </g>
     <g id="text_17">
      <!-- 20 -->
      <g transform="translate(447.041316 283.246437)scale(0.1 -0.1)">
       <use xlink:href="#DejaVuSans-32"/>
       <use xlink:href="#DejaVuSans-30" x="63.623047"/>
      </g>
     </g>
    </g>
    <g id="xtick_8">
     <g id="line2d_29">
      <path d="M 506.44759 268.648 
L 506.44759 59.09325 
" clip-path="url(#p52dccba930)" style="fill: none; stroke: #b0b0b0; stroke-opacity: 0.25; stroke-width: 0.8; stroke-linecap: square"/>
     </g>
     <g id="line2d_30">
      <g>
       <use xlink:href="#m268b55461c" x="506.44759" y="268.648" style="stroke: #000000; stroke-width: 0.8"/>
      </g>
     </g>
     <g id="text_18">
      <!-- 40 -->
      <g transform="translate(500.08509 283.246437)scale(0.1 -0.1)">
       <use xlink:href="#DejaVuSans-34"/>
       <use xlink:href="#DejaVuSans-30" x="63.623047"/>
      </g>
     </g>
    </g>
    <g id="xtick_9">
     <g id="line2d_31">
      <path d="M 559.491364 268.648 
L 559.491364 59.09325 
" clip-path="url(#p52dccba930)" style="fill: none; stroke: #b0b0b0; stroke-opacity: 0.25; stroke-width: 0.8; stroke-linecap: square"/>
     </g>
     <g id="line2d_32">
      <g>
       <use xlink:href="#m268b55461c" x="559.491364" y="268.648" style="stroke: #000000; stroke-width: 0.8"/>
      </g>
     </g>
     <g id="text_19">
      <!-- 60 -->
      <g transform="translate(553.128864 283.246437)scale(0.1 -0.1)">
       <defs>
        <path id="DejaVuSans-36" d="M 2113 2584 
Q 1688 2584 1439 2293 
Q 1191 2003 1191 1497 
Q 1191 994 1439 701 
Q 1688 409 2113 409 
Q 2538 409 2786 701 
Q 3034 994 3034 1497 
Q 3034 2003 2786 2293 
Q 2538 2584 2113 2584 
z
M 3366 4563 
L 3366 3988 
Q 3128 4100 2886 4159 
Q 2644 4219 2406 4219 
Q 1781 4219 1451 3797 
Q 1122 3375 1075 2522 
Q 1259 2794 1537 2939 
Q 1816 3084 2150 3084 
Q 2853 3084 3261 2657 
Q 3669 2231 3669 1497 
Q 3669 778 3244 343 
Q 2819 -91 2113 -91 
Q 1303 -91 875 529 
Q 447 1150 447 2328 
Q 447 3434 972 4092 
Q 1497 4750 2381 4750 
Q 2619 4750 2861 4703 
Q 3103 4656 3366 4563 
z
" transform="scale(0.015625)"/>
       </defs>
       <use xlink:href="#DejaVuSans-36"/>
       <use xlink:href="#DejaVuSans-30" x="63.623047"/>
      </g>
     </g>
    </g>
    <g id="xtick_10">
     <g id="line2d_33">
      <path d="M 612.535138 268.648 
L 612.535138 59.09325 
" clip-path="url(#p52dccba930)" style="fill: none; stroke: #b0b0b0; stroke-opacity: 0.25; stroke-width: 0.8; stroke-linecap: square"/>
     </g>
     <g id="line2d_34">
      <g>
       <use xlink:href="#m268b55461c" x="612.535138" y="268.648" style="stroke: #000000; stroke-width: 0.8"/>
      </g>
     </g>
     <g id="text_20">
      <!-- 80 -->
      <g transform="translate(606.172638 283.246437)scale(0.1 -0.1)">
       <defs>
        <path id="DejaVuSans-38" d="M 2034 2216 
Q 1584 2216 1326 1975 
Q 1069 1734 1069 1313 
Q 1069 891 1326 650 
Q 1584 409 2034 409 
Q 2484 409 2743 651 
Q 3003 894 3003 1313 
Q 3003 1734 2745 1975 
Q 2488 2216 2034 2216 
z
M 1403 2484 
Q 997 2584 770 2862 
Q 544 3141 544 3541 
Q 544 4100 942 4425 
Q 1341 4750 2034 4750 
Q 2731 4750 3128 4425 
Q 3525 4100 3525 3541 
Q 3525 3141 3298 2862 
Q 3072 2584 2669 2484 
Q 3125 2378 3379 2068 
Q 3634 1759 3634 1313 
Q 3634 634 3220 271 
Q 2806 -91 2034 -91 
Q 1263 -91 848 271 
Q 434 634 434 1313 
Q 434 1759 690 2068 
Q 947 2378 1403 2484 
z
M 1172 3481 
Q 1172 3119 1398 2916 
Q 1625 2713 2034 2713 
Q 2441 2713 2670 2916 
Q 2900 3119 2900 3481 
Q 2900 3844 2670 4047 
Q 2441 4250 2034 4250 
Q 1625 4250 1398 4047 
Q 1172 3844 1172 3481 
z
" transform="scale(0.015625)"/>
       </defs>
       <use xlink:href="#DejaVuSans-38"/>
       <use xlink:href="#DejaVuSans-30" x="63.623047"/>
      </g>
     </g>
    </g>
    <g id="xtick_11">
     <g id="line2d_35">
      <path d="M 665.578912 268.648 
L 665.578912 59.09325 
" clip-path="url(#p52dccba930)" style="fill: none; stroke: #b0b0b0; stroke-opacity: 0.25; stroke-width: 0.8; stroke-linecap: square"/>
     </g>
     <g id="line2d_36">
      <g>
       <use xlink:href="#m268b55461c" x="665.578912" y="268.648" style="stroke: #000000; stroke-width: 0.8"/>
      </g>
     </g>
     <g id="text_21">
      <!-- 100 -->
      <g transform="translate(656.035162 283.246437)scale(0.1 -0.1)">
       <use xlink:href="#DejaVuSans-31"/>
       <use xlink:href="#DejaVuSans-30" x="63.623047"/>
       <use xlink:href="#DejaVuSans-30" x="127.246094"/>
      </g>
     </g>
    </g>
    <g id="xtick_12">
     <g id="line2d_37">
      <path d="M 718.622686 268.648 
L 718.622686 59.09325 
" clip-path="url(#p52dccba930)" style="fill: none; stroke: #b0b0b0; stroke-opacity: 0.25; stroke-width: 0.8; stroke-linecap: square"/>
     </g>
     <g id="line2d_38">
      <g>
       <use xlink:href="#m268b55461c" x="718.622686" y="268.648" style="stroke: #000000; stroke-width: 0.8"/>
      </g>
     </g>
     <g id="text_22">
      <!-- 120 -->
      <g transform="translate(709.078936 283.246437)scale(0.1 -0.1)">
       <use xlink:href="#DejaVuSans-31"/>
       <use xlink:href="#DejaVuSans-32" x="63.623047"/>
       <use xlink:href="#DejaVuSans-30" x="127.246094"/>
      </g>
     </g>
    </g>
    <g id="text_23">
     <!-- Video elapsed time (s) -->
     <g transform="translate(516.395354 296.924562)scale(0.1 -0.1)">
      <use xlink:href="#DejaVuSans-56"/>
      <use xlink:href="#DejaVuSans-69" x="66.158203"/>
      <use xlink:href="#DejaVuSans-64" x="93.941406"/>
      <use xlink:href="#DejaVuSans-65" x="157.417969"/>
      <use xlink:href="#DejaVuSans-6f" x="218.941406"/>
      <use xlink:href="#DejaVuSans-20" x="280.123047"/>
      <use xlink:href="#DejaVuSans-65" x="311.910156"/>
      <use xlink:href="#DejaVuSans-6c" x="373.433594"/>
      <use xlink:href="#DejaVuSans-61" x="401.216797"/>
      <use xlink:href="#DejaVuSans-70" x="462.496094"/>
      <use xlink:href="#DejaVuSans-73" x="525.972656"/>
      <use xlink:href="#DejaVuSans-65" x="578.072266"/>
      <use xlink:href="#DejaVuSans-64" x="639.595703"/>
      <use xlink:href="#DejaVuSans-20" x="703.072266"/>
      <use xlink:href="#DejaVuSans-74" x="734.859375"/>
      <use xlink:href="#DejaVuSans-69" x="774.068359"/>
      <use xlink:href="#DejaVuSans-6d" x="801.851562"/>
      <use xlink:href="#DejaVuSans-65" x="899.263672"/>
      <use xlink:href="#DejaVuSans-20" x="960.787109"/>
      <use xlink:href="#DejaVuSans-28" x="992.574219"/>
      <use xlink:href="#DejaVuSans-73" x="1031.587891"/>
      <use xlink:href="#DejaVuSans-29" x="1083.6875"/>
     </g>
    </g>
   </g>
   <g id="matplotlib.axis_4">
    <g id="ytick_5">
     <g id="line2d_39">
      <path d="M 400.360042 268.648 
L 744.702542 268.648 
" clip-path="url(#p52dccba930)" style="fill: none; stroke: #b0b0b0; stroke-opacity: 0.25; stroke-width: 0.8; stroke-linecap: square"/>
     </g>
     <g id="line2d_40">
      <g>
       <use xlink:href="#ma8f36c8ca3" x="400.360042" y="268.648" style="stroke: #000000; stroke-width: 0.8"/>
      </g>
     </g>
     <g id="text_24">
      <!-- 0 -->
      <g transform="translate(386.997542 272.447219)scale(0.1 -0.1)">
       <use xlink:href="#DejaVuSans-30"/>
      </g>
     </g>
    </g>
    <g id="ytick_6">
     <g id="line2d_41">
      <path d="M 400.360042 228.73281 
L 744.702542 228.73281 
" clip-path="url(#p52dccba930)" style="fill: none; stroke: #b0b0b0; stroke-opacity: 0.25; stroke-width: 0.8; stroke-linecap: square"/>
     </g>
     <g id="line2d_42">
      <g>
       <use xlink:href="#ma8f36c8ca3" x="400.360042" y="228.73281" style="stroke: #000000; stroke-width: 0.8"/>
      </g>
     </g>
     <g id="text_25">
      <!-- 20 -->
      <g transform="translate(380.635042 232.532028)scale(0.1 -0.1)">
       <use xlink:href="#DejaVuSans-32"/>
       <use xlink:href="#DejaVuSans-30" x="63.623047"/>
      </g>
     </g>
    </g>
    <g id="ytick_7">
     <g id="line2d_43">
      <path d="M 400.360042 188.817619 
L 744.702542 188.817619 
" clip-path="url(#p52dccba930)" style="fill: none; stroke: #b0b0b0; stroke-opacity: 0.25; stroke-width: 0.8; stroke-linecap: square"/>
     </g>
     <g id="line2d_44">
      <g>
       <use xlink:href="#ma8f36c8ca3" x="400.360042" y="188.817619" style="stroke: #000000; stroke-width: 0.8"/>
      </g>
     </g>
     <g id="text_26">
      <!-- 40 -->
      <g transform="translate(380.635042 192.616838)scale(0.1 -0.1)">
       <use xlink:href="#DejaVuSans-34"/>
       <use xlink:href="#DejaVuSans-30" x="63.623047"/>
      </g>
     </g>
    </g>
    <g id="ytick_8">
     <g id="line2d_45">
      <path d="M 400.360042 148.902429 
L 744.702542 148.902429 
" clip-path="url(#p52dccba930)" style="fill: none; stroke: #b0b0b0; stroke-opacity: 0.25; stroke-width: 0.8; stroke-linecap: square"/>
     </g>
     <g id="line2d_46">
      <g>
       <use xlink:href="#ma8f36c8ca3" x="400.360042" y="148.902429" style="stroke: #000000; stroke-width: 0.8"/>
      </g>
     </g>
     <g id="text_27">
      <!-- 60 -->
      <g transform="translate(380.635042 152.701647)scale(0.1 -0.1)">
       <use xlink:href="#DejaVuSans-36"/>
       <use xlink:href="#DejaVuSans-30" x="63.623047"/>
      </g>
     </g>
    </g>
    <g id="ytick_9">
     <g id="line2d_47">
      <path d="M 400.360042 108.987238 
L 744.702542 108.987238 
" clip-path="url(#p52dccba930)" style="fill: none; stroke: #b0b0b0; stroke-opacity: 0.25; stroke-width: 0.8; stroke-linecap: square"/>
     </g>
     <g id="line2d_48">
      <g>
       <use xlink:href="#ma8f36c8ca3" x="400.360042" y="108.987238" style="stroke: #000000; stroke-width: 0.8"/>
      </g>
     </g>
     <g id="text_28">
      <!-- 80 -->
      <g transform="translate(380.635042 112.786457)scale(0.1 -0.1)">
       <use xlink:href="#DejaVuSans-38"/>
       <use xlink:href="#DejaVuSans-30" x="63.623047"/>
      </g>
     </g>
    </g>
    <g id="ytick_10">
     <g id="line2d_49">
      <path d="M 400.360042 69.072048 
L 744.702542 69.072048 
" clip-path="url(#p52dccba930)" style="fill: none; stroke: #b0b0b0; stroke-opacity: 0.25; stroke-width: 0.8; stroke-linecap: square"/>
     </g>
     <g id="line2d_50">
      <g>
       <use xlink:href="#ma8f36c8ca3" x="400.360042" y="69.072048" style="stroke: #000000; stroke-width: 0.8"/>
      </g>
     </g>
     <g id="text_29">
      <!-- 100 -->
      <g transform="translate(374.272542 72.871266)scale(0.1 -0.1)">
       <use xlink:href="#DejaVuSans-31"/>
       <use xlink:href="#DejaVuSans-30" x="63.623047"/>
       <use xlink:href="#DejaVuSans-30" x="127.246094"/>
      </g>
     </g>
    </g>
    <g id="text_30">
     <!-- Team coverage (%) -->
     <g transform="translate(368.192854 212.130781)rotate(-90)scale(0.1 -0.1)">
      <defs>
       <path id="DejaVuSans-54" d="M -19 4666 
L 3928 4666 
L 3928 4134 
L 2272 4134 
L 2272 0 
L 1638 0 
L 1638 4134 
L -19 4134 
L -19 4666 
z
" transform="scale(0.015625)"/>
       <path id="DejaVuSans-76" d="M 191 3500 
L 800 3500 
L 1894 563 
L 2988 3500 
L 3597 3500 
L 2284 0 
L 1503 0 
L 191 3500 
z
" transform="scale(0.015625)"/>
       <path id="DejaVuSans-72" d="M 2631 2963 
Q 2534 3019 2420 3045 
Q 2306 3072 2169 3072 
Q 1681 3072 1420 2755 
Q 1159 2438 1159 1844 
L 1159 0 
L 581 0 
L 581 3500 
L 1159 3500 
L 1159 2956 
Q 1341 3275 1631 3429 
Q 1922 3584 2338 3584 
Q 2397 3584 2469 3576 
Q 2541 3569 2628 3553 
L 2631 2963 
z
" transform="scale(0.015625)"/>
       <path id="DejaVuSans-67" d="M 2906 1791 
Q 2906 2416 2648 2759 
Q 2391 3103 1925 3103 
Q 1463 3103 1205 2759 
Q 947 2416 947 1791 
Q 947 1169 1205 825 
Q 1463 481 1925 481 
Q 2391 481 2648 825 
Q 2906 1169 2906 1791 
z
M 3481 434 
Q 3481 -459 3084 -895 
Q 2688 -1331 1869 -1331 
Q 1566 -1331 1297 -1286 
Q 1028 -1241 775 -1147 
L 775 -588 
Q 1028 -725 1275 -790 
Q 1522 -856 1778 -856 
Q 2344 -856 2625 -561 
Q 2906 -266 2906 331 
L 2906 616 
Q 2728 306 2450 153 
Q 2172 0 1784 0 
Q 1141 0 747 490 
Q 353 981 353 1791 
Q 353 2603 747 3093 
Q 1141 3584 1784 3584 
Q 2172 3584 2450 3431 
Q 2728 3278 2906 2969 
L 2906 3500 
L 3481 3500 
L 3481 434 
z
" transform="scale(0.015625)"/>
       <path id="DejaVuSans-25" d="M 4653 2053 
Q 4381 2053 4226 1822 
Q 4072 1591 4072 1178 
Q 4072 772 4226 539 
Q 4381 306 4653 306 
Q 4919 306 5073 539 
Q 5228 772 5228 1178 
Q 5228 1588 5073 1820 
Q 4919 2053 4653 2053 
z
M 4653 2450 
Q 5147 2450 5437 2106 
Q 5728 1763 5728 1178 
Q 5728 594 5436 251 
Q 5144 -91 4653 -91 
Q 4153 -91 3862 251 
Q 3572 594 3572 1178 
Q 3572 1766 3864 2108 
Q 4156 2450 4653 2450 
z
M 1428 4353 
Q 1159 4353 1004 4120 
Q 850 3888 850 3481 
Q 850 3069 1003 2837 
Q 1156 2606 1428 2606 
Q 1700 2606 1854 2837 
Q 2009 3069 2009 3481 
Q 2009 3884 1853 4118 
Q 1697 4353 1428 4353 
z
M 4250 4750 
L 4750 4750 
L 1831 -91 
L 1331 -91 
L 4250 4750 
z
M 1428 4750 
Q 1922 4750 2215 4408 
Q 2509 4066 2509 3481 
Q 2509 2891 2217 2550 
Q 1925 2209 1428 2209 
Q 931 2209 642 2551 
Q 353 2894 353 3481 
Q 353 4063 643 4406 
Q 934 4750 1428 4750 
z
" transform="scale(0.015625)"/>
      </defs>
      <use xlink:href="#DejaVuSans-54"/>
      <use xlink:href="#DejaVuSans-65" x="44.083984"/>
      <use xlink:href="#DejaVuSans-61" x="105.607422"/>
      <use xlink:href="#DejaVuSans-6d" x="166.886719"/>
      <use xlink:href="#DejaVuSans-20" x="264.298828"/>
      <use xlink:href="#DejaVuSans-63" x="296.085938"/>
      <use xlink:href="#DejaVuSans-6f" x="351.066406"/>
      <use xlink:href="#DejaVuSans-76" x="412.248047"/>
      <use xlink:href="#DejaVuSans-65" x="471.427734"/>
      <use xlink:href="#DejaVuSans-72" x="532.951172"/>
      <use xlink:href="#DejaVuSans-61" x="574.064453"/>
      <use xlink:href="#DejaVuSans-67" x="635.34375"/>
      <use xlink:href="#DejaVuSans-65" x="698.820312"/>
      <use xlink:href="#DejaVuSans-20" x="760.34375"/>
      <use xlink:href="#DejaVuSans-28" x="792.130859"/>
      <use xlink:href="#DejaVuSans-25" x="831.144531"/>
      <use xlink:href="#DejaVuSans-29" x="926.164062"/>
     </g>
    </g>
   </g>
   <g id="line2d_51">
    <path d="M 400.360042 185.491353 
L 405.664419 185.491353 
L 405.664419 168.860024 
L 408.316608 168.860024 
L 408.316608 152.228694 
L 409.642702 152.228694 
L 409.642702 135.597365 
L 440.142872 135.597365 
L 440.142872 102.334706 
L 466.664759 102.334706 
L 466.664759 85.703377 
L 517.056345 85.703377 
L 517.056345 69.072048 
L 744.702541 69.072048 
L 744.702541 69.072048 
" clip-path="url(#p52dccba930)" style="fill: none; stroke: #e47726; stroke-width: 1.7; stroke-linecap: square"/>
   </g>
   <g id="patch_21">
    <path d="M 400.360042 268.648 
L 400.360042 59.09325 
" style="fill: none; stroke: #000000; stroke-width: 0.8; stroke-linejoin: miter; stroke-linecap: square"/>
   </g>
   <g id="patch_22">
    <path d="M 744.702542 268.648 
L 744.702542 59.09325 
" style="fill: none; stroke: #000000; stroke-width: 0.8; stroke-linejoin: miter; stroke-linecap: square"/>
   </g>
   <g id="patch_23">
    <path d="M 400.360042 268.648 
L 744.702542 268.648 
" style="fill: none; stroke: #000000; stroke-width: 0.8; stroke-linejoin: miter; stroke-linecap: square"/>
   </g>
   <g id="patch_24">
    <path d="M 400.360042 59.09325 
L 744.702542 59.09325 
" style="fill: none; stroke: #000000; stroke-width: 0.8; stroke-linejoin: miter; stroke-linecap: square"/>
   </g>
   <g id="text_31">
    <!-- Final coverage: 100.00% -->
    <g transform="translate(498.314104 53.09325)scale(0.12 -0.12)">
     <defs>
      <path id="DejaVuSans-46" d="M 628 4666 
L 3309 4666 
L 3309 4134 
L 1259 4134 
L 1259 2759 
L 3109 2759 
L 3109 2228 
L 1259 2228 
L 1259 0 
L 628 0 
L 628 4666 
z
" transform="scale(0.015625)"/>
      <path id="DejaVuSans-3a" d="M 750 794 
L 1409 794 
L 1409 0 
L 750 0 
L 750 794 
z
M 750 3309 
L 1409 3309 
L 1409 2516 
L 750 2516 
L 750 3309 
z
" transform="scale(0.015625)"/>
      <path id="DejaVuSans-2e" d="M 684 794 
L 1344 794 
L 1344 0 
L 684 0 
L 684 794 
z
" transform="scale(0.015625)"/>
     </defs>
     <use xlink:href="#DejaVuSans-46"/>
     <use xlink:href="#DejaVuSans-69" x="50.269531"/>
     <use xlink:href="#DejaVuSans-6e" x="78.052734"/>
     <use xlink:href="#DejaVuSans-61" x="141.431641"/>
     <use xlink:href="#DejaVuSans-6c" x="202.710938"/>
     <use xlink:href="#DejaVuSans-20" x="230.494141"/>
     <use xlink:href="#DejaVuSans-63" x="262.28125"/>
     <use xlink:href="#DejaVuSans-6f" x="317.261719"/>
     <use xlink:href="#DejaVuSans-76" x="378.443359"/>
     <use xlink:href="#DejaVuSans-65" x="437.623047"/>
     <use xlink:href="#DejaVuSans-72" x="499.146484"/>
     <use xlink:href="#DejaVuSans-61" x="540.259766"/>
     <use xlink:href="#DejaVuSans-67" x="601.539062"/>
     <use xlink:href="#DejaVuSans-65" x="665.015625"/>
     <use xlink:href="#DejaVuSans-3a" x="726.539062"/>
     <use xlink:href="#DejaVuSans-20" x="760.230469"/>
     <use xlink:href="#DejaVuSans-31" x="792.017578"/>
     <use xlink:href="#DejaVuSans-30" x="855.640625"/>
     <use xlink:href="#DejaVuSans-30" x="919.263672"/>
     <use xlink:href="#DejaVuSans-2e" x="982.886719"/>
     <use xlink:href="#DejaVuSans-30" x="1014.673828"/>
     <use xlink:href="#DejaVuSans-30" x="1078.296875"/>
     <use xlink:href="#DejaVuSans-25" x="1141.919922"/>
    </g>
   </g>
  </g>
  <g id="text_32">
   <!-- Patrolling · 2026-09-13 16-49-26_llm -->
   <g transform="translate(267.918167 14.798437)scale(0.1 -0.1)">
    <defs>
     <path id="DejaVuSans-50" d="M 1259 4147 
L 1259 2394 
L 2053 2394 
Q 2494 2394 2734 2622 
Q 2975 2850 2975 3272 
Q 2975 3691 2734 3919 
Q 2494 4147 2053 4147 
L 1259 4147 
z
M 628 4666 
L 2053 4666 
Q 2838 4666 3239 4311 
Q 3641 3956 3641 3272 
Q 3641 2581 3239 2228 
Q 2838 1875 2053 1875 
L 1259 1875 
L 1259 0 
L 628 0 
L 628 4666 
z
" transform="scale(0.015625)"/>
     <path id="DejaVuSans-b7" d="M 684 2619 
L 1344 2619 
L 1344 1825 
L 684 1825 
L 684 2619 
z
" transform="scale(0.015625)"/>
     <path id="DejaVuSans-2d" d="M 313 2009 
L 1997 2009 
L 1997 1497 
L 313 1497 
L 313 2009 
z
" transform="scale(0.015625)"/>
     <path id="DejaVuSans-39" d="M 703 97 
L 703 672 
Q 941 559 1184 500 
Q 1428 441 1663 441 
Q 2288 441 2617 861 
Q 2947 1281 2994 2138 
Q 2813 1869 2534 1725 
Q 2256 1581 1919 1581 
Q 1219 1581 811 2004 
Q 403 2428 403 3163 
Q 403 3881 828 4315 
Q 1253 4750 1959 4750 
Q 2769 4750 3195 4129 
Q 3622 3509 3622 2328 
Q 3622 1225 3098 567 
Q 2575 -91 1691 -91 
Q 1453 -91 1209 -44 
Q 966 3 703 97 
z
M 1959 2075 
Q 2384 2075 2632 2365 
Q 2881 2656 2881 3163 
Q 2881 3666 2632 3958 
Q 2384 4250 1959 4250 
Q 1534 4250 1286 3958 
Q 1038 3666 1038 3163 
Q 1038 2656 1286 2365 
Q 1534 2075 1959 2075 
z
" transform="scale(0.015625)"/>
     <path id="DejaVuSans-5f" d="M 3263 -1063 
L 3263 -1509 
L -63 -1509 
L -63 -1063 
L 3263 -1063 
z
" transform="scale(0.015625)"/>
    </defs>
    <use xlink:href="#DejaVuSans-50"/>
    <use xlink:href="#DejaVuSans-61" x="55.802734"/>
    <use xlink:href="#DejaVuSans-74" x="117.082031"/>
    <use xlink:href="#DejaVuSans-72" x="156.291016"/>
    <use xlink:href="#DejaVuSans-6f" x="195.154297"/>
    <use xlink:href="#DejaVuSans-6c" x="256.335938"/>
    <use xlink:href="#DejaVuSans-6c" x="284.119141"/>
    <use xlink:href="#DejaVuSans-69" x="311.902344"/>
    <use xlink:href="#DejaVuSans-6e" x="339.685547"/>
    <use xlink:href="#DejaVuSans-67" x="403.064453"/>
    <use xlink:href="#DejaVuSans-20" x="466.541016"/>
    <use xlink:href="#DejaVuSans-b7" x="498.328125"/>
    <use xlink:href="#DejaVuSans-20" x="530.115234"/>
    <use xlink:href="#DejaVuSans-32" x="561.902344"/>
    <use xlink:href="#DejaVuSans-30" x="625.525391"/>
    <use xlink:href="#DejaVuSans-32" x="689.148438"/>
    <use xlink:href="#DejaVuSans-36" x="752.771484"/>
    <use xlink:href="#DejaVuSans-2d" x="816.394531"/>
    <use xlink:href="#DejaVuSans-30" x="852.478516"/>
    <use xlink:href="#DejaVuSans-39" x="916.101562"/>
    <use xlink:href="#DejaVuSans-2d" x="979.724609"/>
    <use xlink:href="#DejaVuSans-31" x="1015.808594"/>
    <use xlink:href="#DejaVuSans-33" x="1079.431641"/>
    <use xlink:href="#DejaVuSans-20" x="1143.054688"/>
    <use xlink:href="#DejaVuSans-31" x="1174.841797"/>
    <use xlink:href="#DejaVuSans-36" x="1238.464844"/>
    <use xlink:href="#DejaVuSans-2d" x="1302.087891"/>
    <use xlink:href="#DejaVuSans-34" x="1338.171875"/>
    <use xlink:href="#DejaVuSans-39" x="1401.794922"/>
    <use xlink:href="#DejaVuSans-2d" x="1465.417969"/>
    <use xlink:href="#DejaVuSans-32" x="1501.501953"/>
    <use xlink:href="#DejaVuSans-36" x="1565.125"/>
    <use xlink:href="#DejaVuSans-5f" x="1628.748047"/>
    <use xlink:href="#DejaVuSans-6c" x="1678.748047"/>
    <use xlink:href="#DejaVuSans-6c" x="1706.53125"/>
    <use xlink:href="#DejaVuSans-6d" x="1734.314453"/>
   </g>
   <!-- Detection within observed arena span: R0 95.7%, R1 100.0%, R2 95.9% -->
   <g transform="translate(178.987698 26.274375)scale(0.1 -0.1)">
    <defs>
     <path id="DejaVuSans-44" d="M 1259 4147 
L 1259 519 
L 2022 519 
Q 2988 519 3436 956 
Q 3884 1394 3884 2338 
Q 3884 3275 3436 3711 
Q 2988 4147 2022 4147 
L 1259 4147 
z
M 628 4666 
L 1925 4666 
Q 3281 4666 3915 4102 
Q 4550 3538 4550 2338 
Q 4550 1131 3912 565 
Q 3275 0 1925 0 
L 628 0 
L 628 4666 
z
" transform="scale(0.015625)"/>
     <path id="DejaVuSans-77" d="M 269 3500 
L 844 3500 
L 1563 769 
L 2278 3500 
L 2956 3500 
L 3675 769 
L 4391 3500 
L 4966 3500 
L 4050 0 
L 3372 0 
L 2619 2869 
L 1863 0 
L 1184 0 
L 269 3500 
z
" transform="scale(0.015625)"/>
     <path id="DejaVuSans-35" d="M 691 4666 
L 3169 4666 
L 3169 4134 
L 1269 4134 
L 1269 2991 
Q 1406 3038 1543 3061 
Q 1681 3084 1819 3084 
Q 2600 3084 3056 2656 
Q 3513 2228 3513 1497 
Q 3513 744 3044 326 
Q 2575 -91 1722 -91 
Q 1428 -91 1123 -41 
Q 819 9 494 109 
L 494 744 
Q 775 591 1075 516 
Q 1375 441 1709 441 
Q 2250 441 2565 725 
Q 2881 1009 2881 1497 
Q 2881 1984 2565 2268 
Q 2250 2553 1709 2553 
Q 1456 2553 1204 2497 
Q 953 2441 691 2322 
L 691 4666 
z
" transform="scale(0.015625)"/>
     <path id="DejaVuSans-37" d="M 525 4666 
L 3525 4666 
L 3525 4397 
L 1831 0 
L 1172 0 
L 2766 4134 
L 525 4134 
L 525 4666 
z
" transform="scale(0.015625)"/>
     <path id="DejaVuSans-2c" d="M 750 794 
L 1409 794 
L 1409 256 
L 897 -744 
L 494 -744 
L 750 256 
L 750 794 
z
" transform="scale(0.015625)"/>
    </defs>
    <use xlink:href="#DejaVuSans-44"/>
    <use xlink:href="#DejaVuSans-65" x="77.001953"/>
    <use xlink:href="#DejaVuSans-74" x="138.525391"/>
    <use xlink:href="#DejaVuSans-65" x="177.734375"/>
    <use xlink:href="#DejaVuSans-63" x="239.257812"/>
    <use xlink:href="#DejaVuSans-74" x="294.238281"/>
    <use xlink:href="#DejaVuSans-69" x="333.447266"/>
    <use xlink:href="#DejaVuSans-6f" x="361.230469"/>
    <use xlink:href="#DejaVuSans-6e" x="422.412109"/>
    <use xlink:href="#DejaVuSans-20" x="485.791016"/>
    <use xlink:href="#DejaVuSans-77" x="517.578125"/>
    <use xlink:href="#DejaVuSans-69" x="599.365234"/>
    <use xlink:href="#DejaVuSans-74" x="627.148438"/>
    <use xlink:href="#DejaVuSans-68" x="666.357422"/>
    <use xlink:href="#DejaVuSans-69" x="729.736328"/>
    <use xlink:href="#DejaVuSans-6e" x="757.519531"/>
    <use xlink:href="#DejaVuSans-20" x="820.898438"/>
    <use xlink:href="#DejaVuSans-6f" x="852.685547"/>
    <use xlink:href="#DejaVuSans-62" x="913.867188"/>
    <use xlink:href="#DejaVuSans-73" x="977.34375"/>
    <use xlink:href="#DejaVuSans-65" x="1029.443359"/>
    <use xlink:href="#DejaVuSans-72" x="1090.966797"/>
    <use xlink:href="#DejaVuSans-76" x="1132.080078"/>
    <use xlink:href="#DejaVuSans-65" x="1191.259766"/>
    <use xlink:href="#DejaVuSans-64" x="1252.783203"/>
    <use xlink:href="#DejaVuSans-20" x="1316.259766"/>
    <use xlink:href="#DejaVuSans-61" x="1348.046875"/>
    <use xlink:href="#DejaVuSans-72" x="1409.326172"/>
    <use xlink:href="#DejaVuSans-65" x="1448.189453"/>
    <use xlink:href="#DejaVuSans-6e" x="1509.712891"/>
    <use xlink:href="#DejaVuSans-61" x="1573.091797"/>
    <use xlink:href="#DejaVuSans-20" x="1634.371094"/>
    <use xlink:href="#DejaVuSans-73" x="1666.158203"/>
    <use xlink:href="#DejaVuSans-70" x="1718.257812"/>
    <use xlink:href="#DejaVuSans-61" x="1781.734375"/>
    <use xlink:href="#DejaVuSans-6e" x="1843.013672"/>
    <use xlink:href="#DejaVuSans-3a" x="1906.392578"/>
    <use xlink:href="#DejaVuSans-20" x="1940.083984"/>
    <use xlink:href="#DejaVuSans-52" x="1971.871094"/>
    <use xlink:href="#DejaVuSans-30" x="2041.353516"/>
    <use xlink:href="#DejaVuSans-20" x="2104.976562"/>
    <use xlink:href="#DejaVuSans-39" x="2136.763672"/>
    <use xlink:href="#DejaVuSans-35" x="2200.386719"/>
    <use xlink:href="#DejaVuSans-2e" x="2264.009766"/>
    <use xlink:href="#DejaVuSans-37" x="2295.796875"/>
    <use xlink:href="#DejaVuSans-25" x="2359.419922"/>
    <use xlink:href="#DejaVuSans-2c" x="2454.439453"/>
    <use xlink:href="#DejaVuSans-20" x="2486.226562"/>
    <use xlink:href="#DejaVuSans-52" x="2518.013672"/>
    <use xlink:href="#DejaVuSans-31" x="2587.496094"/>
    <use xlink:href="#DejaVuSans-20" x="2651.119141"/>
    <use xlink:href="#DejaVuSans-31" x="2682.90625"/>
    <use xlink:href="#DejaVuSans-30" x="2746.529297"/>
    <use xlink:href="#DejaVuSans-30" x="2810.152344"/>
    <use xlink:href="#DejaVuSans-2e" x="2873.775391"/>
    <use xlink:href="#DejaVuSans-30" x="2905.5625"/>
    <use xlink:href="#DejaVuSans-25" x="2969.185547"/>
    <use xlink:href="#DejaVuSans-2c" x="3064.205078"/>
    <use xlink:href="#DejaVuSans-20" x="3095.992188"/>
    <use xlink:href="#DejaVuSans-52" x="3127.779297"/>
    <use xlink:href="#DejaVuSans-32" x="3197.261719"/>
    <use xlink:href="#DejaVuSans-20" x="3260.884766"/>
    <use xlink:href="#DejaVuSans-39" x="3292.671875"/>
    <use xlink:href="#DejaVuSans-35" x="3356.294922"/>
    <use xlink:href="#DejaVuSans-2e" x="3419.917969"/>
    <use xlink:href="#DejaVuSans-39" x="3451.705078"/>
    <use xlink:href="#DejaVuSans-25" x="3515.328125"/>
   </g>
  </g>
 </g>
 <defs>
  <clipPath id="p660aa72e16">
   <rect x="34.240625" y="59.09325" width="279.406333" height="209.55475"/>
  </clipPath>
  <clipPath id="p52dccba930">
   <rect x="400.360042" y="59.09325" width="344.3425" height="209.55475"/>
  </clipPath>
 </defs>
</svg>
